%TF.GenerationSoftware,KiCad,Pcbnew,(6.99.0-4793-g33d76f63b0-dirty)*%
%TF.CreationDate,2022-12-11T21:20:13+01:00*%
%TF.ProjectId,resolver-to-sincos,7265736f-6c76-4657-922d-746f2d73696e,rev?*%
%TF.SameCoordinates,Original*%
%TF.FileFunction,Copper,L2,Inr*%
%TF.FilePolarity,Positive*%
%FSLAX46Y46*%
G04 Gerber Fmt 4.6, Leading zero omitted, Abs format (unit mm)*
G04 Created by KiCad (PCBNEW (6.99.0-4793-g33d76f63b0-dirty)) date 2022-12-11 21:20:13*
%MOMM*%
%LPD*%
G01*
G04 APERTURE LIST*
G04 Aperture macros list*
%AMRoundRect*
0 Rectangle with rounded corners*
0 $1 Rounding radius*
0 $2 $3 $4 $5 $6 $7 $8 $9 X,Y pos of 4 corners*
0 Add a 4 corners polygon primitive as box body*
4,1,4,$2,$3,$4,$5,$6,$7,$8,$9,$2,$3,0*
0 Add four circle primitives for the rounded corners*
1,1,$1+$1,$2,$3*
1,1,$1+$1,$4,$5*
1,1,$1+$1,$6,$7*
1,1,$1+$1,$8,$9*
0 Add four rect primitives between the rounded corners*
20,1,$1+$1,$2,$3,$4,$5,0*
20,1,$1+$1,$4,$5,$6,$7,0*
20,1,$1+$1,$6,$7,$8,$9,0*
20,1,$1+$1,$8,$9,$2,$3,0*%
G04 Aperture macros list end*
%TA.AperFunction,ComponentPad*%
%ADD10R,1.700000X1.700000*%
%TD*%
%TA.AperFunction,ComponentPad*%
%ADD11O,1.700000X1.700000*%
%TD*%
%TA.AperFunction,ComponentPad*%
%ADD12C,5.000000*%
%TD*%
%TA.AperFunction,ComponentPad*%
%ADD13RoundRect,0.249999X0.790001X1.550001X-0.790001X1.550001X-0.790001X-1.550001X0.790001X-1.550001X0*%
%TD*%
%TA.AperFunction,ComponentPad*%
%ADD14O,2.080000X3.600000*%
%TD*%
%TA.AperFunction,ComponentPad*%
%ADD15RoundRect,0.249999X-0.790001X-1.550001X0.790001X-1.550001X0.790001X1.550001X-0.790001X1.550001X0*%
%TD*%
%TA.AperFunction,ViaPad*%
%ADD16C,0.700000*%
%TD*%
G04 APERTURE END LIST*
D10*
%TO.N,+3.3V*%
%TO.C,J4*%
X131571999Y-128015999D03*
D11*
%TO.N,/Microprocessor/USART4_TX*%
X134111999Y-128015999D03*
%TO.N,/Microprocessor/USART4_RX*%
X136651999Y-128015999D03*
%TO.N,GND*%
X139191999Y-128015999D03*
%TD*%
D10*
%TO.N,+3.3V*%
%TO.C,J1*%
X105419499Y-115310999D03*
D11*
%TO.N,/Microprocessor/SWDIO*%
X107959499Y-115310999D03*
%TO.N,GND*%
X105419499Y-117850999D03*
%TO.N,/Microprocessor/SWCK*%
X107959499Y-117850999D03*
%TO.N,GND*%
X105419499Y-120390999D03*
%TO.N,unconnected-(J1-SWO{slash}TDO)*%
X107959499Y-120390999D03*
%TO.N,unconnected-(J1-KEY)*%
X105419499Y-122930999D03*
%TO.N,unconnected-(J1-NC{slash}TDI)*%
X107959499Y-122930999D03*
%TO.N,GND*%
X105419499Y-125470999D03*
%TO.N,/Microprocessor/~{RESET}*%
X107959499Y-125470999D03*
%TD*%
D12*
%TO.N,GND*%
%TO.C,H4*%
X105000000Y-105000000D03*
%TD*%
%TO.N,GND*%
%TO.C,H3*%
X170000000Y-105000000D03*
%TD*%
%TO.N,GND*%
%TO.C,H2*%
X170000000Y-170000000D03*
%TD*%
%TO.N,GND*%
%TO.C,H1*%
X105000000Y-170000000D03*
%TD*%
D13*
%TO.N,+5V*%
%TO.C,J3*%
X157480000Y-110236000D03*
D14*
X152399999Y-110235999D03*
%TO.N,Net-(J3-Pin_3)*%
X147319999Y-110235999D03*
%TO.N,Net-(J3-Pin_4)*%
X142239999Y-110235999D03*
%TO.N,Net-(J3-Pin_5)*%
X137159999Y-110235999D03*
%TO.N,Net-(J3-Pin_6)*%
X132079999Y-110235999D03*
%TO.N,GND*%
X126999999Y-110235999D03*
X121919999Y-110235999D03*
%TD*%
D15*
%TO.N,Net-(J2-Pin_1)*%
%TO.C,J2*%
X121920000Y-164592000D03*
D14*
%TO.N,Net-(J2-Pin_2)*%
X126999999Y-164591999D03*
%TO.N,GND*%
X132079999Y-164591999D03*
%TO.N,Net-(J2-Pin_4)*%
X137159999Y-164591999D03*
%TO.N,Net-(J2-Pin_5)*%
X142239999Y-164591999D03*
%TO.N,GND*%
X147319999Y-164591999D03*
%TO.N,Net-(J2-Pin_7)*%
X152399999Y-164591999D03*
%TO.N,Net-(J2-Pin_8)*%
X157479999Y-164591999D03*
%TD*%
D16*
%TO.N,+3.3V*%
X142748000Y-128524000D03*
X146812000Y-124460000D03*
%TO.N,GND*%
X146304000Y-127000000D03*
X146304000Y-134112000D03*
%TO.N,+5V*%
X148477500Y-133096000D03*
%TO.N,/U_REF*%
X108204000Y-165100000D03*
%TO.N,+3.3V*%
X108204000Y-159512000D03*
%TO.N,GND*%
X102616000Y-111760000D03*
%TO.N,RESOLVER_TX*%
X116840000Y-152400000D03*
X113792000Y-121920000D03*
%TO.N,+3.3V*%
X107188000Y-144272000D03*
%TO.N,GND*%
X109728000Y-129540000D03*
%TO.N,+3.3V*%
X109728000Y-128016000D03*
X156972000Y-122936000D03*
%TO.N,SW_NEG*%
X148336000Y-131572000D03*
X147828000Y-140208000D03*
%TO.N,SW_POS*%
X146304000Y-144272000D03*
X148336000Y-130556000D03*
%TO.N,GND*%
X116848332Y-118364174D03*
X107696000Y-151384000D03*
X163068000Y-121412000D03*
X171196000Y-120904000D03*
X169672000Y-120904000D03*
X161036000Y-120904000D03*
X159004000Y-120904000D03*
%TO.N,+5V*%
X167640000Y-121412000D03*
%TO.N,GND*%
X172212000Y-112776000D03*
%TO.N,+3.3V*%
X115245079Y-117499187D03*
%TO.N,GND*%
X115316000Y-115824000D03*
%TO.N,+3.3V*%
X115189000Y-128664000D03*
%TO.N,GND*%
X118237000Y-128664000D03*
%TO.N,+5V*%
X108204000Y-163068000D03*
%TO.N,GND*%
X108204000Y-156458000D03*
%TO.N,/U_REF*%
X111252000Y-139192000D03*
%TO.N,+5V*%
X107696000Y-136652000D03*
%TO.N,GND*%
X109220000Y-137668000D03*
%TO.N,/U_REF*%
X109220000Y-149860000D03*
%TO.N,GND*%
X107696000Y-147320000D03*
X153924000Y-161036000D03*
X148844000Y-161036000D03*
X145796000Y-161036000D03*
X140208000Y-161036000D03*
X119380000Y-142240000D03*
X109728000Y-141224000D03*
%TO.N,+5V*%
X110236000Y-143256000D03*
%TO.N,/U_REF*%
X164084000Y-143256000D03*
X162560000Y-135636000D03*
X153924000Y-149352000D03*
X139192000Y-136652000D03*
X127508000Y-150368000D03*
X127508000Y-143764000D03*
%TO.N,/OUT_SIN_N*%
X170180000Y-145288000D03*
X132080000Y-120904000D03*
%TO.N,/OUT_SIN_P*%
X139700000Y-120904000D03*
X169672000Y-138176000D03*
%TO.N,/OUT_COS_N*%
X130556000Y-121778500D03*
X130556000Y-146304000D03*
%TO.N,/OUT_COS_P*%
X124460000Y-138684000D03*
X129540000Y-122936000D03*
%TO.N,GND*%
X150876000Y-114300000D03*
X145796000Y-114300000D03*
X140716000Y-114300000D03*
X135636000Y-114300000D03*
X145796000Y-119380000D03*
%TO.N,+5V*%
X143764000Y-119380000D03*
X134112000Y-119380000D03*
%TO.N,GND*%
X136144000Y-119380000D03*
%TO.N,+5V*%
X128016000Y-154940000D03*
%TO.N,GND*%
X125984000Y-154940000D03*
X130556000Y-161036000D03*
X125476000Y-161036000D03*
%TO.N,Net-(U2D-+)*%
X167640000Y-140716000D03*
X167640000Y-135636000D03*
%TO.N,Net-(U4A-+)*%
X127508000Y-135128000D03*
X127508000Y-140716000D03*
%TO.N,GND*%
X163576000Y-135128000D03*
X131064000Y-134620000D03*
X172440500Y-110822500D03*
%TO.N,+5V*%
X165328500Y-109806500D03*
%TO.N,/U_REF*%
X153924000Y-136652000D03*
%TO.N,GND*%
X153924000Y-134620000D03*
X140716000Y-134620000D03*
X146304000Y-146304000D03*
X125476000Y-141224000D03*
%TO.N,+5V*%
X125476000Y-143256000D03*
%TO.N,GND*%
X156464000Y-143256000D03*
%TO.N,+5V*%
X157480000Y-143256000D03*
%TO.N,GND*%
X146812000Y-135636000D03*
%TO.N,+5V*%
X147828000Y-135636000D03*
%TO.N,Net-(U2B-+)*%
X158496000Y-143764000D03*
X151384000Y-150876000D03*
%TO.N,GND*%
X167640000Y-142240000D03*
X135636000Y-142240000D03*
X153416000Y-152400000D03*
X140716000Y-152258500D03*
%TO.N,+5V*%
X142748000Y-154940000D03*
X155448000Y-154940000D03*
%TO.N,GND*%
X153416000Y-154940000D03*
X140716000Y-154940000D03*
%TO.N,/U_REF*%
X138684000Y-149860000D03*
X148844000Y-150876000D03*
%TO.N,Net-(U2B--)*%
X157988000Y-152908000D03*
X159004000Y-144780000D03*
%TO.N,Net-(U4C-+)*%
X138176000Y-150876000D03*
X135636000Y-143764000D03*
%TO.N,Net-(U4C--)*%
X135636000Y-144780000D03*
X143256000Y-152908000D03*
%TD*%
%TA.AperFunction,Conductor*%
%TO.N,GND*%
G36*
X174437000Y-100516881D02*
G01*
X174483119Y-100563000D01*
X174500000Y-100626000D01*
X174500000Y-174374000D01*
X174483119Y-174437000D01*
X174437000Y-174483119D01*
X174374000Y-174500000D01*
X100626000Y-174500000D01*
X100563000Y-174483119D01*
X100516881Y-174437000D01*
X100500000Y-174374000D01*
X100500000Y-172298748D01*
X103065827Y-172298748D01*
X103073638Y-172310256D01*
X103197894Y-172414519D01*
X103203764Y-172418889D01*
X103490396Y-172607409D01*
X103496718Y-172611059D01*
X103803303Y-172765032D01*
X103810018Y-172767928D01*
X104132380Y-172885258D01*
X104139403Y-172887361D01*
X104473225Y-172966479D01*
X104480413Y-172967746D01*
X104821159Y-173007574D01*
X104828473Y-173008000D01*
X105171527Y-173008000D01*
X105178840Y-173007574D01*
X105519586Y-172967746D01*
X105526774Y-172966479D01*
X105860596Y-172887361D01*
X105867619Y-172885258D01*
X106189981Y-172767928D01*
X106196696Y-172765032D01*
X106503281Y-172611059D01*
X106509603Y-172607409D01*
X106796235Y-172418889D01*
X106802105Y-172414519D01*
X106926360Y-172310256D01*
X106934171Y-172298749D01*
X106934170Y-172298748D01*
X168065827Y-172298748D01*
X168073638Y-172310256D01*
X168197894Y-172414519D01*
X168203764Y-172418889D01*
X168490396Y-172607409D01*
X168496718Y-172611059D01*
X168803303Y-172765032D01*
X168810018Y-172767928D01*
X169132380Y-172885258D01*
X169139403Y-172887361D01*
X169473225Y-172966479D01*
X169480413Y-172967746D01*
X169821159Y-173007574D01*
X169828473Y-173008000D01*
X170171527Y-173008000D01*
X170178840Y-173007574D01*
X170519586Y-172967746D01*
X170526774Y-172966479D01*
X170860596Y-172887361D01*
X170867619Y-172885258D01*
X171189981Y-172767928D01*
X171196696Y-172765032D01*
X171503281Y-172611059D01*
X171509603Y-172607409D01*
X171796235Y-172418889D01*
X171802105Y-172414519D01*
X171926360Y-172310256D01*
X171934171Y-172298749D01*
X171927392Y-172286603D01*
X170011729Y-170370939D01*
X170000000Y-170364167D01*
X169988270Y-170370939D01*
X168072605Y-172286604D01*
X168065827Y-172298748D01*
X106934170Y-172298748D01*
X106927392Y-172286603D01*
X105011729Y-170370939D01*
X105000000Y-170364167D01*
X104988270Y-170370939D01*
X103072605Y-172286604D01*
X103065827Y-172298748D01*
X100500000Y-172298748D01*
X100500000Y-170003657D01*
X101987115Y-170003657D01*
X102007062Y-170346143D01*
X102007910Y-170353403D01*
X102067482Y-170691255D01*
X102069172Y-170698382D01*
X102167563Y-171027029D01*
X102170066Y-171033908D01*
X102305943Y-171348907D01*
X102309231Y-171355453D01*
X102480760Y-171652550D01*
X102484778Y-171658659D01*
X102688343Y-171932094D01*
X102697817Y-171937875D01*
X102709691Y-171931096D01*
X104629059Y-170011729D01*
X104635831Y-170000000D01*
X105364167Y-170000000D01*
X105370939Y-170011729D01*
X107290306Y-171931095D01*
X107302182Y-171937875D01*
X107311655Y-171932095D01*
X107515221Y-171658659D01*
X107519239Y-171652550D01*
X107690768Y-171355453D01*
X107694056Y-171348907D01*
X107829933Y-171033908D01*
X107832436Y-171027029D01*
X107930827Y-170698382D01*
X107932517Y-170691255D01*
X107992089Y-170353403D01*
X107992937Y-170346143D01*
X108012885Y-170003657D01*
X166987115Y-170003657D01*
X167007062Y-170346143D01*
X167007910Y-170353403D01*
X167067482Y-170691255D01*
X167069172Y-170698382D01*
X167167563Y-171027029D01*
X167170066Y-171033908D01*
X167305943Y-171348907D01*
X167309231Y-171355453D01*
X167480760Y-171652550D01*
X167484778Y-171658659D01*
X167688343Y-171932094D01*
X167697817Y-171937875D01*
X167709691Y-171931096D01*
X169629059Y-170011729D01*
X169635831Y-170000000D01*
X170364167Y-170000000D01*
X170370939Y-170011729D01*
X172290306Y-171931095D01*
X172302182Y-171937875D01*
X172311655Y-171932095D01*
X172515221Y-171658659D01*
X172519239Y-171652550D01*
X172690768Y-171355453D01*
X172694056Y-171348907D01*
X172829933Y-171033908D01*
X172832436Y-171027029D01*
X172930827Y-170698382D01*
X172932517Y-170691255D01*
X172992089Y-170353403D01*
X172992937Y-170346143D01*
X173012885Y-170003657D01*
X173012885Y-169996343D01*
X172992937Y-169653856D01*
X172992089Y-169646596D01*
X172932517Y-169308744D01*
X172930827Y-169301617D01*
X172832436Y-168972970D01*
X172829933Y-168966091D01*
X172694056Y-168651092D01*
X172690768Y-168644546D01*
X172519239Y-168347449D01*
X172515221Y-168341340D01*
X172311657Y-168067906D01*
X172302181Y-168062123D01*
X172290307Y-168068902D01*
X170370939Y-169988270D01*
X170364167Y-170000000D01*
X169635831Y-170000000D01*
X169629059Y-169988270D01*
X167709693Y-168068904D01*
X167697817Y-168062124D01*
X167688342Y-168067906D01*
X167484778Y-168341340D01*
X167480760Y-168347449D01*
X167309231Y-168644546D01*
X167305943Y-168651092D01*
X167170066Y-168966091D01*
X167167563Y-168972970D01*
X167069172Y-169301617D01*
X167067482Y-169308744D01*
X167007910Y-169646596D01*
X167007062Y-169653856D01*
X166987115Y-169996343D01*
X166987115Y-170003657D01*
X108012885Y-170003657D01*
X108012885Y-169996343D01*
X107992937Y-169653856D01*
X107992089Y-169646596D01*
X107932517Y-169308744D01*
X107930827Y-169301617D01*
X107832436Y-168972970D01*
X107829933Y-168966091D01*
X107694056Y-168651092D01*
X107690768Y-168644546D01*
X107519239Y-168347449D01*
X107515221Y-168341340D01*
X107311657Y-168067906D01*
X107302181Y-168062123D01*
X107290307Y-168068902D01*
X105370939Y-169988270D01*
X105364167Y-170000000D01*
X104635831Y-170000000D01*
X104629059Y-169988270D01*
X102709693Y-168068904D01*
X102697817Y-168062124D01*
X102688342Y-168067906D01*
X102484778Y-168341340D01*
X102480760Y-168347449D01*
X102309231Y-168644546D01*
X102305943Y-168651092D01*
X102170066Y-168966091D01*
X102167563Y-168972970D01*
X102069172Y-169301617D01*
X102067482Y-169308744D01*
X102007910Y-169646596D01*
X102007062Y-169653856D01*
X101987115Y-169996343D01*
X101987115Y-170003657D01*
X100500000Y-170003657D01*
X100500000Y-167701250D01*
X103065827Y-167701250D01*
X103072605Y-167713394D01*
X104988270Y-169629059D01*
X105000000Y-169635831D01*
X105011729Y-169629059D01*
X106927393Y-167713394D01*
X106934171Y-167701250D01*
X168065827Y-167701250D01*
X168072605Y-167713394D01*
X169988270Y-169629059D01*
X170000000Y-169635831D01*
X170011729Y-169629059D01*
X171927393Y-167713394D01*
X171934171Y-167701250D01*
X171926360Y-167689742D01*
X171802105Y-167585480D01*
X171796235Y-167581110D01*
X171509603Y-167392590D01*
X171503281Y-167388940D01*
X171196696Y-167234967D01*
X171189981Y-167232071D01*
X170867619Y-167114741D01*
X170860596Y-167112638D01*
X170526774Y-167033520D01*
X170519586Y-167032253D01*
X170178840Y-166992425D01*
X170171527Y-166992000D01*
X169828473Y-166992000D01*
X169821159Y-166992425D01*
X169480413Y-167032253D01*
X169473225Y-167033520D01*
X169139403Y-167112638D01*
X169132380Y-167114741D01*
X168810018Y-167232071D01*
X168803303Y-167234967D01*
X168496718Y-167388940D01*
X168490396Y-167392590D01*
X168203764Y-167581110D01*
X168197894Y-167585480D01*
X168073638Y-167689742D01*
X168065827Y-167701250D01*
X106934171Y-167701250D01*
X106926360Y-167689742D01*
X106802105Y-167585480D01*
X106796235Y-167581110D01*
X106509603Y-167392590D01*
X106503281Y-167388940D01*
X106196696Y-167234967D01*
X106189981Y-167232071D01*
X105867619Y-167114741D01*
X105860596Y-167112638D01*
X105526774Y-167033520D01*
X105519586Y-167032253D01*
X105178840Y-166992425D01*
X105171527Y-166992000D01*
X104828473Y-166992000D01*
X104821159Y-166992425D01*
X104480413Y-167032253D01*
X104473225Y-167033520D01*
X104139403Y-167112638D01*
X104132380Y-167114741D01*
X103810018Y-167232071D01*
X103803303Y-167234967D01*
X103496718Y-167388940D01*
X103490396Y-167392590D01*
X103203764Y-167581110D01*
X103197894Y-167585480D01*
X103073638Y-167689742D01*
X103065827Y-167701250D01*
X100500000Y-167701250D01*
X100500000Y-166192546D01*
X120371500Y-166192546D01*
X120371824Y-166195724D01*
X120371825Y-166195730D01*
X120381361Y-166289072D01*
X120382113Y-166296427D01*
X120384274Y-166302950D01*
X120384275Y-166302952D01*
X120411584Y-166385368D01*
X120437885Y-166464739D01*
X120441732Y-166470976D01*
X120441735Y-166470982D01*
X120527116Y-166609404D01*
X120530970Y-166615652D01*
X120656348Y-166741030D01*
X120714636Y-166776982D01*
X120801017Y-166830264D01*
X120801019Y-166830265D01*
X120807261Y-166834115D01*
X120975573Y-166889887D01*
X121079454Y-166900500D01*
X122757341Y-166900500D01*
X122760546Y-166900500D01*
X122864427Y-166889887D01*
X123032739Y-166834115D01*
X123183652Y-166741030D01*
X123309030Y-166615652D01*
X123402115Y-166464739D01*
X123457887Y-166296427D01*
X123468500Y-166192546D01*
X123468500Y-165414407D01*
X125451500Y-165414407D01*
X125451704Y-165416930D01*
X125451705Y-165416954D01*
X125466171Y-165596142D01*
X125466580Y-165601205D01*
X125467793Y-165606129D01*
X125467794Y-165606131D01*
X125525160Y-165838872D01*
X125526413Y-165843956D01*
X125528397Y-165848614D01*
X125528400Y-165848621D01*
X125578171Y-165965437D01*
X125624410Y-166073965D01*
X125758035Y-166285276D01*
X125923826Y-166472415D01*
X126117490Y-166630537D01*
X126121890Y-166633077D01*
X126121894Y-166633080D01*
X126186438Y-166670344D01*
X126334010Y-166755545D01*
X126567779Y-166844201D01*
X126812742Y-166894211D01*
X127062555Y-166904278D01*
X127310748Y-166874142D01*
X127550892Y-166804583D01*
X127776769Y-166697403D01*
X127982528Y-166555378D01*
X128162840Y-166382186D01*
X128313035Y-166182313D01*
X128429223Y-165960935D01*
X128508395Y-165723786D01*
X128548500Y-165477008D01*
X128548500Y-165411833D01*
X130532000Y-165411833D01*
X130532205Y-165416930D01*
X130546666Y-165596061D01*
X130548289Y-165606050D01*
X130605675Y-165838872D01*
X130608878Y-165848466D01*
X130702862Y-166069054D01*
X130707570Y-166078026D01*
X130835724Y-166280684D01*
X130841805Y-166288776D01*
X131000802Y-166468246D01*
X131008111Y-166475267D01*
X131193834Y-166626906D01*
X131202179Y-166632667D01*
X131409819Y-166752547D01*
X131418980Y-166756894D01*
X131643165Y-166841916D01*
X131652896Y-166844735D01*
X131812273Y-166877272D01*
X131823526Y-166877046D01*
X131826000Y-166866062D01*
X131826000Y-166862649D01*
X132334000Y-166862649D01*
X132337902Y-166876122D01*
X132351749Y-166878372D01*
X132385597Y-166874263D01*
X132395532Y-166872234D01*
X132625836Y-166805526D01*
X132635298Y-166801938D01*
X132851936Y-166699143D01*
X132860689Y-166694089D01*
X133058033Y-166557871D01*
X133065871Y-166551472D01*
X133238803Y-166385368D01*
X133245511Y-166377797D01*
X133389566Y-166186096D01*
X133394966Y-166177557D01*
X133506403Y-165965230D01*
X133510369Y-165955921D01*
X133586297Y-165728490D01*
X133588723Y-165718645D01*
X133627185Y-165481978D01*
X133628000Y-165471891D01*
X133628000Y-165414407D01*
X135611500Y-165414407D01*
X135611704Y-165416930D01*
X135611705Y-165416954D01*
X135626171Y-165596142D01*
X135626580Y-165601205D01*
X135627793Y-165606129D01*
X135627794Y-165606131D01*
X135685160Y-165838872D01*
X135686413Y-165843956D01*
X135688397Y-165848614D01*
X135688400Y-165848621D01*
X135738171Y-165965437D01*
X135784410Y-166073965D01*
X135918035Y-166285276D01*
X136083826Y-166472415D01*
X136277490Y-166630537D01*
X136281890Y-166633077D01*
X136281894Y-166633080D01*
X136346438Y-166670344D01*
X136494010Y-166755545D01*
X136727779Y-166844201D01*
X136972742Y-166894211D01*
X137222555Y-166904278D01*
X137470748Y-166874142D01*
X137710892Y-166804583D01*
X137936769Y-166697403D01*
X138142528Y-166555378D01*
X138322840Y-166382186D01*
X138473035Y-166182313D01*
X138589223Y-165960935D01*
X138668395Y-165723786D01*
X138708500Y-165477008D01*
X138708500Y-165414407D01*
X140691500Y-165414407D01*
X140691704Y-165416930D01*
X140691705Y-165416954D01*
X140706171Y-165596142D01*
X140706580Y-165601205D01*
X140707793Y-165606129D01*
X140707794Y-165606131D01*
X140765160Y-165838872D01*
X140766413Y-165843956D01*
X140768397Y-165848614D01*
X140768400Y-165848621D01*
X140818171Y-165965437D01*
X140864410Y-166073965D01*
X140998035Y-166285276D01*
X141163826Y-166472415D01*
X141357490Y-166630537D01*
X141361890Y-166633077D01*
X141361894Y-166633080D01*
X141426438Y-166670344D01*
X141574010Y-166755545D01*
X141807779Y-166844201D01*
X142052742Y-166894211D01*
X142302555Y-166904278D01*
X142550748Y-166874142D01*
X142790892Y-166804583D01*
X143016769Y-166697403D01*
X143222528Y-166555378D01*
X143402840Y-166382186D01*
X143553035Y-166182313D01*
X143669223Y-165960935D01*
X143748395Y-165723786D01*
X143788500Y-165477008D01*
X143788500Y-165411833D01*
X145772000Y-165411833D01*
X145772205Y-165416930D01*
X145786666Y-165596061D01*
X145788289Y-165606050D01*
X145845675Y-165838872D01*
X145848878Y-165848466D01*
X145942862Y-166069054D01*
X145947570Y-166078026D01*
X146075724Y-166280684D01*
X146081805Y-166288776D01*
X146240802Y-166468246D01*
X146248111Y-166475267D01*
X146433834Y-166626906D01*
X146442179Y-166632667D01*
X146649819Y-166752547D01*
X146658980Y-166756894D01*
X146883165Y-166841916D01*
X146892896Y-166844735D01*
X147052273Y-166877272D01*
X147063526Y-166877046D01*
X147066000Y-166866062D01*
X147066000Y-166862649D01*
X147574000Y-166862649D01*
X147577902Y-166876122D01*
X147591749Y-166878372D01*
X147625597Y-166874263D01*
X147635532Y-166872234D01*
X147865836Y-166805526D01*
X147875298Y-166801938D01*
X148091936Y-166699143D01*
X148100689Y-166694089D01*
X148298033Y-166557871D01*
X148305871Y-166551472D01*
X148478803Y-166385368D01*
X148485511Y-166377797D01*
X148629566Y-166186096D01*
X148634966Y-166177557D01*
X148746403Y-165965230D01*
X148750369Y-165955921D01*
X148826297Y-165728490D01*
X148828723Y-165718645D01*
X148867185Y-165481978D01*
X148868000Y-165471891D01*
X148868000Y-165414407D01*
X150851500Y-165414407D01*
X150851704Y-165416930D01*
X150851705Y-165416954D01*
X150866171Y-165596142D01*
X150866580Y-165601205D01*
X150867793Y-165606129D01*
X150867794Y-165606131D01*
X150925160Y-165838872D01*
X150926413Y-165843956D01*
X150928397Y-165848614D01*
X150928400Y-165848621D01*
X150978171Y-165965437D01*
X151024410Y-166073965D01*
X151158035Y-166285276D01*
X151323826Y-166472415D01*
X151517490Y-166630537D01*
X151521890Y-166633077D01*
X151521894Y-166633080D01*
X151586438Y-166670344D01*
X151734010Y-166755545D01*
X151967779Y-166844201D01*
X152212742Y-166894211D01*
X152462555Y-166904278D01*
X152710748Y-166874142D01*
X152950892Y-166804583D01*
X153176769Y-166697403D01*
X153382528Y-166555378D01*
X153562840Y-166382186D01*
X153713035Y-166182313D01*
X153829223Y-165960935D01*
X153908395Y-165723786D01*
X153948500Y-165477008D01*
X153948500Y-165414407D01*
X155931500Y-165414407D01*
X155931704Y-165416930D01*
X155931705Y-165416954D01*
X155946171Y-165596142D01*
X155946580Y-165601205D01*
X155947793Y-165606129D01*
X155947794Y-165606131D01*
X156005160Y-165838872D01*
X156006413Y-165843956D01*
X156008397Y-165848614D01*
X156008400Y-165848621D01*
X156058171Y-165965437D01*
X156104410Y-166073965D01*
X156238035Y-166285276D01*
X156403826Y-166472415D01*
X156597490Y-166630537D01*
X156601890Y-166633077D01*
X156601894Y-166633080D01*
X156666438Y-166670344D01*
X156814010Y-166755545D01*
X157047779Y-166844201D01*
X157292742Y-166894211D01*
X157542555Y-166904278D01*
X157790748Y-166874142D01*
X158030892Y-166804583D01*
X158256769Y-166697403D01*
X158462528Y-166555378D01*
X158642840Y-166382186D01*
X158793035Y-166182313D01*
X158909223Y-165960935D01*
X158988395Y-165723786D01*
X159028500Y-165477008D01*
X159028500Y-163769593D01*
X159013420Y-163582795D01*
X158953587Y-163340044D01*
X158855590Y-163110035D01*
X158721965Y-162898724D01*
X158556174Y-162711585D01*
X158552240Y-162708373D01*
X158552237Y-162708370D01*
X158366450Y-162556680D01*
X158362510Y-162553463D01*
X158358111Y-162550923D01*
X158358105Y-162550919D01*
X158180125Y-162448163D01*
X158145990Y-162428455D01*
X158141237Y-162426652D01*
X158141234Y-162426651D01*
X157916974Y-162341601D01*
X157916967Y-162341599D01*
X157912221Y-162339799D01*
X157907248Y-162338783D01*
X157907242Y-162338782D01*
X157672223Y-162290802D01*
X157672215Y-162290801D01*
X157667258Y-162289789D01*
X157662203Y-162289585D01*
X157662193Y-162289584D01*
X157422521Y-162279926D01*
X157422514Y-162279926D01*
X157417445Y-162279722D01*
X157412408Y-162280333D01*
X157412398Y-162280334D01*
X157174299Y-162309245D01*
X157174296Y-162309245D01*
X157169252Y-162309858D01*
X157164375Y-162311270D01*
X157164368Y-162311272D01*
X156933979Y-162378005D01*
X156933966Y-162378009D01*
X156929108Y-162379417D01*
X156924538Y-162381585D01*
X156924526Y-162381590D01*
X156707821Y-162484418D01*
X156707811Y-162484423D01*
X156703231Y-162486597D01*
X156699059Y-162489476D01*
X156699048Y-162489483D01*
X156501649Y-162625738D01*
X156501642Y-162625743D01*
X156497472Y-162628622D01*
X156493815Y-162632134D01*
X156493812Y-162632137D01*
X156320820Y-162798298D01*
X156320816Y-162798301D01*
X156317160Y-162801814D01*
X156314117Y-162805862D01*
X156314112Y-162805869D01*
X156172245Y-162994660D01*
X156166965Y-163001687D01*
X156164607Y-163006179D01*
X156164603Y-163006186D01*
X156053140Y-163218562D01*
X156050777Y-163223065D01*
X156049168Y-163227882D01*
X156049168Y-163227884D01*
X155973213Y-163455395D01*
X155973210Y-163455404D01*
X155971605Y-163460214D01*
X155970790Y-163465226D01*
X155970789Y-163465232D01*
X155932314Y-163701980D01*
X155932313Y-163701986D01*
X155931500Y-163706992D01*
X155931500Y-165414407D01*
X153948500Y-165414407D01*
X153948500Y-163769593D01*
X153933420Y-163582795D01*
X153873587Y-163340044D01*
X153775590Y-163110035D01*
X153641965Y-162898724D01*
X153476174Y-162711585D01*
X153472240Y-162708373D01*
X153472237Y-162708370D01*
X153286450Y-162556680D01*
X153282510Y-162553463D01*
X153278111Y-162550923D01*
X153278105Y-162550919D01*
X153100125Y-162448163D01*
X153065990Y-162428455D01*
X153061237Y-162426652D01*
X153061234Y-162426651D01*
X152836974Y-162341601D01*
X152836967Y-162341599D01*
X152832221Y-162339799D01*
X152827248Y-162338783D01*
X152827242Y-162338782D01*
X152592223Y-162290802D01*
X152592215Y-162290801D01*
X152587258Y-162289789D01*
X152582203Y-162289585D01*
X152582193Y-162289584D01*
X152342521Y-162279926D01*
X152342514Y-162279926D01*
X152337445Y-162279722D01*
X152332408Y-162280333D01*
X152332398Y-162280334D01*
X152094299Y-162309245D01*
X152094296Y-162309245D01*
X152089252Y-162309858D01*
X152084375Y-162311270D01*
X152084368Y-162311272D01*
X151853979Y-162378005D01*
X151853966Y-162378009D01*
X151849108Y-162379417D01*
X151844538Y-162381585D01*
X151844526Y-162381590D01*
X151627821Y-162484418D01*
X151627811Y-162484423D01*
X151623231Y-162486597D01*
X151619059Y-162489476D01*
X151619048Y-162489483D01*
X151421649Y-162625738D01*
X151421642Y-162625743D01*
X151417472Y-162628622D01*
X151413815Y-162632134D01*
X151413812Y-162632137D01*
X151240820Y-162798298D01*
X151240816Y-162798301D01*
X151237160Y-162801814D01*
X151234117Y-162805862D01*
X151234112Y-162805869D01*
X151092245Y-162994660D01*
X151086965Y-163001687D01*
X151084607Y-163006179D01*
X151084603Y-163006186D01*
X150973140Y-163218562D01*
X150970777Y-163223065D01*
X150969168Y-163227882D01*
X150969168Y-163227884D01*
X150893213Y-163455395D01*
X150893210Y-163455404D01*
X150891605Y-163460214D01*
X150890790Y-163465226D01*
X150890789Y-163465232D01*
X150852314Y-163701980D01*
X150852313Y-163701986D01*
X150851500Y-163706992D01*
X150851500Y-165414407D01*
X148868000Y-165414407D01*
X148868000Y-164862590D01*
X148864493Y-164849506D01*
X148851410Y-164846000D01*
X147590590Y-164846000D01*
X147577506Y-164849506D01*
X147574000Y-164862590D01*
X147574000Y-166862649D01*
X147066000Y-166862649D01*
X147066000Y-164862590D01*
X147062493Y-164849506D01*
X147049410Y-164846000D01*
X145788590Y-164846000D01*
X145775506Y-164849506D01*
X145772000Y-164862590D01*
X145772000Y-165411833D01*
X143788500Y-165411833D01*
X143788500Y-164321410D01*
X145772000Y-164321410D01*
X145775506Y-164334493D01*
X145788590Y-164338000D01*
X147049410Y-164338000D01*
X147062493Y-164334493D01*
X147066000Y-164321410D01*
X147574000Y-164321410D01*
X147577506Y-164334493D01*
X147590590Y-164338000D01*
X148851410Y-164338000D01*
X148864493Y-164334493D01*
X148868000Y-164321410D01*
X148868000Y-163772167D01*
X148867794Y-163767069D01*
X148853333Y-163587938D01*
X148851710Y-163577949D01*
X148794324Y-163345127D01*
X148791121Y-163335533D01*
X148697137Y-163114945D01*
X148692429Y-163105973D01*
X148564275Y-162903315D01*
X148558194Y-162895223D01*
X148399197Y-162715753D01*
X148391888Y-162708732D01*
X148206165Y-162557093D01*
X148197820Y-162551332D01*
X147990180Y-162431452D01*
X147981019Y-162427105D01*
X147756834Y-162342083D01*
X147747103Y-162339264D01*
X147587726Y-162306727D01*
X147576473Y-162306953D01*
X147574000Y-162317938D01*
X147574000Y-164321410D01*
X147066000Y-164321410D01*
X147066000Y-162321351D01*
X147062097Y-162307877D01*
X147048250Y-162305627D01*
X147014402Y-162309736D01*
X147004467Y-162311765D01*
X146774163Y-162378473D01*
X146764701Y-162382061D01*
X146548063Y-162484856D01*
X146539310Y-162489910D01*
X146341966Y-162626128D01*
X146334128Y-162632527D01*
X146161196Y-162798631D01*
X146154488Y-162806202D01*
X146010433Y-162997903D01*
X146005033Y-163006442D01*
X145893596Y-163218769D01*
X145889630Y-163228078D01*
X145813702Y-163455509D01*
X145811276Y-163465354D01*
X145772814Y-163702021D01*
X145772000Y-163712109D01*
X145772000Y-164321410D01*
X143788500Y-164321410D01*
X143788500Y-163769593D01*
X143773420Y-163582795D01*
X143713587Y-163340044D01*
X143615590Y-163110035D01*
X143481965Y-162898724D01*
X143316174Y-162711585D01*
X143312240Y-162708373D01*
X143312237Y-162708370D01*
X143126450Y-162556680D01*
X143122510Y-162553463D01*
X143118111Y-162550923D01*
X143118105Y-162550919D01*
X142940125Y-162448163D01*
X142905990Y-162428455D01*
X142901237Y-162426652D01*
X142901234Y-162426651D01*
X142676974Y-162341601D01*
X142676967Y-162341599D01*
X142672221Y-162339799D01*
X142667248Y-162338783D01*
X142667242Y-162338782D01*
X142432223Y-162290802D01*
X142432215Y-162290801D01*
X142427258Y-162289789D01*
X142422203Y-162289585D01*
X142422193Y-162289584D01*
X142182521Y-162279926D01*
X142182514Y-162279926D01*
X142177445Y-162279722D01*
X142172408Y-162280333D01*
X142172398Y-162280334D01*
X141934299Y-162309245D01*
X141934296Y-162309245D01*
X141929252Y-162309858D01*
X141924375Y-162311270D01*
X141924368Y-162311272D01*
X141693979Y-162378005D01*
X141693966Y-162378009D01*
X141689108Y-162379417D01*
X141684538Y-162381585D01*
X141684526Y-162381590D01*
X141467821Y-162484418D01*
X141467811Y-162484423D01*
X141463231Y-162486597D01*
X141459059Y-162489476D01*
X141459048Y-162489483D01*
X141261649Y-162625738D01*
X141261642Y-162625743D01*
X141257472Y-162628622D01*
X141253815Y-162632134D01*
X141253812Y-162632137D01*
X141080820Y-162798298D01*
X141080816Y-162798301D01*
X141077160Y-162801814D01*
X141074117Y-162805862D01*
X141074112Y-162805869D01*
X140932245Y-162994660D01*
X140926965Y-163001687D01*
X140924607Y-163006179D01*
X140924603Y-163006186D01*
X140813140Y-163218562D01*
X140810777Y-163223065D01*
X140809168Y-163227882D01*
X140809168Y-163227884D01*
X140733213Y-163455395D01*
X140733210Y-163455404D01*
X140731605Y-163460214D01*
X140730790Y-163465226D01*
X140730789Y-163465232D01*
X140692314Y-163701980D01*
X140692313Y-163701986D01*
X140691500Y-163706992D01*
X140691500Y-165414407D01*
X138708500Y-165414407D01*
X138708500Y-163769593D01*
X138693420Y-163582795D01*
X138633587Y-163340044D01*
X138535590Y-163110035D01*
X138401965Y-162898724D01*
X138236174Y-162711585D01*
X138232240Y-162708373D01*
X138232237Y-162708370D01*
X138046450Y-162556680D01*
X138042510Y-162553463D01*
X138038111Y-162550923D01*
X138038105Y-162550919D01*
X137860125Y-162448163D01*
X137825990Y-162428455D01*
X137821237Y-162426652D01*
X137821234Y-162426651D01*
X137596974Y-162341601D01*
X137596967Y-162341599D01*
X137592221Y-162339799D01*
X137587248Y-162338783D01*
X137587242Y-162338782D01*
X137352223Y-162290802D01*
X137352215Y-162290801D01*
X137347258Y-162289789D01*
X137342203Y-162289585D01*
X137342193Y-162289584D01*
X137102521Y-162279926D01*
X137102514Y-162279926D01*
X137097445Y-162279722D01*
X137092408Y-162280333D01*
X137092398Y-162280334D01*
X136854299Y-162309245D01*
X136854296Y-162309245D01*
X136849252Y-162309858D01*
X136844375Y-162311270D01*
X136844368Y-162311272D01*
X136613979Y-162378005D01*
X136613966Y-162378009D01*
X136609108Y-162379417D01*
X136604538Y-162381585D01*
X136604526Y-162381590D01*
X136387821Y-162484418D01*
X136387811Y-162484423D01*
X136383231Y-162486597D01*
X136379059Y-162489476D01*
X136379048Y-162489483D01*
X136181649Y-162625738D01*
X136181642Y-162625743D01*
X136177472Y-162628622D01*
X136173815Y-162632134D01*
X136173812Y-162632137D01*
X136000820Y-162798298D01*
X136000816Y-162798301D01*
X135997160Y-162801814D01*
X135994117Y-162805862D01*
X135994112Y-162805869D01*
X135852245Y-162994660D01*
X135846965Y-163001687D01*
X135844607Y-163006179D01*
X135844603Y-163006186D01*
X135733140Y-163218562D01*
X135730777Y-163223065D01*
X135729168Y-163227882D01*
X135729168Y-163227884D01*
X135653213Y-163455395D01*
X135653210Y-163455404D01*
X135651605Y-163460214D01*
X135650790Y-163465226D01*
X135650789Y-163465232D01*
X135612314Y-163701980D01*
X135612313Y-163701986D01*
X135611500Y-163706992D01*
X135611500Y-165414407D01*
X133628000Y-165414407D01*
X133628000Y-164862590D01*
X133624493Y-164849506D01*
X133611410Y-164846000D01*
X132350590Y-164846000D01*
X132337506Y-164849506D01*
X132334000Y-164862590D01*
X132334000Y-166862649D01*
X131826000Y-166862649D01*
X131826000Y-164862590D01*
X131822493Y-164849506D01*
X131809410Y-164846000D01*
X130548590Y-164846000D01*
X130535506Y-164849506D01*
X130532000Y-164862590D01*
X130532000Y-165411833D01*
X128548500Y-165411833D01*
X128548500Y-164321410D01*
X130532000Y-164321410D01*
X130535506Y-164334493D01*
X130548590Y-164338000D01*
X131809410Y-164338000D01*
X131822493Y-164334493D01*
X131826000Y-164321410D01*
X132334000Y-164321410D01*
X132337506Y-164334493D01*
X132350590Y-164338000D01*
X133611410Y-164338000D01*
X133624493Y-164334493D01*
X133628000Y-164321410D01*
X133628000Y-163772167D01*
X133627794Y-163767069D01*
X133613333Y-163587938D01*
X133611710Y-163577949D01*
X133554324Y-163345127D01*
X133551121Y-163335533D01*
X133457137Y-163114945D01*
X133452429Y-163105973D01*
X133324275Y-162903315D01*
X133318194Y-162895223D01*
X133159197Y-162715753D01*
X133151888Y-162708732D01*
X132966165Y-162557093D01*
X132957820Y-162551332D01*
X132750180Y-162431452D01*
X132741019Y-162427105D01*
X132516834Y-162342083D01*
X132507103Y-162339264D01*
X132347726Y-162306727D01*
X132336473Y-162306953D01*
X132334000Y-162317938D01*
X132334000Y-164321410D01*
X131826000Y-164321410D01*
X131826000Y-162321351D01*
X131822097Y-162307877D01*
X131808250Y-162305627D01*
X131774402Y-162309736D01*
X131764467Y-162311765D01*
X131534163Y-162378473D01*
X131524701Y-162382061D01*
X131308063Y-162484856D01*
X131299310Y-162489910D01*
X131101966Y-162626128D01*
X131094128Y-162632527D01*
X130921196Y-162798631D01*
X130914488Y-162806202D01*
X130770433Y-162997903D01*
X130765033Y-163006442D01*
X130653596Y-163218769D01*
X130649630Y-163228078D01*
X130573702Y-163455509D01*
X130571276Y-163465354D01*
X130532814Y-163702021D01*
X130532000Y-163712109D01*
X130532000Y-164321410D01*
X128548500Y-164321410D01*
X128548500Y-163769593D01*
X128533420Y-163582795D01*
X128473587Y-163340044D01*
X128375590Y-163110035D01*
X128241965Y-162898724D01*
X128076174Y-162711585D01*
X128072240Y-162708373D01*
X128072237Y-162708370D01*
X127886450Y-162556680D01*
X127882510Y-162553463D01*
X127878111Y-162550923D01*
X127878105Y-162550919D01*
X127700125Y-162448163D01*
X127665990Y-162428455D01*
X127661237Y-162426652D01*
X127661234Y-162426651D01*
X127436974Y-162341601D01*
X127436967Y-162341599D01*
X127432221Y-162339799D01*
X127427248Y-162338783D01*
X127427242Y-162338782D01*
X127192223Y-162290802D01*
X127192215Y-162290801D01*
X127187258Y-162289789D01*
X127182203Y-162289585D01*
X127182193Y-162289584D01*
X126942521Y-162279926D01*
X126942514Y-162279926D01*
X126937445Y-162279722D01*
X126932408Y-162280333D01*
X126932398Y-162280334D01*
X126694299Y-162309245D01*
X126694296Y-162309245D01*
X126689252Y-162309858D01*
X126684375Y-162311270D01*
X126684368Y-162311272D01*
X126453979Y-162378005D01*
X126453966Y-162378009D01*
X126449108Y-162379417D01*
X126444538Y-162381585D01*
X126444526Y-162381590D01*
X126227821Y-162484418D01*
X126227811Y-162484423D01*
X126223231Y-162486597D01*
X126219059Y-162489476D01*
X126219048Y-162489483D01*
X126021649Y-162625738D01*
X126021642Y-162625743D01*
X126017472Y-162628622D01*
X126013815Y-162632134D01*
X126013812Y-162632137D01*
X125840820Y-162798298D01*
X125840816Y-162798301D01*
X125837160Y-162801814D01*
X125834117Y-162805862D01*
X125834112Y-162805869D01*
X125692245Y-162994660D01*
X125686965Y-163001687D01*
X125684607Y-163006179D01*
X125684603Y-163006186D01*
X125573140Y-163218562D01*
X125570777Y-163223065D01*
X125569168Y-163227882D01*
X125569168Y-163227884D01*
X125493213Y-163455395D01*
X125493210Y-163455404D01*
X125491605Y-163460214D01*
X125490790Y-163465226D01*
X125490789Y-163465232D01*
X125452314Y-163701980D01*
X125452313Y-163701986D01*
X125451500Y-163706992D01*
X125451500Y-165414407D01*
X123468500Y-165414407D01*
X123468500Y-162991454D01*
X123457887Y-162887573D01*
X123402115Y-162719261D01*
X123397380Y-162711585D01*
X123312883Y-162574595D01*
X123309030Y-162568348D01*
X123183652Y-162442970D01*
X123156944Y-162426496D01*
X123038982Y-162353735D01*
X123038976Y-162353732D01*
X123032739Y-162349885D01*
X123025777Y-162347578D01*
X123025775Y-162347577D01*
X122870952Y-162296275D01*
X122870950Y-162296274D01*
X122864427Y-162294113D01*
X122857590Y-162293414D01*
X122857588Y-162293414D01*
X122763730Y-162283825D01*
X122763724Y-162283824D01*
X122760546Y-162283500D01*
X121079454Y-162283500D01*
X121076276Y-162283824D01*
X121076269Y-162283825D01*
X120982411Y-162293414D01*
X120982407Y-162293414D01*
X120975573Y-162294113D01*
X120969050Y-162296274D01*
X120969047Y-162296275D01*
X120814224Y-162347577D01*
X120814218Y-162347579D01*
X120807261Y-162349885D01*
X120801026Y-162353730D01*
X120801017Y-162353735D01*
X120662595Y-162439116D01*
X120662590Y-162439119D01*
X120656348Y-162442970D01*
X120651158Y-162448159D01*
X120651154Y-162448163D01*
X120536163Y-162563154D01*
X120536159Y-162563158D01*
X120530970Y-162568348D01*
X120527119Y-162574590D01*
X120527116Y-162574595D01*
X120441735Y-162713017D01*
X120441730Y-162713026D01*
X120437885Y-162719261D01*
X120435579Y-162726218D01*
X120435577Y-162726224D01*
X120409076Y-162806202D01*
X120382113Y-162887573D01*
X120381414Y-162894407D01*
X120381414Y-162894411D01*
X120371825Y-162988269D01*
X120371500Y-162991454D01*
X120371500Y-166192546D01*
X100500000Y-166192546D01*
X100500000Y-165100000D01*
X107340771Y-165100000D01*
X107359635Y-165279475D01*
X107415401Y-165451107D01*
X107505633Y-165607393D01*
X107626387Y-165741504D01*
X107772385Y-165847578D01*
X107937248Y-165920980D01*
X108113768Y-165958500D01*
X108287629Y-165958500D01*
X108294232Y-165958500D01*
X108470752Y-165920980D01*
X108635615Y-165847578D01*
X108781613Y-165741504D01*
X108902367Y-165607393D01*
X108992599Y-165451107D01*
X109048365Y-165279475D01*
X109067229Y-165100000D01*
X109048365Y-164920525D01*
X108992599Y-164748893D01*
X108902367Y-164592607D01*
X108781613Y-164458496D01*
X108635615Y-164352422D01*
X108470752Y-164279020D01*
X108464299Y-164277648D01*
X108464295Y-164277647D01*
X108300689Y-164242872D01*
X108300684Y-164242871D01*
X108294232Y-164241500D01*
X108113768Y-164241500D01*
X108107316Y-164242871D01*
X108107310Y-164242872D01*
X107943704Y-164277647D01*
X107943697Y-164277649D01*
X107937248Y-164279020D01*
X107931218Y-164281704D01*
X107931217Y-164281705D01*
X107778416Y-164349737D01*
X107778414Y-164349738D01*
X107772386Y-164352422D01*
X107767045Y-164356302D01*
X107767044Y-164356303D01*
X107631731Y-164454613D01*
X107631728Y-164454614D01*
X107626387Y-164458496D01*
X107621970Y-164463401D01*
X107621965Y-164463406D01*
X107510052Y-164587699D01*
X107505633Y-164592607D01*
X107502334Y-164598320D01*
X107502331Y-164598325D01*
X107418705Y-164743170D01*
X107415401Y-164748893D01*
X107359635Y-164920525D01*
X107340771Y-165100000D01*
X100500000Y-165100000D01*
X100500000Y-163068000D01*
X107340771Y-163068000D01*
X107359635Y-163247475D01*
X107415401Y-163419107D01*
X107505633Y-163575393D01*
X107626387Y-163709504D01*
X107772385Y-163815578D01*
X107937248Y-163888980D01*
X108113768Y-163926500D01*
X108287629Y-163926500D01*
X108294232Y-163926500D01*
X108470752Y-163888980D01*
X108635615Y-163815578D01*
X108781613Y-163709504D01*
X108902367Y-163575393D01*
X108992599Y-163419107D01*
X109048365Y-163247475D01*
X109067229Y-163068000D01*
X109048365Y-162888525D01*
X108992599Y-162716893D01*
X108902367Y-162560607D01*
X108781613Y-162426496D01*
X108635615Y-162320422D01*
X108470752Y-162247020D01*
X108464299Y-162245648D01*
X108464295Y-162245647D01*
X108300689Y-162210872D01*
X108300684Y-162210871D01*
X108294232Y-162209500D01*
X108113768Y-162209500D01*
X108107316Y-162210871D01*
X108107310Y-162210872D01*
X107943704Y-162245647D01*
X107943697Y-162245649D01*
X107937248Y-162247020D01*
X107931218Y-162249704D01*
X107931217Y-162249705D01*
X107778416Y-162317737D01*
X107778414Y-162317738D01*
X107772386Y-162320422D01*
X107767045Y-162324302D01*
X107767044Y-162324303D01*
X107631731Y-162422613D01*
X107631728Y-162422614D01*
X107626387Y-162426496D01*
X107621970Y-162431401D01*
X107621965Y-162431406D01*
X107514356Y-162550919D01*
X107505633Y-162560607D01*
X107502334Y-162566320D01*
X107502331Y-162566325D01*
X107420322Y-162708370D01*
X107415401Y-162716893D01*
X107413359Y-162723175D01*
X107413359Y-162723177D01*
X107362065Y-162881047D01*
X107359635Y-162888525D01*
X107358945Y-162895088D01*
X107358945Y-162895089D01*
X107348167Y-162997629D01*
X107340771Y-163068000D01*
X100500000Y-163068000D01*
X100500000Y-159512000D01*
X107340771Y-159512000D01*
X107359635Y-159691475D01*
X107415401Y-159863107D01*
X107505633Y-160019393D01*
X107626387Y-160153504D01*
X107772385Y-160259578D01*
X107937248Y-160332980D01*
X108113768Y-160370500D01*
X108287629Y-160370500D01*
X108294232Y-160370500D01*
X108470752Y-160332980D01*
X108635615Y-160259578D01*
X108781613Y-160153504D01*
X108902367Y-160019393D01*
X108992599Y-159863107D01*
X109048365Y-159691475D01*
X109067229Y-159512000D01*
X109048365Y-159332525D01*
X108992599Y-159160893D01*
X108902367Y-159004607D01*
X108781613Y-158870496D01*
X108635615Y-158764422D01*
X108470752Y-158691020D01*
X108464299Y-158689648D01*
X108464295Y-158689647D01*
X108300689Y-158654872D01*
X108300684Y-158654871D01*
X108294232Y-158653500D01*
X108113768Y-158653500D01*
X108107316Y-158654871D01*
X108107310Y-158654872D01*
X107943704Y-158689647D01*
X107943697Y-158689649D01*
X107937248Y-158691020D01*
X107931218Y-158693704D01*
X107931217Y-158693705D01*
X107778416Y-158761737D01*
X107778414Y-158761738D01*
X107772386Y-158764422D01*
X107767045Y-158768302D01*
X107767044Y-158768303D01*
X107631731Y-158866613D01*
X107631728Y-158866614D01*
X107626387Y-158870496D01*
X107621970Y-158875401D01*
X107621965Y-158875406D01*
X107510052Y-158999699D01*
X107505633Y-159004607D01*
X107502334Y-159010320D01*
X107502331Y-159010325D01*
X107418705Y-159155170D01*
X107415401Y-159160893D01*
X107359635Y-159332525D01*
X107340771Y-159512000D01*
X100500000Y-159512000D01*
X100500000Y-154940000D01*
X127152771Y-154940000D01*
X127171635Y-155119475D01*
X127227401Y-155291107D01*
X127317633Y-155447393D01*
X127438387Y-155581504D01*
X127584385Y-155687578D01*
X127749248Y-155760980D01*
X127925768Y-155798500D01*
X128099629Y-155798500D01*
X128106232Y-155798500D01*
X128282752Y-155760980D01*
X128447615Y-155687578D01*
X128593613Y-155581504D01*
X128714367Y-155447393D01*
X128804599Y-155291107D01*
X128860365Y-155119475D01*
X128879229Y-154940000D01*
X141884771Y-154940000D01*
X141903635Y-155119475D01*
X141959401Y-155291107D01*
X142049633Y-155447393D01*
X142170387Y-155581504D01*
X142316385Y-155687578D01*
X142481248Y-155760980D01*
X142657768Y-155798500D01*
X142831629Y-155798500D01*
X142838232Y-155798500D01*
X143014752Y-155760980D01*
X143179615Y-155687578D01*
X143325613Y-155581504D01*
X143446367Y-155447393D01*
X143536599Y-155291107D01*
X143592365Y-155119475D01*
X143611229Y-154940000D01*
X154584771Y-154940000D01*
X154603635Y-155119475D01*
X154659401Y-155291107D01*
X154749633Y-155447393D01*
X154870387Y-155581504D01*
X155016385Y-155687578D01*
X155181248Y-155760980D01*
X155357768Y-155798500D01*
X155531629Y-155798500D01*
X155538232Y-155798500D01*
X155714752Y-155760980D01*
X155879615Y-155687578D01*
X156025613Y-155581504D01*
X156146367Y-155447393D01*
X156236599Y-155291107D01*
X156292365Y-155119475D01*
X156311229Y-154940000D01*
X156292365Y-154760525D01*
X156236599Y-154588893D01*
X156146367Y-154432607D01*
X156025613Y-154298496D01*
X155879615Y-154192422D01*
X155714752Y-154119020D01*
X155708299Y-154117648D01*
X155708295Y-154117647D01*
X155544689Y-154082872D01*
X155544684Y-154082871D01*
X155538232Y-154081500D01*
X155357768Y-154081500D01*
X155351316Y-154082871D01*
X155351310Y-154082872D01*
X155187704Y-154117647D01*
X155187697Y-154117649D01*
X155181248Y-154119020D01*
X155175218Y-154121704D01*
X155175217Y-154121705D01*
X155022416Y-154189737D01*
X155022414Y-154189738D01*
X155016386Y-154192422D01*
X155011045Y-154196302D01*
X155011044Y-154196303D01*
X154875731Y-154294613D01*
X154875728Y-154294614D01*
X154870387Y-154298496D01*
X154865970Y-154303401D01*
X154865965Y-154303406D01*
X154754052Y-154427699D01*
X154749633Y-154432607D01*
X154746334Y-154438320D01*
X154746331Y-154438325D01*
X154662705Y-154583170D01*
X154659401Y-154588893D01*
X154603635Y-154760525D01*
X154584771Y-154940000D01*
X143611229Y-154940000D01*
X143592365Y-154760525D01*
X143536599Y-154588893D01*
X143446367Y-154432607D01*
X143325613Y-154298496D01*
X143179615Y-154192422D01*
X143014752Y-154119020D01*
X143008299Y-154117648D01*
X143008295Y-154117647D01*
X142844689Y-154082872D01*
X142844684Y-154082871D01*
X142838232Y-154081500D01*
X142657768Y-154081500D01*
X142651316Y-154082871D01*
X142651310Y-154082872D01*
X142487704Y-154117647D01*
X142487697Y-154117649D01*
X142481248Y-154119020D01*
X142475218Y-154121704D01*
X142475217Y-154121705D01*
X142322416Y-154189737D01*
X142322414Y-154189738D01*
X142316386Y-154192422D01*
X142311045Y-154196302D01*
X142311044Y-154196303D01*
X142175731Y-154294613D01*
X142175728Y-154294614D01*
X142170387Y-154298496D01*
X142165970Y-154303401D01*
X142165965Y-154303406D01*
X142054052Y-154427699D01*
X142049633Y-154432607D01*
X142046334Y-154438320D01*
X142046331Y-154438325D01*
X141962705Y-154583170D01*
X141959401Y-154588893D01*
X141903635Y-154760525D01*
X141884771Y-154940000D01*
X128879229Y-154940000D01*
X128860365Y-154760525D01*
X128804599Y-154588893D01*
X128714367Y-154432607D01*
X128593613Y-154298496D01*
X128447615Y-154192422D01*
X128282752Y-154119020D01*
X128276299Y-154117648D01*
X128276295Y-154117647D01*
X128112689Y-154082872D01*
X128112684Y-154082871D01*
X128106232Y-154081500D01*
X127925768Y-154081500D01*
X127919316Y-154082871D01*
X127919310Y-154082872D01*
X127755704Y-154117647D01*
X127755697Y-154117649D01*
X127749248Y-154119020D01*
X127743218Y-154121704D01*
X127743217Y-154121705D01*
X127590416Y-154189737D01*
X127590414Y-154189738D01*
X127584386Y-154192422D01*
X127579045Y-154196302D01*
X127579044Y-154196303D01*
X127443731Y-154294613D01*
X127443728Y-154294614D01*
X127438387Y-154298496D01*
X127433970Y-154303401D01*
X127433965Y-154303406D01*
X127322052Y-154427699D01*
X127317633Y-154432607D01*
X127314334Y-154438320D01*
X127314331Y-154438325D01*
X127230705Y-154583170D01*
X127227401Y-154588893D01*
X127171635Y-154760525D01*
X127152771Y-154940000D01*
X100500000Y-154940000D01*
X100500000Y-152400000D01*
X115976771Y-152400000D01*
X115995635Y-152579475D01*
X116051401Y-152751107D01*
X116141633Y-152907393D01*
X116262387Y-153041504D01*
X116408385Y-153147578D01*
X116573248Y-153220980D01*
X116749768Y-153258500D01*
X116923629Y-153258500D01*
X116930232Y-153258500D01*
X117106752Y-153220980D01*
X117271615Y-153147578D01*
X117417613Y-153041504D01*
X117537820Y-152908000D01*
X142392771Y-152908000D01*
X142411635Y-153087475D01*
X142413674Y-153093752D01*
X142413675Y-153093754D01*
X142444825Y-153189624D01*
X142467401Y-153259107D01*
X142557633Y-153415393D01*
X142678387Y-153549504D01*
X142824385Y-153655578D01*
X142989248Y-153728980D01*
X143165768Y-153766500D01*
X143339629Y-153766500D01*
X143346232Y-153766500D01*
X143522752Y-153728980D01*
X143687615Y-153655578D01*
X143833613Y-153549504D01*
X143954367Y-153415393D01*
X144044599Y-153259107D01*
X144100365Y-153087475D01*
X144119229Y-152908000D01*
X157124771Y-152908000D01*
X157143635Y-153087475D01*
X157145674Y-153093752D01*
X157145675Y-153093754D01*
X157176825Y-153189624D01*
X157199401Y-153259107D01*
X157289633Y-153415393D01*
X157410387Y-153549504D01*
X157556385Y-153655578D01*
X157721248Y-153728980D01*
X157897768Y-153766500D01*
X158071629Y-153766500D01*
X158078232Y-153766500D01*
X158254752Y-153728980D01*
X158419615Y-153655578D01*
X158565613Y-153549504D01*
X158686367Y-153415393D01*
X158776599Y-153259107D01*
X158832365Y-153087475D01*
X158851229Y-152908000D01*
X158832365Y-152728525D01*
X158776599Y-152556893D01*
X158686367Y-152400607D01*
X158565613Y-152266496D01*
X158419615Y-152160422D01*
X158254752Y-152087020D01*
X158248299Y-152085648D01*
X158248295Y-152085647D01*
X158084689Y-152050872D01*
X158084684Y-152050871D01*
X158078232Y-152049500D01*
X157897768Y-152049500D01*
X157891316Y-152050871D01*
X157891310Y-152050872D01*
X157727704Y-152085647D01*
X157727697Y-152085649D01*
X157721248Y-152087020D01*
X157715218Y-152089704D01*
X157715217Y-152089705D01*
X157562416Y-152157737D01*
X157562414Y-152157738D01*
X157556386Y-152160422D01*
X157551045Y-152164302D01*
X157551044Y-152164303D01*
X157415731Y-152262613D01*
X157415728Y-152262614D01*
X157410387Y-152266496D01*
X157405970Y-152271401D01*
X157405965Y-152271406D01*
X157294052Y-152395699D01*
X157289633Y-152400607D01*
X157286334Y-152406320D01*
X157286331Y-152406325D01*
X157202705Y-152551170D01*
X157199401Y-152556893D01*
X157197359Y-152563175D01*
X157197359Y-152563177D01*
X157190024Y-152585754D01*
X157143635Y-152728525D01*
X157124771Y-152908000D01*
X144119229Y-152908000D01*
X144100365Y-152728525D01*
X144044599Y-152556893D01*
X143954367Y-152400607D01*
X143833613Y-152266496D01*
X143687615Y-152160422D01*
X143522752Y-152087020D01*
X143516299Y-152085648D01*
X143516295Y-152085647D01*
X143352689Y-152050872D01*
X143352684Y-152050871D01*
X143346232Y-152049500D01*
X143165768Y-152049500D01*
X143159316Y-152050871D01*
X143159310Y-152050872D01*
X142995704Y-152085647D01*
X142995697Y-152085649D01*
X142989248Y-152087020D01*
X142983218Y-152089704D01*
X142983217Y-152089705D01*
X142830416Y-152157737D01*
X142830414Y-152157738D01*
X142824386Y-152160422D01*
X142819045Y-152164302D01*
X142819044Y-152164303D01*
X142683731Y-152262613D01*
X142683728Y-152262614D01*
X142678387Y-152266496D01*
X142673970Y-152271401D01*
X142673965Y-152271406D01*
X142562052Y-152395699D01*
X142557633Y-152400607D01*
X142554334Y-152406320D01*
X142554331Y-152406325D01*
X142470705Y-152551170D01*
X142467401Y-152556893D01*
X142465359Y-152563175D01*
X142465359Y-152563177D01*
X142458024Y-152585754D01*
X142411635Y-152728525D01*
X142392771Y-152908000D01*
X117537820Y-152908000D01*
X117538367Y-152907393D01*
X117628599Y-152751107D01*
X117684365Y-152579475D01*
X117703229Y-152400000D01*
X117684365Y-152220525D01*
X117628599Y-152048893D01*
X117538367Y-151892607D01*
X117417613Y-151758496D01*
X117271615Y-151652422D01*
X117106752Y-151579020D01*
X117100299Y-151577648D01*
X117100295Y-151577647D01*
X116936689Y-151542872D01*
X116936684Y-151542871D01*
X116930232Y-151541500D01*
X116749768Y-151541500D01*
X116743316Y-151542871D01*
X116743310Y-151542872D01*
X116579704Y-151577647D01*
X116579697Y-151577649D01*
X116573248Y-151579020D01*
X116567218Y-151581704D01*
X116567217Y-151581705D01*
X116414416Y-151649737D01*
X116414414Y-151649738D01*
X116408386Y-151652422D01*
X116403045Y-151656302D01*
X116403044Y-151656303D01*
X116267731Y-151754613D01*
X116267728Y-151754614D01*
X116262387Y-151758496D01*
X116257970Y-151763401D01*
X116257965Y-151763406D01*
X116146052Y-151887699D01*
X116141633Y-151892607D01*
X116138334Y-151898320D01*
X116138331Y-151898325D01*
X116054705Y-152043170D01*
X116051401Y-152048893D01*
X116049359Y-152055175D01*
X116049359Y-152055177D01*
X116016036Y-152157737D01*
X115995635Y-152220525D01*
X115976771Y-152400000D01*
X100500000Y-152400000D01*
X100500000Y-149860000D01*
X108356771Y-149860000D01*
X108375635Y-150039475D01*
X108377674Y-150045752D01*
X108377675Y-150045754D01*
X108402177Y-150121164D01*
X108431401Y-150211107D01*
X108521633Y-150367393D01*
X108642387Y-150501504D01*
X108788385Y-150607578D01*
X108953248Y-150680980D01*
X109129768Y-150718500D01*
X109303629Y-150718500D01*
X109310232Y-150718500D01*
X109486752Y-150680980D01*
X109651615Y-150607578D01*
X109797613Y-150501504D01*
X109917820Y-150368000D01*
X126644771Y-150368000D01*
X126663635Y-150547475D01*
X126665674Y-150553752D01*
X126665675Y-150553754D01*
X126684036Y-150610264D01*
X126719401Y-150719107D01*
X126809633Y-150875393D01*
X126930387Y-151009504D01*
X127076385Y-151115578D01*
X127241248Y-151188980D01*
X127417768Y-151226500D01*
X127591629Y-151226500D01*
X127598232Y-151226500D01*
X127774752Y-151188980D01*
X127939615Y-151115578D01*
X128085613Y-151009504D01*
X128205820Y-150876000D01*
X137312771Y-150876000D01*
X137331635Y-151055475D01*
X137333674Y-151061752D01*
X137333675Y-151061754D01*
X137364825Y-151157624D01*
X137387401Y-151227107D01*
X137477633Y-151383393D01*
X137598387Y-151517504D01*
X137744385Y-151623578D01*
X137909248Y-151696980D01*
X138085768Y-151734500D01*
X138259629Y-151734500D01*
X138266232Y-151734500D01*
X138442752Y-151696980D01*
X138607615Y-151623578D01*
X138753613Y-151517504D01*
X138874367Y-151383393D01*
X138964599Y-151227107D01*
X139020365Y-151055475D01*
X139039229Y-150876000D01*
X147980771Y-150876000D01*
X147999635Y-151055475D01*
X148001674Y-151061752D01*
X148001675Y-151061754D01*
X148032825Y-151157624D01*
X148055401Y-151227107D01*
X148145633Y-151383393D01*
X148266387Y-151517504D01*
X148412385Y-151623578D01*
X148577248Y-151696980D01*
X148753768Y-151734500D01*
X148927629Y-151734500D01*
X148934232Y-151734500D01*
X149110752Y-151696980D01*
X149275615Y-151623578D01*
X149421613Y-151517504D01*
X149542367Y-151383393D01*
X149632599Y-151227107D01*
X149688365Y-151055475D01*
X149707229Y-150876000D01*
X150520771Y-150876000D01*
X150539635Y-151055475D01*
X150541674Y-151061752D01*
X150541675Y-151061754D01*
X150572825Y-151157624D01*
X150595401Y-151227107D01*
X150685633Y-151383393D01*
X150806387Y-151517504D01*
X150952385Y-151623578D01*
X151117248Y-151696980D01*
X151293768Y-151734500D01*
X151467629Y-151734500D01*
X151474232Y-151734500D01*
X151650752Y-151696980D01*
X151815615Y-151623578D01*
X151961613Y-151517504D01*
X152082367Y-151383393D01*
X152172599Y-151227107D01*
X152228365Y-151055475D01*
X152247229Y-150876000D01*
X152228365Y-150696525D01*
X152172599Y-150524893D01*
X152082367Y-150368607D01*
X151961613Y-150234496D01*
X151815615Y-150128422D01*
X151650752Y-150055020D01*
X151644299Y-150053648D01*
X151644295Y-150053647D01*
X151480689Y-150018872D01*
X151480684Y-150018871D01*
X151474232Y-150017500D01*
X151293768Y-150017500D01*
X151287316Y-150018871D01*
X151287310Y-150018872D01*
X151123704Y-150053647D01*
X151123697Y-150053649D01*
X151117248Y-150055020D01*
X151111218Y-150057704D01*
X151111217Y-150057705D01*
X150958416Y-150125737D01*
X150958414Y-150125738D01*
X150952386Y-150128422D01*
X150947045Y-150132302D01*
X150947044Y-150132303D01*
X150811731Y-150230613D01*
X150811728Y-150230614D01*
X150806387Y-150234496D01*
X150801970Y-150239401D01*
X150801965Y-150239406D01*
X150691875Y-150361674D01*
X150685633Y-150368607D01*
X150682334Y-150374320D01*
X150682331Y-150374325D01*
X150606663Y-150505386D01*
X150595401Y-150524893D01*
X150593359Y-150531175D01*
X150593359Y-150531177D01*
X150544686Y-150680980D01*
X150539635Y-150696525D01*
X150520771Y-150876000D01*
X149707229Y-150876000D01*
X149688365Y-150696525D01*
X149632599Y-150524893D01*
X149542367Y-150368607D01*
X149421613Y-150234496D01*
X149275615Y-150128422D01*
X149110752Y-150055020D01*
X149104299Y-150053648D01*
X149104295Y-150053647D01*
X148940689Y-150018872D01*
X148940684Y-150018871D01*
X148934232Y-150017500D01*
X148753768Y-150017500D01*
X148747316Y-150018871D01*
X148747310Y-150018872D01*
X148583704Y-150053647D01*
X148583697Y-150053649D01*
X148577248Y-150055020D01*
X148571218Y-150057704D01*
X148571217Y-150057705D01*
X148418416Y-150125737D01*
X148418414Y-150125738D01*
X148412386Y-150128422D01*
X148407045Y-150132302D01*
X148407044Y-150132303D01*
X148271731Y-150230613D01*
X148271728Y-150230614D01*
X148266387Y-150234496D01*
X148261970Y-150239401D01*
X148261965Y-150239406D01*
X148151875Y-150361674D01*
X148145633Y-150368607D01*
X148142334Y-150374320D01*
X148142331Y-150374325D01*
X148066663Y-150505386D01*
X148055401Y-150524893D01*
X148053359Y-150531175D01*
X148053359Y-150531177D01*
X148004686Y-150680980D01*
X147999635Y-150696525D01*
X147980771Y-150876000D01*
X139039229Y-150876000D01*
X139025261Y-150743107D01*
X139030738Y-150691001D01*
X139056937Y-150645626D01*
X139099326Y-150614830D01*
X139109582Y-150610264D01*
X139109581Y-150610264D01*
X139115615Y-150607578D01*
X139261613Y-150501504D01*
X139382367Y-150367393D01*
X139472599Y-150211107D01*
X139528365Y-150039475D01*
X139547229Y-149860000D01*
X139528365Y-149680525D01*
X139472599Y-149508893D01*
X139382367Y-149352607D01*
X139381820Y-149352000D01*
X153060771Y-149352000D01*
X153079635Y-149531475D01*
X153135401Y-149703107D01*
X153225633Y-149859393D01*
X153346387Y-149993504D01*
X153492385Y-150099578D01*
X153657248Y-150172980D01*
X153833768Y-150210500D01*
X154007629Y-150210500D01*
X154014232Y-150210500D01*
X154190752Y-150172980D01*
X154355615Y-150099578D01*
X154501613Y-149993504D01*
X154622367Y-149859393D01*
X154712599Y-149703107D01*
X154768365Y-149531475D01*
X154787229Y-149352000D01*
X154768365Y-149172525D01*
X154712599Y-149000893D01*
X154622367Y-148844607D01*
X154501613Y-148710496D01*
X154355615Y-148604422D01*
X154190752Y-148531020D01*
X154184299Y-148529648D01*
X154184295Y-148529647D01*
X154020689Y-148494872D01*
X154020684Y-148494871D01*
X154014232Y-148493500D01*
X153833768Y-148493500D01*
X153827316Y-148494871D01*
X153827310Y-148494872D01*
X153663704Y-148529647D01*
X153663697Y-148529649D01*
X153657248Y-148531020D01*
X153651218Y-148533704D01*
X153651217Y-148533705D01*
X153498416Y-148601737D01*
X153498414Y-148601738D01*
X153492386Y-148604422D01*
X153487045Y-148608302D01*
X153487044Y-148608303D01*
X153351731Y-148706613D01*
X153351728Y-148706614D01*
X153346387Y-148710496D01*
X153341970Y-148715401D01*
X153341965Y-148715406D01*
X153230052Y-148839699D01*
X153225633Y-148844607D01*
X153222334Y-148850320D01*
X153222331Y-148850325D01*
X153138705Y-148995170D01*
X153135401Y-149000893D01*
X153133359Y-149007175D01*
X153133359Y-149007177D01*
X153100036Y-149109737D01*
X153079635Y-149172525D01*
X153060771Y-149352000D01*
X139381820Y-149352000D01*
X139261613Y-149218496D01*
X139115615Y-149112422D01*
X138950752Y-149039020D01*
X138944299Y-149037648D01*
X138944295Y-149037647D01*
X138780689Y-149002872D01*
X138780684Y-149002871D01*
X138774232Y-149001500D01*
X138593768Y-149001500D01*
X138587316Y-149002871D01*
X138587310Y-149002872D01*
X138423704Y-149037647D01*
X138423697Y-149037649D01*
X138417248Y-149039020D01*
X138411218Y-149041704D01*
X138411217Y-149041705D01*
X138258416Y-149109737D01*
X138258414Y-149109738D01*
X138252386Y-149112422D01*
X138247045Y-149116302D01*
X138247044Y-149116303D01*
X138111731Y-149214613D01*
X138111728Y-149214614D01*
X138106387Y-149218496D01*
X138101970Y-149223401D01*
X138101965Y-149223406D01*
X137990052Y-149347699D01*
X137985633Y-149352607D01*
X137982334Y-149358320D01*
X137982331Y-149358325D01*
X137898705Y-149503170D01*
X137895401Y-149508893D01*
X137893359Y-149515175D01*
X137893359Y-149515177D01*
X137860036Y-149617737D01*
X137839635Y-149680525D01*
X137820771Y-149860000D01*
X137821461Y-149866565D01*
X137821461Y-149866566D01*
X137834738Y-149992891D01*
X137829262Y-150044995D01*
X137803068Y-150090367D01*
X137760685Y-150121164D01*
X137750420Y-150125734D01*
X137750409Y-150125740D01*
X137744386Y-150128422D01*
X137739051Y-150132297D01*
X137739044Y-150132302D01*
X137603731Y-150230613D01*
X137603728Y-150230614D01*
X137598387Y-150234496D01*
X137593970Y-150239401D01*
X137593965Y-150239406D01*
X137483875Y-150361674D01*
X137477633Y-150368607D01*
X137474334Y-150374320D01*
X137474331Y-150374325D01*
X137398663Y-150505386D01*
X137387401Y-150524893D01*
X137385359Y-150531175D01*
X137385359Y-150531177D01*
X137336686Y-150680980D01*
X137331635Y-150696525D01*
X137312771Y-150876000D01*
X128205820Y-150876000D01*
X128206367Y-150875393D01*
X128296599Y-150719107D01*
X128352365Y-150547475D01*
X128371229Y-150368000D01*
X128352365Y-150188525D01*
X128296599Y-150016893D01*
X128206367Y-149860607D01*
X128085613Y-149726496D01*
X127939615Y-149620422D01*
X127774752Y-149547020D01*
X127768299Y-149545648D01*
X127768295Y-149545647D01*
X127604689Y-149510872D01*
X127604684Y-149510871D01*
X127598232Y-149509500D01*
X127417768Y-149509500D01*
X127411316Y-149510871D01*
X127411310Y-149510872D01*
X127247704Y-149545647D01*
X127247697Y-149545649D01*
X127241248Y-149547020D01*
X127235218Y-149549704D01*
X127235217Y-149549705D01*
X127082416Y-149617737D01*
X127082414Y-149617738D01*
X127076386Y-149620422D01*
X127071045Y-149624302D01*
X127071044Y-149624303D01*
X126935731Y-149722613D01*
X126935728Y-149722614D01*
X126930387Y-149726496D01*
X126925970Y-149731401D01*
X126925965Y-149731406D01*
X126815875Y-149853674D01*
X126809633Y-149860607D01*
X126806334Y-149866320D01*
X126806331Y-149866325D01*
X126730663Y-149997386D01*
X126719401Y-150016893D01*
X126717359Y-150023175D01*
X126717359Y-150023177D01*
X126668686Y-150172980D01*
X126663635Y-150188525D01*
X126644771Y-150368000D01*
X109917820Y-150368000D01*
X109918367Y-150367393D01*
X110008599Y-150211107D01*
X110064365Y-150039475D01*
X110083229Y-149860000D01*
X110064365Y-149680525D01*
X110008599Y-149508893D01*
X109918367Y-149352607D01*
X109797613Y-149218496D01*
X109651615Y-149112422D01*
X109486752Y-149039020D01*
X109480299Y-149037648D01*
X109480295Y-149037647D01*
X109316689Y-149002872D01*
X109316684Y-149002871D01*
X109310232Y-149001500D01*
X109129768Y-149001500D01*
X109123316Y-149002871D01*
X109123310Y-149002872D01*
X108959704Y-149037647D01*
X108959697Y-149037649D01*
X108953248Y-149039020D01*
X108947218Y-149041704D01*
X108947217Y-149041705D01*
X108794416Y-149109737D01*
X108794414Y-149109738D01*
X108788386Y-149112422D01*
X108783045Y-149116302D01*
X108783044Y-149116303D01*
X108647731Y-149214613D01*
X108647728Y-149214614D01*
X108642387Y-149218496D01*
X108637970Y-149223401D01*
X108637965Y-149223406D01*
X108526052Y-149347699D01*
X108521633Y-149352607D01*
X108518334Y-149358320D01*
X108518331Y-149358325D01*
X108434705Y-149503170D01*
X108431401Y-149508893D01*
X108429359Y-149515175D01*
X108429359Y-149515177D01*
X108396036Y-149617737D01*
X108375635Y-149680525D01*
X108356771Y-149860000D01*
X100500000Y-149860000D01*
X100500000Y-146304000D01*
X129692771Y-146304000D01*
X129711635Y-146483475D01*
X129767401Y-146655107D01*
X129857633Y-146811393D01*
X129978387Y-146945504D01*
X130124385Y-147051578D01*
X130289248Y-147124980D01*
X130465768Y-147162500D01*
X130639629Y-147162500D01*
X130646232Y-147162500D01*
X130822752Y-147124980D01*
X130987615Y-147051578D01*
X131133613Y-146945504D01*
X131254367Y-146811393D01*
X131344599Y-146655107D01*
X131400365Y-146483475D01*
X131419229Y-146304000D01*
X131400365Y-146124525D01*
X131344599Y-145952893D01*
X131254367Y-145796607D01*
X131133613Y-145662496D01*
X130987615Y-145556422D01*
X130822752Y-145483020D01*
X130816299Y-145481648D01*
X130816295Y-145481647D01*
X130652689Y-145446872D01*
X130652684Y-145446871D01*
X130646232Y-145445500D01*
X130465768Y-145445500D01*
X130459316Y-145446871D01*
X130459310Y-145446872D01*
X130295704Y-145481647D01*
X130295697Y-145481649D01*
X130289248Y-145483020D01*
X130283218Y-145485704D01*
X130283217Y-145485705D01*
X130130416Y-145553737D01*
X130130414Y-145553738D01*
X130124386Y-145556422D01*
X130119045Y-145560302D01*
X130119044Y-145560303D01*
X129983731Y-145658613D01*
X129983728Y-145658614D01*
X129978387Y-145662496D01*
X129973970Y-145667401D01*
X129973965Y-145667406D01*
X129863875Y-145789674D01*
X129857633Y-145796607D01*
X129854334Y-145802320D01*
X129854331Y-145802325D01*
X129778663Y-145933386D01*
X129767401Y-145952893D01*
X129765359Y-145959175D01*
X129765359Y-145959177D01*
X129716686Y-146108980D01*
X129711635Y-146124525D01*
X129692771Y-146304000D01*
X100500000Y-146304000D01*
X100500000Y-144272000D01*
X106324771Y-144272000D01*
X106343635Y-144451475D01*
X106345674Y-144457752D01*
X106345675Y-144457754D01*
X106364036Y-144514263D01*
X106399401Y-144623107D01*
X106466133Y-144738691D01*
X106486192Y-144773434D01*
X106489633Y-144779393D01*
X106610387Y-144913504D01*
X106756385Y-145019578D01*
X106921248Y-145092980D01*
X107097768Y-145130500D01*
X107271629Y-145130500D01*
X107278232Y-145130500D01*
X107454752Y-145092980D01*
X107619615Y-145019578D01*
X107765613Y-144913504D01*
X107885820Y-144780000D01*
X134772771Y-144780000D01*
X134791635Y-144959475D01*
X134793674Y-144965752D01*
X134793675Y-144965754D01*
X134824825Y-145061624D01*
X134847401Y-145131107D01*
X134937633Y-145287393D01*
X135058387Y-145421504D01*
X135204385Y-145527578D01*
X135369248Y-145600980D01*
X135545768Y-145638500D01*
X135719629Y-145638500D01*
X135726232Y-145638500D01*
X135902752Y-145600980D01*
X136067615Y-145527578D01*
X136213613Y-145421504D01*
X136334367Y-145287393D01*
X136424599Y-145131107D01*
X136480365Y-144959475D01*
X136499229Y-144780000D01*
X136480365Y-144600525D01*
X136424599Y-144428893D01*
X136370388Y-144334998D01*
X136353509Y-144272000D01*
X145440771Y-144272000D01*
X145459635Y-144451475D01*
X145461674Y-144457752D01*
X145461675Y-144457754D01*
X145480036Y-144514263D01*
X145515401Y-144623107D01*
X145582133Y-144738691D01*
X145602192Y-144773434D01*
X145605633Y-144779393D01*
X145726387Y-144913504D01*
X145872385Y-145019578D01*
X146037248Y-145092980D01*
X146213768Y-145130500D01*
X146387629Y-145130500D01*
X146394232Y-145130500D01*
X146570752Y-145092980D01*
X146735615Y-145019578D01*
X146881613Y-144913504D01*
X147002367Y-144779393D01*
X147092599Y-144623107D01*
X147148365Y-144451475D01*
X147167229Y-144272000D01*
X147148365Y-144092525D01*
X147092599Y-143920893D01*
X147002367Y-143764607D01*
X146881613Y-143630496D01*
X146735615Y-143524422D01*
X146570752Y-143451020D01*
X146564299Y-143449648D01*
X146564295Y-143449647D01*
X146400689Y-143414872D01*
X146400684Y-143414871D01*
X146394232Y-143413500D01*
X146213768Y-143413500D01*
X146207316Y-143414871D01*
X146207310Y-143414872D01*
X146043704Y-143449647D01*
X146043697Y-143449649D01*
X146037248Y-143451020D01*
X146031218Y-143453704D01*
X146031217Y-143453705D01*
X145878416Y-143521737D01*
X145878414Y-143521738D01*
X145872386Y-143524422D01*
X145867045Y-143528302D01*
X145867044Y-143528303D01*
X145731731Y-143626613D01*
X145731728Y-143626614D01*
X145726387Y-143630496D01*
X145721970Y-143635401D01*
X145721965Y-143635406D01*
X145611875Y-143757674D01*
X145605633Y-143764607D01*
X145602334Y-143770320D01*
X145602331Y-143770325D01*
X145526663Y-143901386D01*
X145515401Y-143920893D01*
X145513359Y-143927175D01*
X145513359Y-143927177D01*
X145464686Y-144076980D01*
X145459635Y-144092525D01*
X145440771Y-144272000D01*
X136353509Y-144272000D01*
X136353508Y-144271998D01*
X136370389Y-144209000D01*
X136424599Y-144115107D01*
X136480365Y-143943475D01*
X136499229Y-143764000D01*
X136480365Y-143584525D01*
X136424599Y-143412893D01*
X136334367Y-143256607D01*
X136333820Y-143256000D01*
X156616771Y-143256000D01*
X156635635Y-143435475D01*
X156691401Y-143607107D01*
X156781633Y-143763393D01*
X156902387Y-143897504D01*
X157048385Y-144003578D01*
X157213248Y-144076980D01*
X157389768Y-144114500D01*
X157563632Y-144114500D01*
X157570232Y-144114500D01*
X157602552Y-144107629D01*
X157654944Y-144107629D01*
X157702808Y-144128939D01*
X157737867Y-144167876D01*
X157797633Y-144271393D01*
X157918387Y-144405504D01*
X158064385Y-144511578D01*
X158070417Y-144514263D01*
X158070416Y-144514263D01*
X158080676Y-144518831D01*
X158123064Y-144549627D01*
X158149261Y-144595001D01*
X158154738Y-144647108D01*
X158141461Y-144773434D01*
X158140771Y-144780000D01*
X158159635Y-144959475D01*
X158161674Y-144965752D01*
X158161675Y-144965754D01*
X158192825Y-145061624D01*
X158215401Y-145131107D01*
X158305633Y-145287393D01*
X158426387Y-145421504D01*
X158572385Y-145527578D01*
X158737248Y-145600980D01*
X158913768Y-145638500D01*
X159087629Y-145638500D01*
X159094232Y-145638500D01*
X159270752Y-145600980D01*
X159435615Y-145527578D01*
X159581613Y-145421504D01*
X159701820Y-145288000D01*
X169316771Y-145288000D01*
X169335635Y-145467475D01*
X169337674Y-145473752D01*
X169337675Y-145473754D01*
X169363663Y-145553737D01*
X169391401Y-145639107D01*
X169481633Y-145795393D01*
X169602387Y-145929504D01*
X169748385Y-146035578D01*
X169913248Y-146108980D01*
X170089768Y-146146500D01*
X170263629Y-146146500D01*
X170270232Y-146146500D01*
X170446752Y-146108980D01*
X170611615Y-146035578D01*
X170757613Y-145929504D01*
X170878367Y-145795393D01*
X170968599Y-145639107D01*
X171024365Y-145467475D01*
X171043229Y-145288000D01*
X171024365Y-145108525D01*
X170968599Y-144936893D01*
X170878367Y-144780607D01*
X170757613Y-144646496D01*
X170611615Y-144540422D01*
X170446752Y-144467020D01*
X170440299Y-144465648D01*
X170440295Y-144465647D01*
X170276689Y-144430872D01*
X170276684Y-144430871D01*
X170270232Y-144429500D01*
X170089768Y-144429500D01*
X170083316Y-144430871D01*
X170083310Y-144430872D01*
X169919704Y-144465647D01*
X169919697Y-144465649D01*
X169913248Y-144467020D01*
X169907218Y-144469704D01*
X169907217Y-144469705D01*
X169754416Y-144537737D01*
X169754414Y-144537738D01*
X169748386Y-144540422D01*
X169743045Y-144544302D01*
X169743044Y-144544303D01*
X169607731Y-144642613D01*
X169607728Y-144642614D01*
X169602387Y-144646496D01*
X169597970Y-144651401D01*
X169597965Y-144651406D01*
X169487875Y-144773674D01*
X169481633Y-144780607D01*
X169478334Y-144786320D01*
X169478331Y-144786325D01*
X169402663Y-144917386D01*
X169391401Y-144936893D01*
X169389359Y-144943175D01*
X169389359Y-144943177D01*
X169340686Y-145092980D01*
X169335635Y-145108525D01*
X169316771Y-145288000D01*
X159701820Y-145288000D01*
X159702367Y-145287393D01*
X159792599Y-145131107D01*
X159848365Y-144959475D01*
X159867229Y-144780000D01*
X159848365Y-144600525D01*
X159792599Y-144428893D01*
X159702367Y-144272607D01*
X159581613Y-144138496D01*
X159435615Y-144032422D01*
X159429584Y-144029737D01*
X159429581Y-144029735D01*
X159419323Y-144025168D01*
X159376935Y-143994372D01*
X159350738Y-143948997D01*
X159345261Y-143896890D01*
X159358539Y-143770565D01*
X159359229Y-143764000D01*
X159340365Y-143584525D01*
X159284599Y-143412893D01*
X159194367Y-143256607D01*
X159193820Y-143256000D01*
X163220771Y-143256000D01*
X163239635Y-143435475D01*
X163295401Y-143607107D01*
X163385633Y-143763393D01*
X163506387Y-143897504D01*
X163652385Y-144003578D01*
X163817248Y-144076980D01*
X163993768Y-144114500D01*
X164167629Y-144114500D01*
X164174232Y-144114500D01*
X164350752Y-144076980D01*
X164515615Y-144003578D01*
X164661613Y-143897504D01*
X164782367Y-143763393D01*
X164872599Y-143607107D01*
X164928365Y-143435475D01*
X164947229Y-143256000D01*
X164928365Y-143076525D01*
X164872599Y-142904893D01*
X164782367Y-142748607D01*
X164661613Y-142614496D01*
X164515615Y-142508422D01*
X164350752Y-142435020D01*
X164344299Y-142433648D01*
X164344295Y-142433647D01*
X164180689Y-142398872D01*
X164180684Y-142398871D01*
X164174232Y-142397500D01*
X163993768Y-142397500D01*
X163987316Y-142398871D01*
X163987310Y-142398872D01*
X163823704Y-142433647D01*
X163823697Y-142433649D01*
X163817248Y-142435020D01*
X163811218Y-142437704D01*
X163811217Y-142437705D01*
X163658416Y-142505737D01*
X163658414Y-142505738D01*
X163652386Y-142508422D01*
X163647045Y-142512302D01*
X163647044Y-142512303D01*
X163511731Y-142610613D01*
X163511728Y-142610614D01*
X163506387Y-142614496D01*
X163501970Y-142619401D01*
X163501965Y-142619406D01*
X163390052Y-142743699D01*
X163385633Y-142748607D01*
X163382334Y-142754320D01*
X163382331Y-142754325D01*
X163298705Y-142899170D01*
X163295401Y-142904893D01*
X163293359Y-142911175D01*
X163293359Y-142911177D01*
X163260036Y-143013737D01*
X163239635Y-143076525D01*
X163220771Y-143256000D01*
X159193820Y-143256000D01*
X159073613Y-143122496D01*
X158927615Y-143016422D01*
X158762752Y-142943020D01*
X158756299Y-142941648D01*
X158756295Y-142941647D01*
X158592689Y-142906872D01*
X158592684Y-142906871D01*
X158586232Y-142905500D01*
X158405768Y-142905500D01*
X158399314Y-142906871D01*
X158399302Y-142906873D01*
X158373444Y-142912369D01*
X158321052Y-142912368D01*
X158273189Y-142891058D01*
X158238132Y-142852122D01*
X158181668Y-142754325D01*
X158178367Y-142748607D01*
X158057613Y-142614496D01*
X157911615Y-142508422D01*
X157746752Y-142435020D01*
X157740299Y-142433648D01*
X157740295Y-142433647D01*
X157576689Y-142398872D01*
X157576684Y-142398871D01*
X157570232Y-142397500D01*
X157389768Y-142397500D01*
X157383316Y-142398871D01*
X157383310Y-142398872D01*
X157219704Y-142433647D01*
X157219697Y-142433649D01*
X157213248Y-142435020D01*
X157207218Y-142437704D01*
X157207217Y-142437705D01*
X157054416Y-142505737D01*
X157054414Y-142505738D01*
X157048386Y-142508422D01*
X157043045Y-142512302D01*
X157043044Y-142512303D01*
X156907731Y-142610613D01*
X156907728Y-142610614D01*
X156902387Y-142614496D01*
X156897970Y-142619401D01*
X156897965Y-142619406D01*
X156786052Y-142743699D01*
X156781633Y-142748607D01*
X156778334Y-142754320D01*
X156778331Y-142754325D01*
X156694705Y-142899170D01*
X156691401Y-142904893D01*
X156689359Y-142911175D01*
X156689359Y-142911177D01*
X156656036Y-143013737D01*
X156635635Y-143076525D01*
X156616771Y-143256000D01*
X136333820Y-143256000D01*
X136213613Y-143122496D01*
X136067615Y-143016422D01*
X135902752Y-142943020D01*
X135896299Y-142941648D01*
X135896295Y-142941647D01*
X135732689Y-142906872D01*
X135732684Y-142906871D01*
X135726232Y-142905500D01*
X135545768Y-142905500D01*
X135539316Y-142906871D01*
X135539310Y-142906872D01*
X135375704Y-142941647D01*
X135375697Y-142941649D01*
X135369248Y-142943020D01*
X135363218Y-142945704D01*
X135363217Y-142945705D01*
X135210416Y-143013737D01*
X135210414Y-143013738D01*
X135204386Y-143016422D01*
X135199045Y-143020302D01*
X135199044Y-143020303D01*
X135063731Y-143118613D01*
X135063728Y-143118614D01*
X135058387Y-143122496D01*
X135053970Y-143127401D01*
X135053965Y-143127406D01*
X134942052Y-143251699D01*
X134937633Y-143256607D01*
X134934334Y-143262320D01*
X134934331Y-143262325D01*
X134850705Y-143407170D01*
X134847401Y-143412893D01*
X134845359Y-143419175D01*
X134845359Y-143419177D01*
X134812036Y-143521737D01*
X134791635Y-143584525D01*
X134772771Y-143764000D01*
X134791635Y-143943475D01*
X134793674Y-143949752D01*
X134793675Y-143949754D01*
X134818178Y-144025168D01*
X134847401Y-144115107D01*
X134877867Y-144167876D01*
X134901610Y-144209000D01*
X134918491Y-144272000D01*
X134901610Y-144335000D01*
X134858663Y-144409386D01*
X134847401Y-144428893D01*
X134845359Y-144435175D01*
X134845359Y-144435177D01*
X134796686Y-144584980D01*
X134791635Y-144600525D01*
X134772771Y-144780000D01*
X107885820Y-144780000D01*
X107886367Y-144779393D01*
X107976599Y-144623107D01*
X108032365Y-144451475D01*
X108051229Y-144272000D01*
X108032365Y-144092525D01*
X107976599Y-143920893D01*
X107886367Y-143764607D01*
X107765613Y-143630496D01*
X107619615Y-143524422D01*
X107454752Y-143451020D01*
X107448299Y-143449648D01*
X107448295Y-143449647D01*
X107284689Y-143414872D01*
X107284684Y-143414871D01*
X107278232Y-143413500D01*
X107097768Y-143413500D01*
X107091316Y-143414871D01*
X107091310Y-143414872D01*
X106927704Y-143449647D01*
X106927697Y-143449649D01*
X106921248Y-143451020D01*
X106915218Y-143453704D01*
X106915217Y-143453705D01*
X106762416Y-143521737D01*
X106762414Y-143521738D01*
X106756386Y-143524422D01*
X106751045Y-143528302D01*
X106751044Y-143528303D01*
X106615731Y-143626613D01*
X106615728Y-143626614D01*
X106610387Y-143630496D01*
X106605970Y-143635401D01*
X106605965Y-143635406D01*
X106495875Y-143757674D01*
X106489633Y-143764607D01*
X106486334Y-143770320D01*
X106486331Y-143770325D01*
X106410663Y-143901386D01*
X106399401Y-143920893D01*
X106397359Y-143927175D01*
X106397359Y-143927177D01*
X106348686Y-144076980D01*
X106343635Y-144092525D01*
X106324771Y-144272000D01*
X100500000Y-144272000D01*
X100500000Y-143256000D01*
X109372771Y-143256000D01*
X109391635Y-143435475D01*
X109447401Y-143607107D01*
X109537633Y-143763393D01*
X109658387Y-143897504D01*
X109804385Y-144003578D01*
X109969248Y-144076980D01*
X110145768Y-144114500D01*
X110319629Y-144114500D01*
X110326232Y-144114500D01*
X110502752Y-144076980D01*
X110667615Y-144003578D01*
X110813613Y-143897504D01*
X110934367Y-143763393D01*
X111024599Y-143607107D01*
X111080365Y-143435475D01*
X111099229Y-143256000D01*
X124612771Y-143256000D01*
X124631635Y-143435475D01*
X124687401Y-143607107D01*
X124777633Y-143763393D01*
X124898387Y-143897504D01*
X125044385Y-144003578D01*
X125209248Y-144076980D01*
X125385768Y-144114500D01*
X125559629Y-144114500D01*
X125566232Y-144114500D01*
X125742752Y-144076980D01*
X125907615Y-144003578D01*
X126053613Y-143897504D01*
X126173820Y-143764000D01*
X126644771Y-143764000D01*
X126663635Y-143943475D01*
X126665674Y-143949752D01*
X126665675Y-143949754D01*
X126690178Y-144025168D01*
X126719401Y-144115107D01*
X126809633Y-144271393D01*
X126930387Y-144405504D01*
X127076385Y-144511578D01*
X127241248Y-144584980D01*
X127417768Y-144622500D01*
X127591629Y-144622500D01*
X127598232Y-144622500D01*
X127774752Y-144584980D01*
X127939615Y-144511578D01*
X128085613Y-144405504D01*
X128206367Y-144271393D01*
X128296599Y-144115107D01*
X128352365Y-143943475D01*
X128371229Y-143764000D01*
X128352365Y-143584525D01*
X128296599Y-143412893D01*
X128206367Y-143256607D01*
X128085613Y-143122496D01*
X127939615Y-143016422D01*
X127774752Y-142943020D01*
X127768299Y-142941648D01*
X127768295Y-142941647D01*
X127604689Y-142906872D01*
X127604684Y-142906871D01*
X127598232Y-142905500D01*
X127417768Y-142905500D01*
X127411316Y-142906871D01*
X127411310Y-142906872D01*
X127247704Y-142941647D01*
X127247697Y-142941649D01*
X127241248Y-142943020D01*
X127235218Y-142945704D01*
X127235217Y-142945705D01*
X127082416Y-143013737D01*
X127082414Y-143013738D01*
X127076386Y-143016422D01*
X127071045Y-143020302D01*
X127071044Y-143020303D01*
X126935731Y-143118613D01*
X126935728Y-143118614D01*
X126930387Y-143122496D01*
X126925970Y-143127401D01*
X126925965Y-143127406D01*
X126814052Y-143251699D01*
X126809633Y-143256607D01*
X126806334Y-143262320D01*
X126806331Y-143262325D01*
X126722705Y-143407170D01*
X126719401Y-143412893D01*
X126717359Y-143419175D01*
X126717359Y-143419177D01*
X126684036Y-143521737D01*
X126663635Y-143584525D01*
X126644771Y-143764000D01*
X126173820Y-143764000D01*
X126174367Y-143763393D01*
X126264599Y-143607107D01*
X126320365Y-143435475D01*
X126339229Y-143256000D01*
X126320365Y-143076525D01*
X126264599Y-142904893D01*
X126174367Y-142748607D01*
X126053613Y-142614496D01*
X125907615Y-142508422D01*
X125742752Y-142435020D01*
X125736299Y-142433648D01*
X125736295Y-142433647D01*
X125572689Y-142398872D01*
X125572684Y-142398871D01*
X125566232Y-142397500D01*
X125385768Y-142397500D01*
X125379316Y-142398871D01*
X125379310Y-142398872D01*
X125215704Y-142433647D01*
X125215697Y-142433649D01*
X125209248Y-142435020D01*
X125203218Y-142437704D01*
X125203217Y-142437705D01*
X125050416Y-142505737D01*
X125050414Y-142505738D01*
X125044386Y-142508422D01*
X125039045Y-142512302D01*
X125039044Y-142512303D01*
X124903731Y-142610613D01*
X124903728Y-142610614D01*
X124898387Y-142614496D01*
X124893970Y-142619401D01*
X124893965Y-142619406D01*
X124782052Y-142743699D01*
X124777633Y-142748607D01*
X124774334Y-142754320D01*
X124774331Y-142754325D01*
X124690705Y-142899170D01*
X124687401Y-142904893D01*
X124685359Y-142911175D01*
X124685359Y-142911177D01*
X124652036Y-143013737D01*
X124631635Y-143076525D01*
X124612771Y-143256000D01*
X111099229Y-143256000D01*
X111080365Y-143076525D01*
X111024599Y-142904893D01*
X110934367Y-142748607D01*
X110813613Y-142614496D01*
X110667615Y-142508422D01*
X110502752Y-142435020D01*
X110496299Y-142433648D01*
X110496295Y-142433647D01*
X110332689Y-142398872D01*
X110332684Y-142398871D01*
X110326232Y-142397500D01*
X110145768Y-142397500D01*
X110139316Y-142398871D01*
X110139310Y-142398872D01*
X109975704Y-142433647D01*
X109975697Y-142433649D01*
X109969248Y-142435020D01*
X109963218Y-142437704D01*
X109963217Y-142437705D01*
X109810416Y-142505737D01*
X109810414Y-142505738D01*
X109804386Y-142508422D01*
X109799045Y-142512302D01*
X109799044Y-142512303D01*
X109663731Y-142610613D01*
X109663728Y-142610614D01*
X109658387Y-142614496D01*
X109653970Y-142619401D01*
X109653965Y-142619406D01*
X109542052Y-142743699D01*
X109537633Y-142748607D01*
X109534334Y-142754320D01*
X109534331Y-142754325D01*
X109450705Y-142899170D01*
X109447401Y-142904893D01*
X109445359Y-142911175D01*
X109445359Y-142911177D01*
X109412036Y-143013737D01*
X109391635Y-143076525D01*
X109372771Y-143256000D01*
X100500000Y-143256000D01*
X100500000Y-140716000D01*
X126644771Y-140716000D01*
X126663635Y-140895475D01*
X126665674Y-140901752D01*
X126665675Y-140901754D01*
X126696825Y-140997624D01*
X126719401Y-141067107D01*
X126809633Y-141223393D01*
X126930387Y-141357504D01*
X127076385Y-141463578D01*
X127241248Y-141536980D01*
X127417768Y-141574500D01*
X127591629Y-141574500D01*
X127598232Y-141574500D01*
X127774752Y-141536980D01*
X127939615Y-141463578D01*
X128085613Y-141357504D01*
X128206367Y-141223393D01*
X128296599Y-141067107D01*
X128352365Y-140895475D01*
X128371229Y-140716000D01*
X128352365Y-140536525D01*
X128296599Y-140364893D01*
X128206367Y-140208607D01*
X128205820Y-140208000D01*
X146964771Y-140208000D01*
X146983635Y-140387475D01*
X147039401Y-140559107D01*
X147129633Y-140715393D01*
X147250387Y-140849504D01*
X147396385Y-140955578D01*
X147561248Y-141028980D01*
X147737768Y-141066500D01*
X147911629Y-141066500D01*
X147918232Y-141066500D01*
X148094752Y-141028980D01*
X148259615Y-140955578D01*
X148405613Y-140849504D01*
X148525820Y-140716000D01*
X166776771Y-140716000D01*
X166795635Y-140895475D01*
X166797674Y-140901752D01*
X166797675Y-140901754D01*
X166828825Y-140997624D01*
X166851401Y-141067107D01*
X166941633Y-141223393D01*
X167062387Y-141357504D01*
X167208385Y-141463578D01*
X167373248Y-141536980D01*
X167549768Y-141574500D01*
X167723629Y-141574500D01*
X167730232Y-141574500D01*
X167906752Y-141536980D01*
X168071615Y-141463578D01*
X168217613Y-141357504D01*
X168338367Y-141223393D01*
X168428599Y-141067107D01*
X168484365Y-140895475D01*
X168503229Y-140716000D01*
X168484365Y-140536525D01*
X168428599Y-140364893D01*
X168338367Y-140208607D01*
X168217613Y-140074496D01*
X168071615Y-139968422D01*
X167906752Y-139895020D01*
X167900299Y-139893648D01*
X167900295Y-139893647D01*
X167736689Y-139858872D01*
X167736684Y-139858871D01*
X167730232Y-139857500D01*
X167549768Y-139857500D01*
X167543316Y-139858871D01*
X167543310Y-139858872D01*
X167379704Y-139893647D01*
X167379697Y-139893649D01*
X167373248Y-139895020D01*
X167367218Y-139897704D01*
X167367217Y-139897705D01*
X167214416Y-139965737D01*
X167214414Y-139965738D01*
X167208386Y-139968422D01*
X167203045Y-139972302D01*
X167203044Y-139972303D01*
X167067731Y-140070613D01*
X167067728Y-140070614D01*
X167062387Y-140074496D01*
X167057970Y-140079401D01*
X167057965Y-140079406D01*
X166946052Y-140203699D01*
X166941633Y-140208607D01*
X166938334Y-140214320D01*
X166938331Y-140214325D01*
X166854705Y-140359170D01*
X166851401Y-140364893D01*
X166849359Y-140371175D01*
X166849359Y-140371177D01*
X166842024Y-140393754D01*
X166795635Y-140536525D01*
X166776771Y-140716000D01*
X148525820Y-140716000D01*
X148526367Y-140715393D01*
X148616599Y-140559107D01*
X148672365Y-140387475D01*
X148691229Y-140208000D01*
X148672365Y-140028525D01*
X148616599Y-139856893D01*
X148526367Y-139700607D01*
X148405613Y-139566496D01*
X148259615Y-139460422D01*
X148094752Y-139387020D01*
X148088299Y-139385648D01*
X148088295Y-139385647D01*
X147924689Y-139350872D01*
X147924684Y-139350871D01*
X147918232Y-139349500D01*
X147737768Y-139349500D01*
X147731316Y-139350871D01*
X147731310Y-139350872D01*
X147567704Y-139385647D01*
X147567697Y-139385649D01*
X147561248Y-139387020D01*
X147555218Y-139389704D01*
X147555217Y-139389705D01*
X147402416Y-139457737D01*
X147402414Y-139457738D01*
X147396386Y-139460422D01*
X147391045Y-139464302D01*
X147391044Y-139464303D01*
X147255731Y-139562613D01*
X147255728Y-139562614D01*
X147250387Y-139566496D01*
X147245970Y-139571401D01*
X147245965Y-139571406D01*
X147135875Y-139693674D01*
X147129633Y-139700607D01*
X147126334Y-139706320D01*
X147126331Y-139706325D01*
X147050663Y-139837386D01*
X147039401Y-139856893D01*
X147037359Y-139863175D01*
X147037359Y-139863177D01*
X146988686Y-140012980D01*
X146983635Y-140028525D01*
X146964771Y-140208000D01*
X128205820Y-140208000D01*
X128085613Y-140074496D01*
X127939615Y-139968422D01*
X127774752Y-139895020D01*
X127768299Y-139893648D01*
X127768295Y-139893647D01*
X127604689Y-139858872D01*
X127604684Y-139858871D01*
X127598232Y-139857500D01*
X127417768Y-139857500D01*
X127411316Y-139858871D01*
X127411310Y-139858872D01*
X127247704Y-139893647D01*
X127247697Y-139893649D01*
X127241248Y-139895020D01*
X127235218Y-139897704D01*
X127235217Y-139897705D01*
X127082416Y-139965737D01*
X127082414Y-139965738D01*
X127076386Y-139968422D01*
X127071045Y-139972302D01*
X127071044Y-139972303D01*
X126935731Y-140070613D01*
X126935728Y-140070614D01*
X126930387Y-140074496D01*
X126925970Y-140079401D01*
X126925965Y-140079406D01*
X126814052Y-140203699D01*
X126809633Y-140208607D01*
X126806334Y-140214320D01*
X126806331Y-140214325D01*
X126722705Y-140359170D01*
X126719401Y-140364893D01*
X126717359Y-140371175D01*
X126717359Y-140371177D01*
X126710024Y-140393754D01*
X126663635Y-140536525D01*
X126644771Y-140716000D01*
X100500000Y-140716000D01*
X100500000Y-139192000D01*
X110388771Y-139192000D01*
X110407635Y-139371475D01*
X110409674Y-139377752D01*
X110409675Y-139377754D01*
X110435663Y-139457737D01*
X110463401Y-139543107D01*
X110553633Y-139699393D01*
X110674387Y-139833504D01*
X110820385Y-139939578D01*
X110985248Y-140012980D01*
X111161768Y-140050500D01*
X111335629Y-140050500D01*
X111342232Y-140050500D01*
X111518752Y-140012980D01*
X111683615Y-139939578D01*
X111829613Y-139833504D01*
X111950367Y-139699393D01*
X112040599Y-139543107D01*
X112096365Y-139371475D01*
X112115229Y-139192000D01*
X112096365Y-139012525D01*
X112040599Y-138840893D01*
X111950367Y-138684607D01*
X111949820Y-138684000D01*
X123596771Y-138684000D01*
X123615635Y-138863475D01*
X123617674Y-138869752D01*
X123617675Y-138869754D01*
X123648825Y-138965624D01*
X123671401Y-139035107D01*
X123761633Y-139191393D01*
X123882387Y-139325504D01*
X124028385Y-139431578D01*
X124193248Y-139504980D01*
X124369768Y-139542500D01*
X124543629Y-139542500D01*
X124550232Y-139542500D01*
X124726752Y-139504980D01*
X124891615Y-139431578D01*
X125037613Y-139325504D01*
X125158367Y-139191393D01*
X125248599Y-139035107D01*
X125304365Y-138863475D01*
X125323229Y-138684000D01*
X125304365Y-138504525D01*
X125248599Y-138332893D01*
X125158367Y-138176607D01*
X125157820Y-138176000D01*
X168808771Y-138176000D01*
X168827635Y-138355475D01*
X168883401Y-138527107D01*
X168973633Y-138683393D01*
X169094387Y-138817504D01*
X169240385Y-138923578D01*
X169405248Y-138996980D01*
X169581768Y-139034500D01*
X169755629Y-139034500D01*
X169762232Y-139034500D01*
X169938752Y-138996980D01*
X170103615Y-138923578D01*
X170249613Y-138817504D01*
X170370367Y-138683393D01*
X170460599Y-138527107D01*
X170516365Y-138355475D01*
X170535229Y-138176000D01*
X170516365Y-137996525D01*
X170460599Y-137824893D01*
X170370367Y-137668607D01*
X170249613Y-137534496D01*
X170103615Y-137428422D01*
X169938752Y-137355020D01*
X169932299Y-137353648D01*
X169932295Y-137353647D01*
X169768689Y-137318872D01*
X169768684Y-137318871D01*
X169762232Y-137317500D01*
X169581768Y-137317500D01*
X169575316Y-137318871D01*
X169575310Y-137318872D01*
X169411704Y-137353647D01*
X169411697Y-137353649D01*
X169405248Y-137355020D01*
X169399218Y-137357704D01*
X169399217Y-137357705D01*
X169246416Y-137425737D01*
X169246414Y-137425738D01*
X169240386Y-137428422D01*
X169235045Y-137432302D01*
X169235044Y-137432303D01*
X169099731Y-137530613D01*
X169099728Y-137530614D01*
X169094387Y-137534496D01*
X169089970Y-137539401D01*
X169089965Y-137539406D01*
X168978052Y-137663699D01*
X168973633Y-137668607D01*
X168970334Y-137674320D01*
X168970331Y-137674325D01*
X168886705Y-137819170D01*
X168883401Y-137824893D01*
X168881359Y-137831175D01*
X168881359Y-137831177D01*
X168848036Y-137933737D01*
X168827635Y-137996525D01*
X168808771Y-138176000D01*
X125157820Y-138176000D01*
X125037613Y-138042496D01*
X124891615Y-137936422D01*
X124726752Y-137863020D01*
X124720299Y-137861648D01*
X124720295Y-137861647D01*
X124556689Y-137826872D01*
X124556684Y-137826871D01*
X124550232Y-137825500D01*
X124369768Y-137825500D01*
X124363316Y-137826871D01*
X124363310Y-137826872D01*
X124199704Y-137861647D01*
X124199697Y-137861649D01*
X124193248Y-137863020D01*
X124187218Y-137865704D01*
X124187217Y-137865705D01*
X124034416Y-137933737D01*
X124034414Y-137933738D01*
X124028386Y-137936422D01*
X124023045Y-137940302D01*
X124023044Y-137940303D01*
X123887731Y-138038613D01*
X123887728Y-138038614D01*
X123882387Y-138042496D01*
X123877970Y-138047401D01*
X123877965Y-138047406D01*
X123766052Y-138171699D01*
X123761633Y-138176607D01*
X123758334Y-138182320D01*
X123758331Y-138182325D01*
X123674705Y-138327170D01*
X123671401Y-138332893D01*
X123669359Y-138339175D01*
X123669359Y-138339177D01*
X123636036Y-138441737D01*
X123615635Y-138504525D01*
X123596771Y-138684000D01*
X111949820Y-138684000D01*
X111829613Y-138550496D01*
X111683615Y-138444422D01*
X111518752Y-138371020D01*
X111512299Y-138369648D01*
X111512295Y-138369647D01*
X111348689Y-138334872D01*
X111348684Y-138334871D01*
X111342232Y-138333500D01*
X111161768Y-138333500D01*
X111155316Y-138334871D01*
X111155310Y-138334872D01*
X110991704Y-138369647D01*
X110991697Y-138369649D01*
X110985248Y-138371020D01*
X110979218Y-138373704D01*
X110979217Y-138373705D01*
X110826416Y-138441737D01*
X110826414Y-138441738D01*
X110820386Y-138444422D01*
X110815045Y-138448302D01*
X110815044Y-138448303D01*
X110679731Y-138546613D01*
X110679728Y-138546614D01*
X110674387Y-138550496D01*
X110669970Y-138555401D01*
X110669965Y-138555406D01*
X110559875Y-138677674D01*
X110553633Y-138684607D01*
X110550334Y-138690320D01*
X110550331Y-138690325D01*
X110474663Y-138821386D01*
X110463401Y-138840893D01*
X110461359Y-138847175D01*
X110461359Y-138847177D01*
X110412686Y-138996980D01*
X110407635Y-139012525D01*
X110388771Y-139192000D01*
X100500000Y-139192000D01*
X100500000Y-136652000D01*
X106832771Y-136652000D01*
X106851635Y-136831475D01*
X106907401Y-137003107D01*
X106997633Y-137159393D01*
X107118387Y-137293504D01*
X107264385Y-137399578D01*
X107429248Y-137472980D01*
X107605768Y-137510500D01*
X107779629Y-137510500D01*
X107786232Y-137510500D01*
X107962752Y-137472980D01*
X108127615Y-137399578D01*
X108273613Y-137293504D01*
X108394367Y-137159393D01*
X108484599Y-137003107D01*
X108540365Y-136831475D01*
X108559229Y-136652000D01*
X138328771Y-136652000D01*
X138347635Y-136831475D01*
X138403401Y-137003107D01*
X138493633Y-137159393D01*
X138614387Y-137293504D01*
X138760385Y-137399578D01*
X138925248Y-137472980D01*
X139101768Y-137510500D01*
X139275629Y-137510500D01*
X139282232Y-137510500D01*
X139458752Y-137472980D01*
X139623615Y-137399578D01*
X139769613Y-137293504D01*
X139890367Y-137159393D01*
X139980599Y-137003107D01*
X140036365Y-136831475D01*
X140055229Y-136652000D01*
X153060771Y-136652000D01*
X153079635Y-136831475D01*
X153135401Y-137003107D01*
X153225633Y-137159393D01*
X153346387Y-137293504D01*
X153492385Y-137399578D01*
X153657248Y-137472980D01*
X153833768Y-137510500D01*
X154007629Y-137510500D01*
X154014232Y-137510500D01*
X154190752Y-137472980D01*
X154355615Y-137399578D01*
X154501613Y-137293504D01*
X154622367Y-137159393D01*
X154712599Y-137003107D01*
X154768365Y-136831475D01*
X154787229Y-136652000D01*
X154768365Y-136472525D01*
X154712599Y-136300893D01*
X154622367Y-136144607D01*
X154501613Y-136010496D01*
X154355615Y-135904422D01*
X154190752Y-135831020D01*
X154184299Y-135829648D01*
X154184295Y-135829647D01*
X154020689Y-135794872D01*
X154020684Y-135794871D01*
X154014232Y-135793500D01*
X153833768Y-135793500D01*
X153827316Y-135794871D01*
X153827310Y-135794872D01*
X153663704Y-135829647D01*
X153663697Y-135829649D01*
X153657248Y-135831020D01*
X153651218Y-135833704D01*
X153651217Y-135833705D01*
X153498416Y-135901737D01*
X153498414Y-135901738D01*
X153492386Y-135904422D01*
X153487045Y-135908302D01*
X153487044Y-135908303D01*
X153351731Y-136006613D01*
X153351728Y-136006614D01*
X153346387Y-136010496D01*
X153341970Y-136015401D01*
X153341965Y-136015406D01*
X153231875Y-136137674D01*
X153225633Y-136144607D01*
X153222334Y-136150320D01*
X153222331Y-136150325D01*
X153146663Y-136281386D01*
X153135401Y-136300893D01*
X153133359Y-136307175D01*
X153133359Y-136307177D01*
X153084686Y-136456980D01*
X153079635Y-136472525D01*
X153060771Y-136652000D01*
X140055229Y-136652000D01*
X140036365Y-136472525D01*
X139980599Y-136300893D01*
X139890367Y-136144607D01*
X139769613Y-136010496D01*
X139623615Y-135904422D01*
X139458752Y-135831020D01*
X139452299Y-135829648D01*
X139452295Y-135829647D01*
X139288689Y-135794872D01*
X139288684Y-135794871D01*
X139282232Y-135793500D01*
X139101768Y-135793500D01*
X139095316Y-135794871D01*
X139095310Y-135794872D01*
X138931704Y-135829647D01*
X138931697Y-135829649D01*
X138925248Y-135831020D01*
X138919218Y-135833704D01*
X138919217Y-135833705D01*
X138766416Y-135901737D01*
X138766414Y-135901738D01*
X138760386Y-135904422D01*
X138755045Y-135908302D01*
X138755044Y-135908303D01*
X138619731Y-136006613D01*
X138619728Y-136006614D01*
X138614387Y-136010496D01*
X138609970Y-136015401D01*
X138609965Y-136015406D01*
X138499875Y-136137674D01*
X138493633Y-136144607D01*
X138490334Y-136150320D01*
X138490331Y-136150325D01*
X138414663Y-136281386D01*
X138403401Y-136300893D01*
X138401359Y-136307175D01*
X138401359Y-136307177D01*
X138352686Y-136456980D01*
X138347635Y-136472525D01*
X138328771Y-136652000D01*
X108559229Y-136652000D01*
X108540365Y-136472525D01*
X108484599Y-136300893D01*
X108394367Y-136144607D01*
X108273613Y-136010496D01*
X108127615Y-135904422D01*
X107962752Y-135831020D01*
X107956299Y-135829648D01*
X107956295Y-135829647D01*
X107792689Y-135794872D01*
X107792684Y-135794871D01*
X107786232Y-135793500D01*
X107605768Y-135793500D01*
X107599316Y-135794871D01*
X107599310Y-135794872D01*
X107435704Y-135829647D01*
X107435697Y-135829649D01*
X107429248Y-135831020D01*
X107423218Y-135833704D01*
X107423217Y-135833705D01*
X107270416Y-135901737D01*
X107270414Y-135901738D01*
X107264386Y-135904422D01*
X107259045Y-135908302D01*
X107259044Y-135908303D01*
X107123731Y-136006613D01*
X107123728Y-136006614D01*
X107118387Y-136010496D01*
X107113970Y-136015401D01*
X107113965Y-136015406D01*
X107003875Y-136137674D01*
X106997633Y-136144607D01*
X106994334Y-136150320D01*
X106994331Y-136150325D01*
X106918663Y-136281386D01*
X106907401Y-136300893D01*
X106905359Y-136307175D01*
X106905359Y-136307177D01*
X106856686Y-136456980D01*
X106851635Y-136472525D01*
X106832771Y-136652000D01*
X100500000Y-136652000D01*
X100500000Y-135128000D01*
X126644771Y-135128000D01*
X126663635Y-135307475D01*
X126719401Y-135479107D01*
X126809633Y-135635393D01*
X126930387Y-135769504D01*
X127076385Y-135875578D01*
X127241248Y-135948980D01*
X127417768Y-135986500D01*
X127591629Y-135986500D01*
X127598232Y-135986500D01*
X127774752Y-135948980D01*
X127939615Y-135875578D01*
X128085613Y-135769504D01*
X128205820Y-135636000D01*
X146964771Y-135636000D01*
X146983635Y-135815475D01*
X146985674Y-135821752D01*
X146985675Y-135821754D01*
X147011663Y-135901737D01*
X147039401Y-135987107D01*
X147129633Y-136143393D01*
X147250387Y-136277504D01*
X147396385Y-136383578D01*
X147561248Y-136456980D01*
X147737768Y-136494500D01*
X147911629Y-136494500D01*
X147918232Y-136494500D01*
X148094752Y-136456980D01*
X148259615Y-136383578D01*
X148405613Y-136277504D01*
X148526367Y-136143393D01*
X148616599Y-135987107D01*
X148672365Y-135815475D01*
X148691229Y-135636000D01*
X161696771Y-135636000D01*
X161715635Y-135815475D01*
X161717674Y-135821752D01*
X161717675Y-135821754D01*
X161743663Y-135901737D01*
X161771401Y-135987107D01*
X161861633Y-136143393D01*
X161982387Y-136277504D01*
X162128385Y-136383578D01*
X162293248Y-136456980D01*
X162469768Y-136494500D01*
X162643629Y-136494500D01*
X162650232Y-136494500D01*
X162826752Y-136456980D01*
X162991615Y-136383578D01*
X163137613Y-136277504D01*
X163258367Y-136143393D01*
X163348599Y-135987107D01*
X163404365Y-135815475D01*
X163423229Y-135636000D01*
X166776771Y-135636000D01*
X166795635Y-135815475D01*
X166797674Y-135821752D01*
X166797675Y-135821754D01*
X166823663Y-135901737D01*
X166851401Y-135987107D01*
X166941633Y-136143393D01*
X167062387Y-136277504D01*
X167208385Y-136383578D01*
X167373248Y-136456980D01*
X167549768Y-136494500D01*
X167723629Y-136494500D01*
X167730232Y-136494500D01*
X167906752Y-136456980D01*
X168071615Y-136383578D01*
X168217613Y-136277504D01*
X168338367Y-136143393D01*
X168428599Y-135987107D01*
X168484365Y-135815475D01*
X168503229Y-135636000D01*
X168484365Y-135456525D01*
X168428599Y-135284893D01*
X168338367Y-135128607D01*
X168217613Y-134994496D01*
X168071615Y-134888422D01*
X167906752Y-134815020D01*
X167900299Y-134813648D01*
X167900295Y-134813647D01*
X167736689Y-134778872D01*
X167736684Y-134778871D01*
X167730232Y-134777500D01*
X167549768Y-134777500D01*
X167543316Y-134778871D01*
X167543310Y-134778872D01*
X167379704Y-134813647D01*
X167379697Y-134813649D01*
X167373248Y-134815020D01*
X167367218Y-134817704D01*
X167367217Y-134817705D01*
X167214416Y-134885737D01*
X167214414Y-134885738D01*
X167208386Y-134888422D01*
X167203045Y-134892302D01*
X167203044Y-134892303D01*
X167067731Y-134990613D01*
X167067728Y-134990614D01*
X167062387Y-134994496D01*
X167057970Y-134999401D01*
X167057965Y-134999406D01*
X166946052Y-135123699D01*
X166941633Y-135128607D01*
X166938334Y-135134320D01*
X166938331Y-135134325D01*
X166854705Y-135279170D01*
X166851401Y-135284893D01*
X166849359Y-135291175D01*
X166849359Y-135291177D01*
X166842024Y-135313754D01*
X166795635Y-135456525D01*
X166776771Y-135636000D01*
X163423229Y-135636000D01*
X163404365Y-135456525D01*
X163348599Y-135284893D01*
X163258367Y-135128607D01*
X163137613Y-134994496D01*
X162991615Y-134888422D01*
X162826752Y-134815020D01*
X162820299Y-134813648D01*
X162820295Y-134813647D01*
X162656689Y-134778872D01*
X162656684Y-134778871D01*
X162650232Y-134777500D01*
X162469768Y-134777500D01*
X162463316Y-134778871D01*
X162463310Y-134778872D01*
X162299704Y-134813647D01*
X162299697Y-134813649D01*
X162293248Y-134815020D01*
X162287218Y-134817704D01*
X162287217Y-134817705D01*
X162134416Y-134885737D01*
X162134414Y-134885738D01*
X162128386Y-134888422D01*
X162123045Y-134892302D01*
X162123044Y-134892303D01*
X161987731Y-134990613D01*
X161987728Y-134990614D01*
X161982387Y-134994496D01*
X161977970Y-134999401D01*
X161977965Y-134999406D01*
X161866052Y-135123699D01*
X161861633Y-135128607D01*
X161858334Y-135134320D01*
X161858331Y-135134325D01*
X161774705Y-135279170D01*
X161771401Y-135284893D01*
X161769359Y-135291175D01*
X161769359Y-135291177D01*
X161762024Y-135313754D01*
X161715635Y-135456525D01*
X161696771Y-135636000D01*
X148691229Y-135636000D01*
X148672365Y-135456525D01*
X148616599Y-135284893D01*
X148526367Y-135128607D01*
X148405613Y-134994496D01*
X148259615Y-134888422D01*
X148094752Y-134815020D01*
X148088299Y-134813648D01*
X148088295Y-134813647D01*
X147924689Y-134778872D01*
X147924684Y-134778871D01*
X147918232Y-134777500D01*
X147737768Y-134777500D01*
X147731316Y-134778871D01*
X147731310Y-134778872D01*
X147567704Y-134813647D01*
X147567697Y-134813649D01*
X147561248Y-134815020D01*
X147555218Y-134817704D01*
X147555217Y-134817705D01*
X147402416Y-134885737D01*
X147402414Y-134885738D01*
X147396386Y-134888422D01*
X147391045Y-134892302D01*
X147391044Y-134892303D01*
X147255731Y-134990613D01*
X147255728Y-134990614D01*
X147250387Y-134994496D01*
X147245970Y-134999401D01*
X147245965Y-134999406D01*
X147134052Y-135123699D01*
X147129633Y-135128607D01*
X147126334Y-135134320D01*
X147126331Y-135134325D01*
X147042705Y-135279170D01*
X147039401Y-135284893D01*
X147037359Y-135291175D01*
X147037359Y-135291177D01*
X147030024Y-135313754D01*
X146983635Y-135456525D01*
X146964771Y-135636000D01*
X128205820Y-135636000D01*
X128206367Y-135635393D01*
X128296599Y-135479107D01*
X128352365Y-135307475D01*
X128371229Y-135128000D01*
X128352365Y-134948525D01*
X128296599Y-134776893D01*
X128206367Y-134620607D01*
X128085613Y-134486496D01*
X127939615Y-134380422D01*
X127774752Y-134307020D01*
X127768299Y-134305648D01*
X127768295Y-134305647D01*
X127604689Y-134270872D01*
X127604684Y-134270871D01*
X127598232Y-134269500D01*
X127417768Y-134269500D01*
X127411316Y-134270871D01*
X127411310Y-134270872D01*
X127247704Y-134305647D01*
X127247697Y-134305649D01*
X127241248Y-134307020D01*
X127235218Y-134309704D01*
X127235217Y-134309705D01*
X127082416Y-134377737D01*
X127082414Y-134377738D01*
X127076386Y-134380422D01*
X127071045Y-134384302D01*
X127071044Y-134384303D01*
X126935731Y-134482613D01*
X126935728Y-134482614D01*
X126930387Y-134486496D01*
X126925970Y-134491401D01*
X126925965Y-134491406D01*
X126814052Y-134615699D01*
X126809633Y-134620607D01*
X126806334Y-134626320D01*
X126806331Y-134626325D01*
X126722705Y-134771170D01*
X126719401Y-134776893D01*
X126717359Y-134783175D01*
X126717359Y-134783177D01*
X126684036Y-134885737D01*
X126663635Y-134948525D01*
X126644771Y-135128000D01*
X100500000Y-135128000D01*
X100500000Y-131572000D01*
X147472771Y-131572000D01*
X147491635Y-131751475D01*
X147547401Y-131923107D01*
X147637633Y-132079393D01*
X147758387Y-132213504D01*
X147861894Y-132288706D01*
X147904657Y-132343440D01*
X147911918Y-132412520D01*
X147881468Y-132474951D01*
X147779133Y-132588607D01*
X147775834Y-132594320D01*
X147775831Y-132594325D01*
X147692205Y-132739170D01*
X147688901Y-132744893D01*
X147633135Y-132916525D01*
X147614271Y-133096000D01*
X147633135Y-133275475D01*
X147688901Y-133447107D01*
X147779133Y-133603393D01*
X147899887Y-133737504D01*
X148045885Y-133843578D01*
X148210748Y-133916980D01*
X148387268Y-133954500D01*
X148561129Y-133954500D01*
X148567732Y-133954500D01*
X148744252Y-133916980D01*
X148909115Y-133843578D01*
X149055113Y-133737504D01*
X149175867Y-133603393D01*
X149266099Y-133447107D01*
X149321865Y-133275475D01*
X149340729Y-133096000D01*
X149321865Y-132916525D01*
X149266099Y-132744893D01*
X149175867Y-132588607D01*
X149055113Y-132454496D01*
X148951605Y-132379293D01*
X148908842Y-132324558D01*
X148901581Y-132255478D01*
X148932029Y-132193050D01*
X149034367Y-132079393D01*
X149124599Y-131923107D01*
X149180365Y-131751475D01*
X149199229Y-131572000D01*
X149180365Y-131392525D01*
X149124599Y-131220893D01*
X149070387Y-131126996D01*
X149053508Y-131064000D01*
X149070387Y-131001003D01*
X149124599Y-130907107D01*
X149180365Y-130735475D01*
X149199229Y-130556000D01*
X149180365Y-130376525D01*
X149124599Y-130204893D01*
X149034367Y-130048607D01*
X148913613Y-129914496D01*
X148767615Y-129808422D01*
X148602752Y-129735020D01*
X148596299Y-129733648D01*
X148596295Y-129733647D01*
X148432689Y-129698872D01*
X148432684Y-129698871D01*
X148426232Y-129697500D01*
X148245768Y-129697500D01*
X148239316Y-129698871D01*
X148239310Y-129698872D01*
X148075704Y-129733647D01*
X148075697Y-129733649D01*
X148069248Y-129735020D01*
X148063218Y-129737704D01*
X148063217Y-129737705D01*
X147910416Y-129805737D01*
X147910414Y-129805738D01*
X147904386Y-129808422D01*
X147899045Y-129812302D01*
X147899044Y-129812303D01*
X147763731Y-129910613D01*
X147763728Y-129910614D01*
X147758387Y-129914496D01*
X147753970Y-129919401D01*
X147753965Y-129919406D01*
X147642052Y-130043699D01*
X147637633Y-130048607D01*
X147634334Y-130054320D01*
X147634331Y-130054325D01*
X147550705Y-130199170D01*
X147547401Y-130204893D01*
X147491635Y-130376525D01*
X147472771Y-130556000D01*
X147491635Y-130735475D01*
X147547401Y-130907107D01*
X147550705Y-130912829D01*
X147601610Y-131001000D01*
X147618491Y-131064000D01*
X147601610Y-131127000D01*
X147550705Y-131215170D01*
X147547401Y-131220893D01*
X147491635Y-131392525D01*
X147472771Y-131572000D01*
X100500000Y-131572000D01*
X100500000Y-128016000D01*
X108864771Y-128016000D01*
X108883635Y-128195475D01*
X108885674Y-128201752D01*
X108885675Y-128201754D01*
X108912380Y-128283943D01*
X108939401Y-128367107D01*
X109029633Y-128523393D01*
X109150387Y-128657504D01*
X109296385Y-128763578D01*
X109461248Y-128836980D01*
X109637768Y-128874500D01*
X109811629Y-128874500D01*
X109818232Y-128874500D01*
X109994752Y-128836980D01*
X110159615Y-128763578D01*
X110296672Y-128664000D01*
X114325771Y-128664000D01*
X114344635Y-128843475D01*
X114346674Y-128849752D01*
X114346675Y-128849754D01*
X114354913Y-128875107D01*
X114400401Y-129015107D01*
X114403705Y-129020829D01*
X114484397Y-129160593D01*
X114490633Y-129171393D01*
X114611387Y-129305504D01*
X114757385Y-129411578D01*
X114922248Y-129484980D01*
X115098768Y-129522500D01*
X115272629Y-129522500D01*
X115279232Y-129522500D01*
X115455752Y-129484980D01*
X115620615Y-129411578D01*
X115766613Y-129305504D01*
X115887367Y-129171393D01*
X115977599Y-129015107D01*
X116010243Y-128914638D01*
X130213500Y-128914638D01*
X130213859Y-128917985D01*
X130213860Y-128917988D01*
X130219168Y-128967367D01*
X130219169Y-128967373D01*
X130220011Y-128975201D01*
X130222762Y-128982578D01*
X130222763Y-128982580D01*
X130267962Y-129103763D01*
X130267964Y-129103766D01*
X130271111Y-129112204D01*
X130276508Y-129119414D01*
X130276510Y-129119417D01*
X130353340Y-129222049D01*
X130358739Y-129229261D01*
X130365950Y-129234659D01*
X130401671Y-129261400D01*
X130475796Y-129316889D01*
X130612799Y-129367989D01*
X130673362Y-129374500D01*
X132467269Y-129374500D01*
X132470638Y-129374500D01*
X132531201Y-129367989D01*
X132668204Y-129316889D01*
X132785261Y-129229261D01*
X132872889Y-129112204D01*
X132916998Y-128993943D01*
X132953530Y-128941904D01*
X133010820Y-128914328D01*
X133074282Y-128918238D01*
X133127755Y-128952638D01*
X133148526Y-128975201D01*
X133188760Y-129018906D01*
X133366424Y-129157189D01*
X133564426Y-129264342D01*
X133569355Y-129266034D01*
X133569357Y-129266035D01*
X133593322Y-129274262D01*
X133777365Y-129337444D01*
X133999431Y-129374500D01*
X134219358Y-129374500D01*
X134224569Y-129374500D01*
X134446635Y-129337444D01*
X134659574Y-129264342D01*
X134857576Y-129157189D01*
X135035240Y-129018906D01*
X135187722Y-128853268D01*
X135276518Y-128717354D01*
X135322030Y-128675457D01*
X135382000Y-128660271D01*
X135441970Y-128675457D01*
X135487481Y-128717354D01*
X135576278Y-128853268D01*
X135601650Y-128880829D01*
X135725227Y-129015069D01*
X135725231Y-129015073D01*
X135728760Y-129018906D01*
X135906424Y-129157189D01*
X136104426Y-129264342D01*
X136109355Y-129266034D01*
X136109357Y-129266035D01*
X136133322Y-129274262D01*
X136317365Y-129337444D01*
X136539431Y-129374500D01*
X136759358Y-129374500D01*
X136764569Y-129374500D01*
X136986635Y-129337444D01*
X137199574Y-129264342D01*
X137397576Y-129157189D01*
X137575240Y-129018906D01*
X137727722Y-128853268D01*
X137816817Y-128716896D01*
X137862328Y-128675001D01*
X137922297Y-128659814D01*
X137982267Y-128675000D01*
X138027781Y-128716898D01*
X138113822Y-128848592D01*
X138120210Y-128856799D01*
X138265567Y-129014700D01*
X138273211Y-129021737D01*
X138442588Y-129153568D01*
X138451281Y-129159247D01*
X138640042Y-129261400D01*
X138649559Y-129265575D01*
X138852557Y-129335264D01*
X138862627Y-129337814D01*
X138924461Y-129348132D01*
X138935598Y-129347556D01*
X138938000Y-129336664D01*
X139446000Y-129336664D01*
X139448401Y-129347556D01*
X139459538Y-129348132D01*
X139521372Y-129337814D01*
X139531442Y-129335264D01*
X139734440Y-129265575D01*
X139743957Y-129261400D01*
X139932718Y-129159247D01*
X139941411Y-129153568D01*
X140110788Y-129021737D01*
X140118432Y-129014700D01*
X140263789Y-128856799D01*
X140270177Y-128848593D01*
X140387568Y-128668913D01*
X140392511Y-128659778D01*
X140452069Y-128524000D01*
X141884771Y-128524000D01*
X141903635Y-128703475D01*
X141905674Y-128709752D01*
X141905675Y-128709754D01*
X141936825Y-128805624D01*
X141959401Y-128875107D01*
X142049633Y-129031393D01*
X142170387Y-129165504D01*
X142316385Y-129271578D01*
X142481248Y-129344980D01*
X142657768Y-129382500D01*
X142831629Y-129382500D01*
X142838232Y-129382500D01*
X143014752Y-129344980D01*
X143179615Y-129271578D01*
X143325613Y-129165504D01*
X143446367Y-129031393D01*
X143536599Y-128875107D01*
X143592365Y-128703475D01*
X143611229Y-128524000D01*
X143592365Y-128344525D01*
X143536599Y-128172893D01*
X143446367Y-128016607D01*
X143325613Y-127882496D01*
X143179615Y-127776422D01*
X143014752Y-127703020D01*
X143008299Y-127701648D01*
X143008295Y-127701647D01*
X142844689Y-127666872D01*
X142844684Y-127666871D01*
X142838232Y-127665500D01*
X142657768Y-127665500D01*
X142651316Y-127666871D01*
X142651310Y-127666872D01*
X142487704Y-127701647D01*
X142487697Y-127701649D01*
X142481248Y-127703020D01*
X142475218Y-127705704D01*
X142475217Y-127705705D01*
X142322416Y-127773737D01*
X142322414Y-127773738D01*
X142316386Y-127776422D01*
X142311045Y-127780302D01*
X142311044Y-127780303D01*
X142175731Y-127878613D01*
X142175728Y-127878614D01*
X142170387Y-127882496D01*
X142165970Y-127887401D01*
X142165965Y-127887406D01*
X142054052Y-128011699D01*
X142049633Y-128016607D01*
X142046334Y-128022320D01*
X142046331Y-128022325D01*
X141971637Y-128151699D01*
X141959401Y-128172893D01*
X141957359Y-128179175D01*
X141957359Y-128179177D01*
X141913913Y-128312893D01*
X141903635Y-128344525D01*
X141884771Y-128524000D01*
X140452069Y-128524000D01*
X140478729Y-128463223D01*
X140482099Y-128453408D01*
X140525013Y-128283943D01*
X140525248Y-128272565D01*
X140514160Y-128270000D01*
X139462590Y-128270000D01*
X139449506Y-128273506D01*
X139446000Y-128286590D01*
X139446000Y-129336664D01*
X138938000Y-129336664D01*
X138938000Y-127745410D01*
X139446000Y-127745410D01*
X139449506Y-127758493D01*
X139462590Y-127762000D01*
X140514160Y-127762000D01*
X140525248Y-127759434D01*
X140525013Y-127748056D01*
X140482099Y-127578591D01*
X140478729Y-127568776D01*
X140392511Y-127372221D01*
X140387568Y-127363086D01*
X140270177Y-127183406D01*
X140263789Y-127175200D01*
X140118432Y-127017299D01*
X140110788Y-127010262D01*
X139941411Y-126878431D01*
X139932718Y-126872752D01*
X139743957Y-126770599D01*
X139734440Y-126766424D01*
X139531442Y-126696735D01*
X139521372Y-126694185D01*
X139459538Y-126683867D01*
X139448401Y-126684443D01*
X139446000Y-126695336D01*
X139446000Y-127745410D01*
X138938000Y-127745410D01*
X138938000Y-126695336D01*
X138935598Y-126684443D01*
X138924461Y-126683867D01*
X138862627Y-126694185D01*
X138852557Y-126696735D01*
X138649559Y-126766424D01*
X138640042Y-126770599D01*
X138451281Y-126872752D01*
X138442588Y-126878431D01*
X138273211Y-127010262D01*
X138265567Y-127017299D01*
X138120210Y-127175200D01*
X138113816Y-127183415D01*
X138027780Y-127315101D01*
X137982267Y-127356999D01*
X137922297Y-127372185D01*
X137862328Y-127356998D01*
X137816816Y-127315101D01*
X137727722Y-127178732D01*
X137608680Y-127049419D01*
X137578772Y-127016930D01*
X137578767Y-127016925D01*
X137575240Y-127013094D01*
X137397576Y-126874811D01*
X137392997Y-126872333D01*
X137392994Y-126872331D01*
X137204159Y-126770139D01*
X137204156Y-126770137D01*
X137199574Y-126767658D01*
X137194650Y-126765967D01*
X137194642Y-126765964D01*
X136991565Y-126696248D01*
X136991559Y-126696246D01*
X136986635Y-126694556D01*
X136981498Y-126693698D01*
X136981495Y-126693698D01*
X136769706Y-126658357D01*
X136769703Y-126658356D01*
X136764569Y-126657500D01*
X136539431Y-126657500D01*
X136534297Y-126658356D01*
X136534293Y-126658357D01*
X136322504Y-126693698D01*
X136322498Y-126693699D01*
X136317365Y-126694556D01*
X136312443Y-126696245D01*
X136312434Y-126696248D01*
X136109357Y-126765964D01*
X136109344Y-126765969D01*
X136104426Y-126767658D01*
X136099847Y-126770135D01*
X136099840Y-126770139D01*
X135911005Y-126872331D01*
X135910997Y-126872336D01*
X135906424Y-126874811D01*
X135902313Y-126878010D01*
X135902311Y-126878012D01*
X135732878Y-127009888D01*
X135732872Y-127009893D01*
X135728760Y-127013094D01*
X135725237Y-127016919D01*
X135725227Y-127016930D01*
X135579806Y-127174899D01*
X135579802Y-127174902D01*
X135576278Y-127178732D01*
X135573430Y-127183090D01*
X135573427Y-127183095D01*
X135487483Y-127314643D01*
X135441969Y-127356542D01*
X135382000Y-127371728D01*
X135322031Y-127356542D01*
X135276517Y-127314643D01*
X135244565Y-127265737D01*
X135187722Y-127178732D01*
X135068680Y-127049419D01*
X135038772Y-127016930D01*
X135038767Y-127016925D01*
X135035240Y-127013094D01*
X134857576Y-126874811D01*
X134852997Y-126872333D01*
X134852994Y-126872331D01*
X134664159Y-126770139D01*
X134664156Y-126770137D01*
X134659574Y-126767658D01*
X134654650Y-126765967D01*
X134654642Y-126765964D01*
X134451565Y-126696248D01*
X134451559Y-126696246D01*
X134446635Y-126694556D01*
X134441498Y-126693698D01*
X134441495Y-126693698D01*
X134229706Y-126658357D01*
X134229703Y-126658356D01*
X134224569Y-126657500D01*
X133999431Y-126657500D01*
X133994297Y-126658356D01*
X133994293Y-126658357D01*
X133782504Y-126693698D01*
X133782498Y-126693699D01*
X133777365Y-126694556D01*
X133772443Y-126696245D01*
X133772434Y-126696248D01*
X133569357Y-126765964D01*
X133569344Y-126765969D01*
X133564426Y-126767658D01*
X133559847Y-126770135D01*
X133559840Y-126770139D01*
X133371005Y-126872331D01*
X133370997Y-126872336D01*
X133366424Y-126874811D01*
X133362313Y-126878010D01*
X133362311Y-126878012D01*
X133192878Y-127009888D01*
X133192872Y-127009893D01*
X133188760Y-127013094D01*
X133185237Y-127016920D01*
X133185226Y-127016931D01*
X133127754Y-127079362D01*
X133074281Y-127113761D01*
X133010820Y-127117671D01*
X132953530Y-127090095D01*
X132916998Y-127038056D01*
X132876037Y-126928236D01*
X132876036Y-126928235D01*
X132872889Y-126919796D01*
X132841923Y-126878431D01*
X132790659Y-126809950D01*
X132785261Y-126802739D01*
X132778049Y-126797340D01*
X132675417Y-126720510D01*
X132675414Y-126720508D01*
X132668204Y-126715111D01*
X132659766Y-126711964D01*
X132659763Y-126711962D01*
X132538580Y-126666763D01*
X132538578Y-126666762D01*
X132531201Y-126664011D01*
X132523373Y-126663169D01*
X132523367Y-126663168D01*
X132473988Y-126657860D01*
X132473985Y-126657859D01*
X132470638Y-126657500D01*
X130673362Y-126657500D01*
X130670015Y-126657859D01*
X130670011Y-126657860D01*
X130620632Y-126663168D01*
X130620625Y-126663169D01*
X130612799Y-126664011D01*
X130605423Y-126666761D01*
X130605419Y-126666763D01*
X130484236Y-126711962D01*
X130484230Y-126711965D01*
X130475796Y-126715111D01*
X130468588Y-126720506D01*
X130468582Y-126720510D01*
X130365950Y-126797340D01*
X130365946Y-126797343D01*
X130358739Y-126802739D01*
X130353343Y-126809946D01*
X130353340Y-126809950D01*
X130276510Y-126912582D01*
X130276506Y-126912588D01*
X130271111Y-126919796D01*
X130267965Y-126928230D01*
X130267962Y-126928236D01*
X130222763Y-127049419D01*
X130222761Y-127049423D01*
X130220011Y-127056799D01*
X130219169Y-127064625D01*
X130219168Y-127064632D01*
X130217585Y-127079362D01*
X130213500Y-127117362D01*
X130213500Y-128914638D01*
X116010243Y-128914638D01*
X116033365Y-128843475D01*
X116052229Y-128664000D01*
X116033365Y-128484525D01*
X115977599Y-128312893D01*
X115887367Y-128156607D01*
X115766613Y-128022496D01*
X115620615Y-127916422D01*
X115455752Y-127843020D01*
X115449299Y-127841648D01*
X115449295Y-127841647D01*
X115285689Y-127806872D01*
X115285684Y-127806871D01*
X115279232Y-127805500D01*
X115098768Y-127805500D01*
X115092316Y-127806871D01*
X115092310Y-127806872D01*
X114928704Y-127841647D01*
X114928697Y-127841649D01*
X114922248Y-127843020D01*
X114916218Y-127845704D01*
X114916217Y-127845705D01*
X114763416Y-127913737D01*
X114763414Y-127913738D01*
X114757386Y-127916422D01*
X114752045Y-127920302D01*
X114752044Y-127920303D01*
X114616731Y-128018613D01*
X114616728Y-128018614D01*
X114611387Y-128022496D01*
X114606970Y-128027401D01*
X114606965Y-128027406D01*
X114495052Y-128151699D01*
X114490633Y-128156607D01*
X114487334Y-128162320D01*
X114487331Y-128162325D01*
X114468192Y-128195475D01*
X114400401Y-128312893D01*
X114398359Y-128319175D01*
X114398359Y-128319177D01*
X114387991Y-128351089D01*
X114344635Y-128484525D01*
X114343945Y-128491088D01*
X114343945Y-128491089D01*
X114341176Y-128517435D01*
X114325771Y-128664000D01*
X110296672Y-128664000D01*
X110305613Y-128657504D01*
X110426367Y-128523393D01*
X110516599Y-128367107D01*
X110572365Y-128195475D01*
X110591229Y-128016000D01*
X110572365Y-127836525D01*
X110516599Y-127664893D01*
X110426367Y-127508607D01*
X110305613Y-127374496D01*
X110159615Y-127268422D01*
X109994752Y-127195020D01*
X109988299Y-127193648D01*
X109988295Y-127193647D01*
X109824689Y-127158872D01*
X109824684Y-127158871D01*
X109818232Y-127157500D01*
X109637768Y-127157500D01*
X109631316Y-127158871D01*
X109631310Y-127158872D01*
X109467704Y-127193647D01*
X109467697Y-127193649D01*
X109461248Y-127195020D01*
X109455218Y-127197704D01*
X109455217Y-127197705D01*
X109302416Y-127265737D01*
X109302414Y-127265738D01*
X109296386Y-127268422D01*
X109291045Y-127272302D01*
X109291044Y-127272303D01*
X109155731Y-127370613D01*
X109155728Y-127370614D01*
X109150387Y-127374496D01*
X109145970Y-127379401D01*
X109145965Y-127379406D01*
X109034052Y-127503699D01*
X109029633Y-127508607D01*
X109026334Y-127514320D01*
X109026331Y-127514325D01*
X108942705Y-127659170D01*
X108939401Y-127664893D01*
X108937359Y-127671175D01*
X108937359Y-127671177D01*
X108893270Y-127806872D01*
X108883635Y-127836525D01*
X108882945Y-127843088D01*
X108882945Y-127843089D01*
X108875237Y-127916422D01*
X108864771Y-128016000D01*
X100500000Y-128016000D01*
X100500000Y-125727565D01*
X104086251Y-125727565D01*
X104086486Y-125738943D01*
X104129400Y-125908408D01*
X104132770Y-125918223D01*
X104218988Y-126114778D01*
X104223931Y-126123913D01*
X104341322Y-126303593D01*
X104347710Y-126311799D01*
X104493067Y-126469700D01*
X104500711Y-126476737D01*
X104670088Y-126608568D01*
X104678781Y-126614247D01*
X104867542Y-126716400D01*
X104877059Y-126720575D01*
X105080057Y-126790264D01*
X105090127Y-126792814D01*
X105151961Y-126803132D01*
X105163098Y-126802556D01*
X105165500Y-126791664D01*
X105165500Y-125741590D01*
X105161993Y-125728506D01*
X105148910Y-125725000D01*
X104097340Y-125725000D01*
X104086251Y-125727565D01*
X100500000Y-125727565D01*
X100500000Y-122931000D01*
X104056344Y-122931000D01*
X104056774Y-122936189D01*
X104072150Y-123121754D01*
X104074936Y-123155368D01*
X104130204Y-123373616D01*
X104132297Y-123378389D01*
X104132299Y-123378393D01*
X104158302Y-123437674D01*
X104220640Y-123579791D01*
X104343778Y-123768268D01*
X104386442Y-123814613D01*
X104492727Y-123930069D01*
X104492731Y-123930073D01*
X104496260Y-123933906D01*
X104673924Y-124072189D01*
X104678500Y-124074665D01*
X104678504Y-124074668D01*
X104678510Y-124074671D01*
X104707705Y-124090470D01*
X104755976Y-124136784D01*
X104773737Y-124201281D01*
X104755979Y-124265779D01*
X104707709Y-124312096D01*
X104678785Y-124327749D01*
X104670088Y-124333431D01*
X104500711Y-124465262D01*
X104493067Y-124472299D01*
X104347710Y-124630200D01*
X104341322Y-124638406D01*
X104223931Y-124818086D01*
X104218988Y-124827221D01*
X104132770Y-125023776D01*
X104129400Y-125033591D01*
X104086486Y-125203056D01*
X104086251Y-125214434D01*
X104097340Y-125217000D01*
X105547500Y-125217000D01*
X105610500Y-125233881D01*
X105656619Y-125280000D01*
X105673500Y-125343000D01*
X105673500Y-126791664D01*
X105675901Y-126802556D01*
X105687038Y-126803132D01*
X105748872Y-126792814D01*
X105758942Y-126790264D01*
X105961940Y-126720575D01*
X105971457Y-126716400D01*
X106160218Y-126614247D01*
X106168911Y-126608568D01*
X106338288Y-126476737D01*
X106345932Y-126469700D01*
X106491289Y-126311799D01*
X106497681Y-126303587D01*
X106583718Y-126171899D01*
X106629232Y-126130000D01*
X106689201Y-126114814D01*
X106749170Y-126130000D01*
X106794683Y-126171898D01*
X106883778Y-126308268D01*
X106887306Y-126312100D01*
X107032727Y-126470069D01*
X107032731Y-126470073D01*
X107036260Y-126473906D01*
X107213924Y-126612189D01*
X107411926Y-126719342D01*
X107416855Y-126721034D01*
X107416857Y-126721035D01*
X107518395Y-126755893D01*
X107624865Y-126792444D01*
X107846931Y-126829500D01*
X108066858Y-126829500D01*
X108072069Y-126829500D01*
X108294135Y-126792444D01*
X108507074Y-126719342D01*
X108705076Y-126612189D01*
X108882740Y-126473906D01*
X109035222Y-126308268D01*
X109158360Y-126119791D01*
X109248796Y-125913616D01*
X109304064Y-125695368D01*
X109322656Y-125471000D01*
X109304064Y-125246632D01*
X109248796Y-125028384D01*
X109158360Y-124822209D01*
X109035222Y-124633732D01*
X108974456Y-124567723D01*
X108886272Y-124471930D01*
X108886267Y-124471925D01*
X108882740Y-124468094D01*
X108872341Y-124460000D01*
X145948771Y-124460000D01*
X145967635Y-124639475D01*
X146023401Y-124811107D01*
X146113633Y-124967393D01*
X146234387Y-125101504D01*
X146380385Y-125207578D01*
X146545248Y-125280980D01*
X146721768Y-125318500D01*
X146895629Y-125318500D01*
X146902232Y-125318500D01*
X147078752Y-125280980D01*
X147243615Y-125207578D01*
X147389613Y-125101504D01*
X147510367Y-124967393D01*
X147600599Y-124811107D01*
X147656365Y-124639475D01*
X147675229Y-124460000D01*
X147656365Y-124280525D01*
X147600599Y-124108893D01*
X147510367Y-123952607D01*
X147389613Y-123818496D01*
X147243615Y-123712422D01*
X147078752Y-123639020D01*
X147072299Y-123637648D01*
X147072295Y-123637647D01*
X146908689Y-123602872D01*
X146908684Y-123602871D01*
X146902232Y-123601500D01*
X146721768Y-123601500D01*
X146715316Y-123602871D01*
X146715310Y-123602872D01*
X146551704Y-123637647D01*
X146551697Y-123637649D01*
X146545248Y-123639020D01*
X146539218Y-123641704D01*
X146539217Y-123641705D01*
X146386416Y-123709737D01*
X146386414Y-123709738D01*
X146380386Y-123712422D01*
X146375045Y-123716302D01*
X146375044Y-123716303D01*
X146239731Y-123814613D01*
X146239728Y-123814614D01*
X146234387Y-123818496D01*
X146229970Y-123823401D01*
X146229965Y-123823406D01*
X146118052Y-123947699D01*
X146113633Y-123952607D01*
X146110334Y-123958320D01*
X146110331Y-123958325D01*
X146034038Y-124090469D01*
X146023401Y-124108893D01*
X146021359Y-124115175D01*
X146021359Y-124115177D01*
X145972426Y-124265780D01*
X145967635Y-124280525D01*
X145966945Y-124287088D01*
X145966945Y-124287089D01*
X145964346Y-124311813D01*
X145948771Y-124460000D01*
X108872341Y-124460000D01*
X108705076Y-124329811D01*
X108700497Y-124327333D01*
X108700494Y-124327331D01*
X108671818Y-124311812D01*
X108623547Y-124265494D01*
X108605789Y-124200996D01*
X108623550Y-124136499D01*
X108671821Y-124090185D01*
X108705076Y-124072189D01*
X108882740Y-123933906D01*
X109035222Y-123768268D01*
X109158360Y-123579791D01*
X109248796Y-123373616D01*
X109304064Y-123155368D01*
X109322242Y-122936000D01*
X128676771Y-122936000D01*
X128695635Y-123115475D01*
X128751401Y-123287107D01*
X128841633Y-123443393D01*
X128962387Y-123577504D01*
X129108385Y-123683578D01*
X129273248Y-123756980D01*
X129449768Y-123794500D01*
X129623629Y-123794500D01*
X129630232Y-123794500D01*
X129806752Y-123756980D01*
X129971615Y-123683578D01*
X130117613Y-123577504D01*
X130238367Y-123443393D01*
X130328599Y-123287107D01*
X130384365Y-123115475D01*
X130403229Y-122936000D01*
X156108771Y-122936000D01*
X156127635Y-123115475D01*
X156183401Y-123287107D01*
X156273633Y-123443393D01*
X156394387Y-123577504D01*
X156540385Y-123683578D01*
X156705248Y-123756980D01*
X156881768Y-123794500D01*
X157055629Y-123794500D01*
X157062232Y-123794500D01*
X157238752Y-123756980D01*
X157403615Y-123683578D01*
X157549613Y-123577504D01*
X157670367Y-123443393D01*
X157760599Y-123287107D01*
X157816365Y-123115475D01*
X157835229Y-122936000D01*
X157816365Y-122756525D01*
X157760599Y-122584893D01*
X157670367Y-122428607D01*
X157549613Y-122294496D01*
X157403615Y-122188422D01*
X157238752Y-122115020D01*
X157232299Y-122113648D01*
X157232295Y-122113647D01*
X157068689Y-122078872D01*
X157068684Y-122078871D01*
X157062232Y-122077500D01*
X156881768Y-122077500D01*
X156875316Y-122078871D01*
X156875310Y-122078872D01*
X156711704Y-122113647D01*
X156711697Y-122113649D01*
X156705248Y-122115020D01*
X156699218Y-122117704D01*
X156699217Y-122117705D01*
X156546416Y-122185737D01*
X156546414Y-122185738D01*
X156540386Y-122188422D01*
X156535045Y-122192302D01*
X156535044Y-122192303D01*
X156399731Y-122290613D01*
X156399728Y-122290614D01*
X156394387Y-122294496D01*
X156389970Y-122299401D01*
X156389965Y-122299406D01*
X156285801Y-122415093D01*
X156273633Y-122428607D01*
X156270334Y-122434320D01*
X156270331Y-122434325D01*
X156194663Y-122565386D01*
X156183401Y-122584893D01*
X156181359Y-122591175D01*
X156181359Y-122591177D01*
X156132686Y-122740980D01*
X156127635Y-122756525D01*
X156108771Y-122936000D01*
X130403229Y-122936000D01*
X130386429Y-122776171D01*
X130398492Y-122707765D01*
X130444970Y-122656146D01*
X130511740Y-122637000D01*
X130639629Y-122637000D01*
X130646232Y-122637000D01*
X130822752Y-122599480D01*
X130987615Y-122526078D01*
X131133613Y-122420004D01*
X131254367Y-122285893D01*
X131344599Y-122129607D01*
X131400365Y-121957975D01*
X131419229Y-121778500D01*
X131418539Y-121771935D01*
X131418539Y-121771930D01*
X131415422Y-121742281D01*
X131422633Y-121685189D01*
X131454477Y-121637258D01*
X131504312Y-121608485D01*
X131561744Y-121604871D01*
X131614791Y-121627170D01*
X131648385Y-121651578D01*
X131813248Y-121724980D01*
X131989768Y-121762500D01*
X132163629Y-121762500D01*
X132170232Y-121762500D01*
X132346752Y-121724980D01*
X132511615Y-121651578D01*
X132657613Y-121545504D01*
X132778367Y-121411393D01*
X132868599Y-121255107D01*
X132924365Y-121083475D01*
X132943229Y-120904000D01*
X138836771Y-120904000D01*
X138855635Y-121083475D01*
X138911401Y-121255107D01*
X138978133Y-121370691D01*
X138989321Y-121390069D01*
X139001633Y-121411393D01*
X139122387Y-121545504D01*
X139268385Y-121651578D01*
X139433248Y-121724980D01*
X139609768Y-121762500D01*
X139783629Y-121762500D01*
X139790232Y-121762500D01*
X139966752Y-121724980D01*
X140131615Y-121651578D01*
X140277613Y-121545504D01*
X140397820Y-121412000D01*
X166776771Y-121412000D01*
X166795635Y-121591475D01*
X166797674Y-121597752D01*
X166797675Y-121597754D01*
X166818132Y-121660715D01*
X166851401Y-121763107D01*
X166941633Y-121919393D01*
X167062387Y-122053504D01*
X167208385Y-122159578D01*
X167373248Y-122232980D01*
X167549768Y-122270500D01*
X167723629Y-122270500D01*
X167730232Y-122270500D01*
X167906752Y-122232980D01*
X168071615Y-122159578D01*
X168217613Y-122053504D01*
X168338367Y-121919393D01*
X168428599Y-121763107D01*
X168484365Y-121591475D01*
X168503229Y-121412000D01*
X168484365Y-121232525D01*
X168428599Y-121060893D01*
X168338367Y-120904607D01*
X168217613Y-120770496D01*
X168071615Y-120664422D01*
X167906752Y-120591020D01*
X167900299Y-120589648D01*
X167900295Y-120589647D01*
X167736689Y-120554872D01*
X167736684Y-120554871D01*
X167730232Y-120553500D01*
X167549768Y-120553500D01*
X167543316Y-120554871D01*
X167543310Y-120554872D01*
X167379704Y-120589647D01*
X167379697Y-120589649D01*
X167373248Y-120591020D01*
X167367218Y-120593704D01*
X167367217Y-120593705D01*
X167214416Y-120661737D01*
X167214414Y-120661738D01*
X167208386Y-120664422D01*
X167203045Y-120668302D01*
X167203044Y-120668303D01*
X167067731Y-120766613D01*
X167067728Y-120766614D01*
X167062387Y-120770496D01*
X167057970Y-120775401D01*
X167057965Y-120775406D01*
X166946052Y-120899699D01*
X166941633Y-120904607D01*
X166938334Y-120910320D01*
X166938331Y-120910325D01*
X166863584Y-121039791D01*
X166851401Y-121060893D01*
X166849359Y-121067175D01*
X166849359Y-121067177D01*
X166816036Y-121169737D01*
X166795635Y-121232525D01*
X166776771Y-121412000D01*
X140397820Y-121412000D01*
X140398367Y-121411393D01*
X140488599Y-121255107D01*
X140544365Y-121083475D01*
X140563229Y-120904000D01*
X140544365Y-120724525D01*
X140488599Y-120552893D01*
X140398367Y-120396607D01*
X140277613Y-120262496D01*
X140131615Y-120156422D01*
X139966752Y-120083020D01*
X139960299Y-120081648D01*
X139960295Y-120081647D01*
X139796689Y-120046872D01*
X139796684Y-120046871D01*
X139790232Y-120045500D01*
X139609768Y-120045500D01*
X139603316Y-120046871D01*
X139603310Y-120046872D01*
X139439704Y-120081647D01*
X139439697Y-120081649D01*
X139433248Y-120083020D01*
X139427218Y-120085704D01*
X139427217Y-120085705D01*
X139274416Y-120153737D01*
X139274414Y-120153738D01*
X139268386Y-120156422D01*
X139263045Y-120160302D01*
X139263044Y-120160303D01*
X139127731Y-120258613D01*
X139127728Y-120258614D01*
X139122387Y-120262496D01*
X139117970Y-120267401D01*
X139117965Y-120267406D01*
X139006052Y-120391699D01*
X139001633Y-120396607D01*
X138998334Y-120402320D01*
X138998331Y-120402325D01*
X138930969Y-120519000D01*
X138911401Y-120552893D01*
X138909359Y-120559175D01*
X138909359Y-120559177D01*
X138876036Y-120661737D01*
X138855635Y-120724525D01*
X138836771Y-120904000D01*
X132943229Y-120904000D01*
X132924365Y-120724525D01*
X132868599Y-120552893D01*
X132778367Y-120396607D01*
X132657613Y-120262496D01*
X132511615Y-120156422D01*
X132346752Y-120083020D01*
X132340299Y-120081648D01*
X132340295Y-120081647D01*
X132176689Y-120046872D01*
X132176684Y-120046871D01*
X132170232Y-120045500D01*
X131989768Y-120045500D01*
X131983316Y-120046871D01*
X131983310Y-120046872D01*
X131819704Y-120081647D01*
X131819697Y-120081649D01*
X131813248Y-120083020D01*
X131807218Y-120085704D01*
X131807217Y-120085705D01*
X131654416Y-120153737D01*
X131654414Y-120153738D01*
X131648386Y-120156422D01*
X131643045Y-120160302D01*
X131643044Y-120160303D01*
X131507731Y-120258613D01*
X131507728Y-120258614D01*
X131502387Y-120262496D01*
X131497970Y-120267401D01*
X131497965Y-120267406D01*
X131386052Y-120391699D01*
X131381633Y-120396607D01*
X131378334Y-120402320D01*
X131378331Y-120402325D01*
X131310969Y-120519000D01*
X131291401Y-120552893D01*
X131289359Y-120559175D01*
X131289359Y-120559177D01*
X131256036Y-120661737D01*
X131235635Y-120724525D01*
X131216771Y-120904000D01*
X131217461Y-120910565D01*
X131220578Y-120940221D01*
X131213366Y-120997312D01*
X131181521Y-121045242D01*
X131131686Y-121074014D01*
X131074255Y-121077628D01*
X131021207Y-121055328D01*
X131017782Y-121052840D01*
X130987615Y-121030922D01*
X130822752Y-120957520D01*
X130816299Y-120956148D01*
X130816295Y-120956147D01*
X130652689Y-120921372D01*
X130652684Y-120921371D01*
X130646232Y-120920000D01*
X130465768Y-120920000D01*
X130459316Y-120921371D01*
X130459310Y-120921372D01*
X130295704Y-120956147D01*
X130295697Y-120956149D01*
X130289248Y-120957520D01*
X130283218Y-120960204D01*
X130283217Y-120960205D01*
X130130416Y-121028237D01*
X130130414Y-121028238D01*
X130124386Y-121030922D01*
X130119045Y-121034802D01*
X130119044Y-121034803D01*
X129983731Y-121133113D01*
X129983728Y-121133114D01*
X129978387Y-121136996D01*
X129973970Y-121141901D01*
X129973965Y-121141906D01*
X129896205Y-121228268D01*
X129857633Y-121271107D01*
X129854334Y-121276820D01*
X129854331Y-121276825D01*
X129772636Y-121418325D01*
X129767401Y-121427393D01*
X129765359Y-121433675D01*
X129765359Y-121433677D01*
X129719384Y-121575177D01*
X129711635Y-121599025D01*
X129710945Y-121605588D01*
X129710945Y-121605589D01*
X129694597Y-121761127D01*
X129692771Y-121778500D01*
X129693461Y-121785065D01*
X129709570Y-121938329D01*
X129697508Y-122006735D01*
X129651030Y-122058354D01*
X129584260Y-122077500D01*
X129449768Y-122077500D01*
X129443316Y-122078871D01*
X129443310Y-122078872D01*
X129279704Y-122113647D01*
X129279697Y-122113649D01*
X129273248Y-122115020D01*
X129267218Y-122117704D01*
X129267217Y-122117705D01*
X129114416Y-122185737D01*
X129114414Y-122185738D01*
X129108386Y-122188422D01*
X129103045Y-122192302D01*
X129103044Y-122192303D01*
X128967731Y-122290613D01*
X128967728Y-122290614D01*
X128962387Y-122294496D01*
X128957970Y-122299401D01*
X128957965Y-122299406D01*
X128853801Y-122415093D01*
X128841633Y-122428607D01*
X128838334Y-122434320D01*
X128838331Y-122434325D01*
X128762663Y-122565386D01*
X128751401Y-122584893D01*
X128749359Y-122591175D01*
X128749359Y-122591177D01*
X128700686Y-122740980D01*
X128695635Y-122756525D01*
X128676771Y-122936000D01*
X109322242Y-122936000D01*
X109322656Y-122931000D01*
X109304064Y-122706632D01*
X109248796Y-122488384D01*
X109158360Y-122282209D01*
X109035222Y-122093732D01*
X108910248Y-121957975D01*
X108886272Y-121931930D01*
X108886267Y-121931925D01*
X108882740Y-121928094D01*
X108872341Y-121920000D01*
X112928771Y-121920000D01*
X112947635Y-122099475D01*
X112949674Y-122105752D01*
X112949675Y-122105754D01*
X112975663Y-122185737D01*
X113003401Y-122271107D01*
X113070133Y-122386691D01*
X113086531Y-122415093D01*
X113093633Y-122427393D01*
X113214387Y-122561504D01*
X113360385Y-122667578D01*
X113525248Y-122740980D01*
X113701768Y-122778500D01*
X113875629Y-122778500D01*
X113882232Y-122778500D01*
X114058752Y-122740980D01*
X114223615Y-122667578D01*
X114369613Y-122561504D01*
X114490367Y-122427393D01*
X114580599Y-122271107D01*
X114636365Y-122099475D01*
X114655229Y-121920000D01*
X114636365Y-121740525D01*
X114580599Y-121568893D01*
X114490367Y-121412607D01*
X114369613Y-121278496D01*
X114223615Y-121172422D01*
X114058752Y-121099020D01*
X114052299Y-121097648D01*
X114052295Y-121097647D01*
X113888689Y-121062872D01*
X113888684Y-121062871D01*
X113882232Y-121061500D01*
X113701768Y-121061500D01*
X113695316Y-121062871D01*
X113695310Y-121062872D01*
X113531704Y-121097647D01*
X113531697Y-121097649D01*
X113525248Y-121099020D01*
X113519218Y-121101704D01*
X113519217Y-121101705D01*
X113366416Y-121169737D01*
X113366414Y-121169738D01*
X113360386Y-121172422D01*
X113355045Y-121176302D01*
X113355044Y-121176303D01*
X113219731Y-121274613D01*
X113219728Y-121274614D01*
X113214387Y-121278496D01*
X113209970Y-121283401D01*
X113209965Y-121283406D01*
X113099875Y-121405674D01*
X113093633Y-121412607D01*
X113090334Y-121418320D01*
X113090331Y-121418325D01*
X113014201Y-121550187D01*
X113003401Y-121568893D01*
X113001359Y-121575175D01*
X113001359Y-121575177D01*
X112952518Y-121725498D01*
X112947635Y-121740525D01*
X112946945Y-121747088D01*
X112946945Y-121747089D01*
X112942716Y-121787328D01*
X112928771Y-121920000D01*
X108872341Y-121920000D01*
X108705076Y-121789811D01*
X108700502Y-121787336D01*
X108700495Y-121787331D01*
X108672044Y-121771935D01*
X108671819Y-121771813D01*
X108623548Y-121725498D01*
X108605789Y-121661000D01*
X108623548Y-121596502D01*
X108671820Y-121550186D01*
X108672349Y-121549900D01*
X108705076Y-121532189D01*
X108882740Y-121393906D01*
X109035222Y-121228268D01*
X109158360Y-121039791D01*
X109248796Y-120833616D01*
X109304064Y-120615368D01*
X109322656Y-120391000D01*
X109304064Y-120166632D01*
X109248796Y-119948384D01*
X109158360Y-119742209D01*
X109035222Y-119553732D01*
X108974456Y-119487723D01*
X108886272Y-119391930D01*
X108886267Y-119391925D01*
X108882740Y-119388094D01*
X108872341Y-119380000D01*
X133248771Y-119380000D01*
X133267635Y-119559475D01*
X133323401Y-119731107D01*
X133413633Y-119887393D01*
X133534387Y-120021504D01*
X133680385Y-120127578D01*
X133845248Y-120200980D01*
X134021768Y-120238500D01*
X134195629Y-120238500D01*
X134202232Y-120238500D01*
X134378752Y-120200980D01*
X134543615Y-120127578D01*
X134689613Y-120021504D01*
X134810367Y-119887393D01*
X134900599Y-119731107D01*
X134956365Y-119559475D01*
X134975229Y-119380000D01*
X142900771Y-119380000D01*
X142919635Y-119559475D01*
X142975401Y-119731107D01*
X143065633Y-119887393D01*
X143186387Y-120021504D01*
X143332385Y-120127578D01*
X143497248Y-120200980D01*
X143673768Y-120238500D01*
X143847629Y-120238500D01*
X143854232Y-120238500D01*
X144030752Y-120200980D01*
X144195615Y-120127578D01*
X144341613Y-120021504D01*
X144462367Y-119887393D01*
X144552599Y-119731107D01*
X144608365Y-119559475D01*
X144627229Y-119380000D01*
X144608365Y-119200525D01*
X144552599Y-119028893D01*
X144462367Y-118872607D01*
X144341613Y-118738496D01*
X144195615Y-118632422D01*
X144030752Y-118559020D01*
X144024299Y-118557648D01*
X144024295Y-118557647D01*
X143860689Y-118522872D01*
X143860684Y-118522871D01*
X143854232Y-118521500D01*
X143673768Y-118521500D01*
X143667316Y-118522871D01*
X143667310Y-118522872D01*
X143503704Y-118557647D01*
X143503697Y-118557649D01*
X143497248Y-118559020D01*
X143491218Y-118561704D01*
X143491217Y-118561705D01*
X143338416Y-118629737D01*
X143338414Y-118629738D01*
X143332386Y-118632422D01*
X143327045Y-118636302D01*
X143327044Y-118636303D01*
X143191731Y-118734613D01*
X143191728Y-118734614D01*
X143186387Y-118738496D01*
X143181970Y-118743401D01*
X143181965Y-118743406D01*
X143070052Y-118867699D01*
X143065633Y-118872607D01*
X143062334Y-118878320D01*
X143062331Y-118878325D01*
X142986201Y-119010187D01*
X142975401Y-119028893D01*
X142973359Y-119035175D01*
X142973359Y-119035177D01*
X142924518Y-119185498D01*
X142919635Y-119200525D01*
X142900771Y-119380000D01*
X134975229Y-119380000D01*
X134956365Y-119200525D01*
X134900599Y-119028893D01*
X134810367Y-118872607D01*
X134689613Y-118738496D01*
X134543615Y-118632422D01*
X134378752Y-118559020D01*
X134372299Y-118557648D01*
X134372295Y-118557647D01*
X134208689Y-118522872D01*
X134208684Y-118522871D01*
X134202232Y-118521500D01*
X134021768Y-118521500D01*
X134015316Y-118522871D01*
X134015310Y-118522872D01*
X133851704Y-118557647D01*
X133851697Y-118557649D01*
X133845248Y-118559020D01*
X133839218Y-118561704D01*
X133839217Y-118561705D01*
X133686416Y-118629737D01*
X133686414Y-118629738D01*
X133680386Y-118632422D01*
X133675045Y-118636302D01*
X133675044Y-118636303D01*
X133539731Y-118734613D01*
X133539728Y-118734614D01*
X133534387Y-118738496D01*
X133529970Y-118743401D01*
X133529965Y-118743406D01*
X133418052Y-118867699D01*
X133413633Y-118872607D01*
X133410334Y-118878320D01*
X133410331Y-118878325D01*
X133334201Y-119010187D01*
X133323401Y-119028893D01*
X133321359Y-119035175D01*
X133321359Y-119035177D01*
X133272518Y-119185498D01*
X133267635Y-119200525D01*
X133248771Y-119380000D01*
X108872341Y-119380000D01*
X108705076Y-119249811D01*
X108700502Y-119247336D01*
X108700495Y-119247331D01*
X108671820Y-119231814D01*
X108623548Y-119185498D01*
X108605789Y-119121000D01*
X108623548Y-119056502D01*
X108671820Y-119010186D01*
X108700490Y-118994671D01*
X108705076Y-118992189D01*
X108882740Y-118853906D01*
X109035222Y-118688268D01*
X109158360Y-118499791D01*
X109248796Y-118293616D01*
X109304064Y-118075368D01*
X109322656Y-117851000D01*
X109304064Y-117626632D01*
X109271790Y-117499187D01*
X114381850Y-117499187D01*
X114400714Y-117678662D01*
X114456480Y-117850294D01*
X114546712Y-118006580D01*
X114667466Y-118140691D01*
X114813464Y-118246765D01*
X114978327Y-118320167D01*
X115154847Y-118357687D01*
X115328708Y-118357687D01*
X115335311Y-118357687D01*
X115511831Y-118320167D01*
X115676694Y-118246765D01*
X115822692Y-118140691D01*
X115943446Y-118006580D01*
X116033678Y-117850294D01*
X116089444Y-117678662D01*
X116108308Y-117499187D01*
X116089444Y-117319712D01*
X116033678Y-117148080D01*
X115943446Y-116991794D01*
X115822692Y-116857683D01*
X115676694Y-116751609D01*
X115511831Y-116678207D01*
X115505378Y-116676835D01*
X115505374Y-116676834D01*
X115341768Y-116642059D01*
X115341763Y-116642058D01*
X115335311Y-116640687D01*
X115154847Y-116640687D01*
X115148395Y-116642058D01*
X115148389Y-116642059D01*
X114984783Y-116676834D01*
X114984776Y-116676836D01*
X114978327Y-116678207D01*
X114972297Y-116680891D01*
X114972296Y-116680892D01*
X114819495Y-116748924D01*
X114819493Y-116748925D01*
X114813465Y-116751609D01*
X114808124Y-116755489D01*
X114808123Y-116755490D01*
X114672810Y-116853800D01*
X114672807Y-116853801D01*
X114667466Y-116857683D01*
X114663049Y-116862588D01*
X114663044Y-116862593D01*
X114551131Y-116986886D01*
X114546712Y-116991794D01*
X114543413Y-116997507D01*
X114543410Y-116997512D01*
X114459784Y-117142357D01*
X114456480Y-117148080D01*
X114454438Y-117154362D01*
X114454438Y-117154364D01*
X114437342Y-117206982D01*
X114400714Y-117319712D01*
X114381850Y-117499187D01*
X109271790Y-117499187D01*
X109248796Y-117408384D01*
X109158360Y-117202209D01*
X109035222Y-117013732D01*
X108974456Y-116947723D01*
X108886272Y-116851930D01*
X108886267Y-116851925D01*
X108882740Y-116848094D01*
X108705076Y-116709811D01*
X108700502Y-116707336D01*
X108700495Y-116707331D01*
X108671820Y-116691814D01*
X108623548Y-116645498D01*
X108605789Y-116581000D01*
X108623548Y-116516502D01*
X108671820Y-116470186D01*
X108700490Y-116454671D01*
X108705076Y-116452189D01*
X108882740Y-116313906D01*
X109035222Y-116148268D01*
X109158360Y-115959791D01*
X109248796Y-115753616D01*
X109304064Y-115535368D01*
X109322656Y-115311000D01*
X109304064Y-115086632D01*
X109248796Y-114868384D01*
X109158360Y-114662209D01*
X109035222Y-114473732D01*
X108916180Y-114344419D01*
X108886272Y-114311930D01*
X108886267Y-114311925D01*
X108882740Y-114308094D01*
X108705076Y-114169811D01*
X108700497Y-114167333D01*
X108700494Y-114167331D01*
X108511659Y-114065139D01*
X108511656Y-114065137D01*
X108507074Y-114062658D01*
X108502150Y-114060967D01*
X108502142Y-114060964D01*
X108299065Y-113991248D01*
X108299059Y-113991246D01*
X108294135Y-113989556D01*
X108288998Y-113988698D01*
X108288995Y-113988698D01*
X108077206Y-113953357D01*
X108077203Y-113953356D01*
X108072069Y-113952500D01*
X107846931Y-113952500D01*
X107841797Y-113953356D01*
X107841793Y-113953357D01*
X107630004Y-113988698D01*
X107629998Y-113988699D01*
X107624865Y-113989556D01*
X107619943Y-113991245D01*
X107619934Y-113991248D01*
X107416857Y-114060964D01*
X107416844Y-114060969D01*
X107411926Y-114062658D01*
X107407347Y-114065135D01*
X107407340Y-114065139D01*
X107218505Y-114167331D01*
X107218497Y-114167336D01*
X107213924Y-114169811D01*
X107209813Y-114173010D01*
X107209811Y-114173012D01*
X107040378Y-114304888D01*
X107040372Y-114304893D01*
X107036260Y-114308094D01*
X107032737Y-114311920D01*
X107032726Y-114311931D01*
X106975254Y-114374362D01*
X106921781Y-114408761D01*
X106858320Y-114412671D01*
X106801030Y-114385095D01*
X106764498Y-114333056D01*
X106723537Y-114223236D01*
X106723536Y-114223235D01*
X106720389Y-114214796D01*
X106632761Y-114097739D01*
X106589213Y-114065139D01*
X106522917Y-114015510D01*
X106522914Y-114015508D01*
X106515704Y-114010111D01*
X106507266Y-114006964D01*
X106507263Y-114006962D01*
X106386080Y-113961763D01*
X106386078Y-113961762D01*
X106378701Y-113959011D01*
X106370873Y-113958169D01*
X106370867Y-113958168D01*
X106321488Y-113952860D01*
X106321485Y-113952859D01*
X106318138Y-113952500D01*
X104520862Y-113952500D01*
X104517515Y-113952859D01*
X104517511Y-113952860D01*
X104468132Y-113958168D01*
X104468125Y-113958169D01*
X104460299Y-113959011D01*
X104452923Y-113961761D01*
X104452919Y-113961763D01*
X104331736Y-114006962D01*
X104331730Y-114006965D01*
X104323296Y-114010111D01*
X104316088Y-114015506D01*
X104316082Y-114015510D01*
X104213450Y-114092340D01*
X104213446Y-114092343D01*
X104206239Y-114097739D01*
X104200843Y-114104946D01*
X104200840Y-114104950D01*
X104124010Y-114207582D01*
X104124006Y-114207588D01*
X104118611Y-114214796D01*
X104115465Y-114223230D01*
X104115462Y-114223236D01*
X104070263Y-114344419D01*
X104070261Y-114344423D01*
X104067511Y-114351799D01*
X104066669Y-114359625D01*
X104066668Y-114359632D01*
X104065085Y-114374362D01*
X104061000Y-114412362D01*
X104061000Y-116209638D01*
X104061359Y-116212985D01*
X104061360Y-116212988D01*
X104066668Y-116262367D01*
X104066669Y-116262373D01*
X104067511Y-116270201D01*
X104070262Y-116277578D01*
X104070263Y-116277580D01*
X104115462Y-116398763D01*
X104115464Y-116398766D01*
X104118611Y-116407204D01*
X104124008Y-116414414D01*
X104124010Y-116414417D01*
X104200431Y-116516502D01*
X104206239Y-116524261D01*
X104213450Y-116529659D01*
X104310964Y-116602658D01*
X104323296Y-116611889D01*
X104331735Y-116615036D01*
X104331736Y-116615037D01*
X104438813Y-116654975D01*
X104489147Y-116689539D01*
X104517321Y-116743709D01*
X104516718Y-116804764D01*
X104487482Y-116858368D01*
X104347705Y-117010207D01*
X104341322Y-117018406D01*
X104223931Y-117198086D01*
X104218988Y-117207221D01*
X104132770Y-117403776D01*
X104129400Y-117413591D01*
X104086486Y-117583056D01*
X104086251Y-117594434D01*
X104097340Y-117597000D01*
X105547500Y-117597000D01*
X105610500Y-117613881D01*
X105656619Y-117660000D01*
X105673500Y-117723000D01*
X105673500Y-120519000D01*
X105656619Y-120582000D01*
X105610500Y-120628119D01*
X105547500Y-120645000D01*
X104097340Y-120645000D01*
X104086251Y-120647565D01*
X104086486Y-120658943D01*
X104129400Y-120828408D01*
X104132770Y-120838223D01*
X104218988Y-121034778D01*
X104223931Y-121043913D01*
X104341322Y-121223593D01*
X104347710Y-121231799D01*
X104493067Y-121389700D01*
X104500711Y-121396737D01*
X104670088Y-121528568D01*
X104678781Y-121534247D01*
X104707706Y-121549901D01*
X104755978Y-121596217D01*
X104773737Y-121660715D01*
X104755978Y-121725212D01*
X104707707Y-121771528D01*
X104696201Y-121777755D01*
X104678500Y-121787334D01*
X104678494Y-121787337D01*
X104673924Y-121789811D01*
X104669813Y-121793010D01*
X104669811Y-121793012D01*
X104500378Y-121924888D01*
X104500372Y-121924893D01*
X104496260Y-121928094D01*
X104492737Y-121931919D01*
X104492727Y-121931930D01*
X104347306Y-122089899D01*
X104347302Y-122089902D01*
X104343778Y-122093732D01*
X104340930Y-122098090D01*
X104340927Y-122098095D01*
X104223492Y-122277843D01*
X104220640Y-122282209D01*
X104218548Y-122286978D01*
X104218546Y-122286982D01*
X104132299Y-122483606D01*
X104132296Y-122483614D01*
X104130204Y-122488384D01*
X104128923Y-122493440D01*
X104128922Y-122493445D01*
X104092917Y-122635627D01*
X104074936Y-122706632D01*
X104074506Y-122711820D01*
X104074505Y-122711827D01*
X104057409Y-122918147D01*
X104056344Y-122931000D01*
X100500000Y-122931000D01*
X100500000Y-120134434D01*
X104086251Y-120134434D01*
X104097340Y-120137000D01*
X105148910Y-120137000D01*
X105161993Y-120133493D01*
X105165500Y-120120410D01*
X105165500Y-118121590D01*
X105161993Y-118108506D01*
X105148910Y-118105000D01*
X104097340Y-118105000D01*
X104086251Y-118107565D01*
X104086486Y-118118943D01*
X104129400Y-118288408D01*
X104132770Y-118298223D01*
X104218988Y-118494778D01*
X104223931Y-118503913D01*
X104341322Y-118683593D01*
X104347710Y-118691799D01*
X104493067Y-118849700D01*
X104500711Y-118856737D01*
X104670088Y-118988568D01*
X104678785Y-118994250D01*
X104708233Y-119010187D01*
X104756504Y-119056503D01*
X104774263Y-119121000D01*
X104756504Y-119185497D01*
X104708233Y-119231813D01*
X104678785Y-119247749D01*
X104670088Y-119253431D01*
X104500711Y-119385262D01*
X104493067Y-119392299D01*
X104347710Y-119550200D01*
X104341322Y-119558406D01*
X104223931Y-119738086D01*
X104218988Y-119747221D01*
X104132770Y-119943776D01*
X104129400Y-119953591D01*
X104086486Y-120123056D01*
X104086251Y-120134434D01*
X100500000Y-120134434D01*
X100500000Y-111055833D01*
X120372000Y-111055833D01*
X120372205Y-111060930D01*
X120386666Y-111240061D01*
X120388289Y-111250050D01*
X120445675Y-111482872D01*
X120448878Y-111492466D01*
X120542862Y-111713054D01*
X120547570Y-111722026D01*
X120675724Y-111924684D01*
X120681805Y-111932776D01*
X120840802Y-112112246D01*
X120848111Y-112119267D01*
X121033834Y-112270906D01*
X121042179Y-112276667D01*
X121249819Y-112396547D01*
X121258980Y-112400894D01*
X121483165Y-112485916D01*
X121492896Y-112488735D01*
X121652273Y-112521272D01*
X121663526Y-112521046D01*
X121666000Y-112510062D01*
X121666000Y-112506649D01*
X122174000Y-112506649D01*
X122177902Y-112520122D01*
X122191749Y-112522372D01*
X122225597Y-112518263D01*
X122235532Y-112516234D01*
X122465836Y-112449526D01*
X122475298Y-112445938D01*
X122691936Y-112343143D01*
X122700689Y-112338089D01*
X122898033Y-112201871D01*
X122905871Y-112195472D01*
X123078803Y-112029368D01*
X123085511Y-112021797D01*
X123229566Y-111830096D01*
X123234966Y-111821557D01*
X123346403Y-111609230D01*
X123350369Y-111599921D01*
X123426297Y-111372490D01*
X123428723Y-111362645D01*
X123467185Y-111125978D01*
X123468000Y-111115891D01*
X123468000Y-111055833D01*
X125452000Y-111055833D01*
X125452205Y-111060930D01*
X125466666Y-111240061D01*
X125468289Y-111250050D01*
X125525675Y-111482872D01*
X125528878Y-111492466D01*
X125622862Y-111713054D01*
X125627570Y-111722026D01*
X125755724Y-111924684D01*
X125761805Y-111932776D01*
X125920802Y-112112246D01*
X125928111Y-112119267D01*
X126113834Y-112270906D01*
X126122179Y-112276667D01*
X126329819Y-112396547D01*
X126338980Y-112400894D01*
X126563165Y-112485916D01*
X126572896Y-112488735D01*
X126732273Y-112521272D01*
X126743526Y-112521046D01*
X126746000Y-112510062D01*
X126746000Y-112506649D01*
X127254000Y-112506649D01*
X127257902Y-112520122D01*
X127271749Y-112522372D01*
X127305597Y-112518263D01*
X127315532Y-112516234D01*
X127545836Y-112449526D01*
X127555298Y-112445938D01*
X127771936Y-112343143D01*
X127780689Y-112338089D01*
X127978033Y-112201871D01*
X127985871Y-112195472D01*
X128158803Y-112029368D01*
X128165511Y-112021797D01*
X128309566Y-111830096D01*
X128314966Y-111821557D01*
X128426403Y-111609230D01*
X128430369Y-111599921D01*
X128506297Y-111372490D01*
X128508723Y-111362645D01*
X128547185Y-111125978D01*
X128548000Y-111115891D01*
X128548000Y-111058407D01*
X130531500Y-111058407D01*
X130531704Y-111060930D01*
X130531705Y-111060954D01*
X130546171Y-111240142D01*
X130546580Y-111245205D01*
X130547793Y-111250129D01*
X130547794Y-111250131D01*
X130576794Y-111367786D01*
X130606413Y-111487956D01*
X130608397Y-111492614D01*
X130608400Y-111492621D01*
X130658171Y-111609437D01*
X130704410Y-111717965D01*
X130838035Y-111929276D01*
X131003826Y-112116415D01*
X131197490Y-112274537D01*
X131201890Y-112277077D01*
X131201894Y-112277080D01*
X131266438Y-112314344D01*
X131414010Y-112399545D01*
X131647779Y-112488201D01*
X131892742Y-112538211D01*
X132142555Y-112548278D01*
X132390748Y-112518142D01*
X132630892Y-112448583D01*
X132856769Y-112341403D01*
X133062528Y-112199378D01*
X133242840Y-112026186D01*
X133393035Y-111826313D01*
X133509223Y-111604935D01*
X133588395Y-111367786D01*
X133628500Y-111121008D01*
X133628500Y-111058407D01*
X135611500Y-111058407D01*
X135611704Y-111060930D01*
X135611705Y-111060954D01*
X135626171Y-111240142D01*
X135626580Y-111245205D01*
X135627793Y-111250129D01*
X135627794Y-111250131D01*
X135656794Y-111367786D01*
X135686413Y-111487956D01*
X135688397Y-111492614D01*
X135688400Y-111492621D01*
X135738171Y-111609437D01*
X135784410Y-111717965D01*
X135918035Y-111929276D01*
X136083826Y-112116415D01*
X136277490Y-112274537D01*
X136281890Y-112277077D01*
X136281894Y-112277080D01*
X136346438Y-112314344D01*
X136494010Y-112399545D01*
X136727779Y-112488201D01*
X136972742Y-112538211D01*
X137222555Y-112548278D01*
X137470748Y-112518142D01*
X137710892Y-112448583D01*
X137936769Y-112341403D01*
X138142528Y-112199378D01*
X138322840Y-112026186D01*
X138473035Y-111826313D01*
X138589223Y-111604935D01*
X138668395Y-111367786D01*
X138708500Y-111121008D01*
X138708500Y-111058407D01*
X140691500Y-111058407D01*
X140691704Y-111060930D01*
X140691705Y-111060954D01*
X140706171Y-111240142D01*
X140706580Y-111245205D01*
X140707793Y-111250129D01*
X140707794Y-111250131D01*
X140736794Y-111367786D01*
X140766413Y-111487956D01*
X140768397Y-111492614D01*
X140768400Y-111492621D01*
X140818171Y-111609437D01*
X140864410Y-111717965D01*
X140998035Y-111929276D01*
X141163826Y-112116415D01*
X141357490Y-112274537D01*
X141361890Y-112277077D01*
X141361894Y-112277080D01*
X141426438Y-112314344D01*
X141574010Y-112399545D01*
X141807779Y-112488201D01*
X142052742Y-112538211D01*
X142302555Y-112548278D01*
X142550748Y-112518142D01*
X142790892Y-112448583D01*
X143016769Y-112341403D01*
X143222528Y-112199378D01*
X143402840Y-112026186D01*
X143553035Y-111826313D01*
X143669223Y-111604935D01*
X143748395Y-111367786D01*
X143788500Y-111121008D01*
X143788500Y-111058407D01*
X145771500Y-111058407D01*
X145771704Y-111060930D01*
X145771705Y-111060954D01*
X145786171Y-111240142D01*
X145786580Y-111245205D01*
X145787793Y-111250129D01*
X145787794Y-111250131D01*
X145816794Y-111367786D01*
X145846413Y-111487956D01*
X145848397Y-111492614D01*
X145848400Y-111492621D01*
X145898171Y-111609437D01*
X145944410Y-111717965D01*
X146078035Y-111929276D01*
X146243826Y-112116415D01*
X146437490Y-112274537D01*
X146441890Y-112277077D01*
X146441894Y-112277080D01*
X146506438Y-112314344D01*
X146654010Y-112399545D01*
X146887779Y-112488201D01*
X147132742Y-112538211D01*
X147382555Y-112548278D01*
X147630748Y-112518142D01*
X147870892Y-112448583D01*
X148096769Y-112341403D01*
X148302528Y-112199378D01*
X148482840Y-112026186D01*
X148633035Y-111826313D01*
X148749223Y-111604935D01*
X148828395Y-111367786D01*
X148868500Y-111121008D01*
X148868500Y-111058407D01*
X150851500Y-111058407D01*
X150851704Y-111060930D01*
X150851705Y-111060954D01*
X150866171Y-111240142D01*
X150866580Y-111245205D01*
X150867793Y-111250129D01*
X150867794Y-111250131D01*
X150896794Y-111367786D01*
X150926413Y-111487956D01*
X150928397Y-111492614D01*
X150928400Y-111492621D01*
X150978171Y-111609437D01*
X151024410Y-111717965D01*
X151158035Y-111929276D01*
X151323826Y-112116415D01*
X151517490Y-112274537D01*
X151521890Y-112277077D01*
X151521894Y-112277080D01*
X151586438Y-112314344D01*
X151734010Y-112399545D01*
X151967779Y-112488201D01*
X152212742Y-112538211D01*
X152462555Y-112548278D01*
X152710748Y-112518142D01*
X152950892Y-112448583D01*
X153176769Y-112341403D01*
X153382528Y-112199378D01*
X153562840Y-112026186D01*
X153705345Y-111836546D01*
X155931500Y-111836546D01*
X155931824Y-111839724D01*
X155931825Y-111839730D01*
X155941361Y-111933072D01*
X155942113Y-111940427D01*
X155944274Y-111946950D01*
X155944275Y-111946952D01*
X155971584Y-112029368D01*
X155997885Y-112108739D01*
X156001732Y-112114976D01*
X156001735Y-112114982D01*
X156087116Y-112253404D01*
X156090970Y-112259652D01*
X156216348Y-112385030D01*
X156274636Y-112420982D01*
X156361017Y-112474264D01*
X156361019Y-112474265D01*
X156367261Y-112478115D01*
X156535573Y-112533887D01*
X156639454Y-112544500D01*
X158317341Y-112544500D01*
X158320546Y-112544500D01*
X158424427Y-112533887D01*
X158592739Y-112478115D01*
X158743652Y-112385030D01*
X158869030Y-112259652D01*
X158962115Y-112108739D01*
X159017887Y-111940427D01*
X159028500Y-111836546D01*
X159028500Y-109806500D01*
X164465271Y-109806500D01*
X164484135Y-109985975D01*
X164539901Y-110157607D01*
X164630133Y-110313893D01*
X164750887Y-110448004D01*
X164896885Y-110554078D01*
X165061748Y-110627480D01*
X165238268Y-110665000D01*
X165412129Y-110665000D01*
X165418732Y-110665000D01*
X165595252Y-110627480D01*
X165760115Y-110554078D01*
X165906113Y-110448004D01*
X166026867Y-110313893D01*
X166117099Y-110157607D01*
X166172865Y-109985975D01*
X166191729Y-109806500D01*
X166172865Y-109627025D01*
X166117099Y-109455393D01*
X166026867Y-109299107D01*
X165906113Y-109164996D01*
X165760115Y-109058922D01*
X165595252Y-108985520D01*
X165588799Y-108984148D01*
X165588795Y-108984147D01*
X165425189Y-108949372D01*
X165425184Y-108949371D01*
X165418732Y-108948000D01*
X165238268Y-108948000D01*
X165231816Y-108949371D01*
X165231810Y-108949372D01*
X165068204Y-108984147D01*
X165068197Y-108984149D01*
X165061748Y-108985520D01*
X165055718Y-108988204D01*
X165055717Y-108988205D01*
X164902916Y-109056237D01*
X164902914Y-109056238D01*
X164896886Y-109058922D01*
X164891545Y-109062802D01*
X164891544Y-109062803D01*
X164756231Y-109161113D01*
X164756228Y-109161114D01*
X164750887Y-109164996D01*
X164746470Y-109169901D01*
X164746465Y-109169906D01*
X164690685Y-109231857D01*
X164630133Y-109299107D01*
X164626834Y-109304820D01*
X164626831Y-109304825D01*
X164564034Y-109413593D01*
X164539901Y-109455393D01*
X164484135Y-109627025D01*
X164465271Y-109806500D01*
X159028500Y-109806500D01*
X159028500Y-108635454D01*
X159017887Y-108531573D01*
X158962115Y-108363261D01*
X158957380Y-108355585D01*
X158872883Y-108218595D01*
X158869030Y-108212348D01*
X158743652Y-108086970D01*
X158717195Y-108070651D01*
X158598982Y-107997735D01*
X158598976Y-107997732D01*
X158592739Y-107993885D01*
X158585777Y-107991578D01*
X158585775Y-107991577D01*
X158430952Y-107940275D01*
X158430950Y-107940274D01*
X158424427Y-107938113D01*
X158417590Y-107937414D01*
X158417588Y-107937414D01*
X158323730Y-107927825D01*
X158323724Y-107927824D01*
X158320546Y-107927500D01*
X156639454Y-107927500D01*
X156636276Y-107927824D01*
X156636269Y-107927825D01*
X156542411Y-107937414D01*
X156542407Y-107937414D01*
X156535573Y-107938113D01*
X156529050Y-107940274D01*
X156529047Y-107940275D01*
X156374224Y-107991577D01*
X156374218Y-107991579D01*
X156367261Y-107993885D01*
X156361026Y-107997730D01*
X156361017Y-107997735D01*
X156222595Y-108083116D01*
X156222590Y-108083119D01*
X156216348Y-108086970D01*
X156211158Y-108092159D01*
X156211154Y-108092163D01*
X156096163Y-108207154D01*
X156096159Y-108207158D01*
X156090970Y-108212348D01*
X156087119Y-108218590D01*
X156087116Y-108218595D01*
X156001735Y-108357017D01*
X156001730Y-108357026D01*
X155997885Y-108363261D01*
X155995579Y-108370218D01*
X155995577Y-108370224D01*
X155969076Y-108450202D01*
X155942113Y-108531573D01*
X155941414Y-108538407D01*
X155941414Y-108538411D01*
X155931825Y-108632269D01*
X155931500Y-108635454D01*
X155931500Y-111836546D01*
X153705345Y-111836546D01*
X153713035Y-111826313D01*
X153829223Y-111604935D01*
X153908395Y-111367786D01*
X153948500Y-111121008D01*
X153948500Y-109413593D01*
X153933420Y-109226795D01*
X153873587Y-108984044D01*
X153775590Y-108754035D01*
X153641965Y-108542724D01*
X153476174Y-108355585D01*
X153472240Y-108352373D01*
X153472237Y-108352370D01*
X153286450Y-108200680D01*
X153282510Y-108197463D01*
X153278111Y-108194923D01*
X153278105Y-108194919D01*
X153100125Y-108092163D01*
X153065990Y-108072455D01*
X153061237Y-108070652D01*
X153061234Y-108070651D01*
X152836974Y-107985601D01*
X152836967Y-107985599D01*
X152832221Y-107983799D01*
X152827248Y-107982783D01*
X152827242Y-107982782D01*
X152592223Y-107934802D01*
X152592215Y-107934801D01*
X152587258Y-107933789D01*
X152582203Y-107933585D01*
X152582193Y-107933584D01*
X152342521Y-107923926D01*
X152342514Y-107923926D01*
X152337445Y-107923722D01*
X152332408Y-107924333D01*
X152332398Y-107924334D01*
X152094299Y-107953245D01*
X152094296Y-107953245D01*
X152089252Y-107953858D01*
X152084375Y-107955270D01*
X152084368Y-107955272D01*
X151853979Y-108022005D01*
X151853966Y-108022009D01*
X151849108Y-108023417D01*
X151844538Y-108025585D01*
X151844526Y-108025590D01*
X151627821Y-108128418D01*
X151627811Y-108128423D01*
X151623231Y-108130597D01*
X151619059Y-108133476D01*
X151619048Y-108133483D01*
X151421649Y-108269738D01*
X151421642Y-108269743D01*
X151417472Y-108272622D01*
X151413815Y-108276134D01*
X151413812Y-108276137D01*
X151240820Y-108442298D01*
X151240816Y-108442301D01*
X151237160Y-108445814D01*
X151234117Y-108449862D01*
X151234112Y-108449869D01*
X151092245Y-108638660D01*
X151086965Y-108645687D01*
X151084607Y-108650179D01*
X151084603Y-108650186D01*
X150973140Y-108862562D01*
X150970777Y-108867065D01*
X150969168Y-108871882D01*
X150969168Y-108871884D01*
X150893213Y-109099395D01*
X150893210Y-109099404D01*
X150891605Y-109104214D01*
X150890790Y-109109226D01*
X150890789Y-109109232D01*
X150852314Y-109345980D01*
X150852313Y-109345986D01*
X150851500Y-109350992D01*
X150851500Y-111058407D01*
X148868500Y-111058407D01*
X148868500Y-109413593D01*
X148853420Y-109226795D01*
X148793587Y-108984044D01*
X148695590Y-108754035D01*
X148561965Y-108542724D01*
X148396174Y-108355585D01*
X148392240Y-108352373D01*
X148392237Y-108352370D01*
X148206450Y-108200680D01*
X148202510Y-108197463D01*
X148198111Y-108194923D01*
X148198105Y-108194919D01*
X148020125Y-108092163D01*
X147985990Y-108072455D01*
X147981237Y-108070652D01*
X147981234Y-108070651D01*
X147756974Y-107985601D01*
X147756967Y-107985599D01*
X147752221Y-107983799D01*
X147747248Y-107982783D01*
X147747242Y-107982782D01*
X147512223Y-107934802D01*
X147512215Y-107934801D01*
X147507258Y-107933789D01*
X147502203Y-107933585D01*
X147502193Y-107933584D01*
X147262521Y-107923926D01*
X147262514Y-107923926D01*
X147257445Y-107923722D01*
X147252408Y-107924333D01*
X147252398Y-107924334D01*
X147014299Y-107953245D01*
X147014296Y-107953245D01*
X147009252Y-107953858D01*
X147004375Y-107955270D01*
X147004368Y-107955272D01*
X146773979Y-108022005D01*
X146773966Y-108022009D01*
X146769108Y-108023417D01*
X146764538Y-108025585D01*
X146764526Y-108025590D01*
X146547821Y-108128418D01*
X146547811Y-108128423D01*
X146543231Y-108130597D01*
X146539059Y-108133476D01*
X146539048Y-108133483D01*
X146341649Y-108269738D01*
X146341642Y-108269743D01*
X146337472Y-108272622D01*
X146333815Y-108276134D01*
X146333812Y-108276137D01*
X146160820Y-108442298D01*
X146160816Y-108442301D01*
X146157160Y-108445814D01*
X146154117Y-108449862D01*
X146154112Y-108449869D01*
X146012245Y-108638660D01*
X146006965Y-108645687D01*
X146004607Y-108650179D01*
X146004603Y-108650186D01*
X145893140Y-108862562D01*
X145890777Y-108867065D01*
X145889168Y-108871882D01*
X145889168Y-108871884D01*
X145813213Y-109099395D01*
X145813210Y-109099404D01*
X145811605Y-109104214D01*
X145810790Y-109109226D01*
X145810789Y-109109232D01*
X145772314Y-109345980D01*
X145772313Y-109345986D01*
X145771500Y-109350992D01*
X145771500Y-111058407D01*
X143788500Y-111058407D01*
X143788500Y-109413593D01*
X143773420Y-109226795D01*
X143713587Y-108984044D01*
X143615590Y-108754035D01*
X143481965Y-108542724D01*
X143316174Y-108355585D01*
X143312240Y-108352373D01*
X143312237Y-108352370D01*
X143126450Y-108200680D01*
X143122510Y-108197463D01*
X143118111Y-108194923D01*
X143118105Y-108194919D01*
X142940125Y-108092163D01*
X142905990Y-108072455D01*
X142901237Y-108070652D01*
X142901234Y-108070651D01*
X142676974Y-107985601D01*
X142676967Y-107985599D01*
X142672221Y-107983799D01*
X142667248Y-107982783D01*
X142667242Y-107982782D01*
X142432223Y-107934802D01*
X142432215Y-107934801D01*
X142427258Y-107933789D01*
X142422203Y-107933585D01*
X142422193Y-107933584D01*
X142182521Y-107923926D01*
X142182514Y-107923926D01*
X142177445Y-107923722D01*
X142172408Y-107924333D01*
X142172398Y-107924334D01*
X141934299Y-107953245D01*
X141934296Y-107953245D01*
X141929252Y-107953858D01*
X141924375Y-107955270D01*
X141924368Y-107955272D01*
X141693979Y-108022005D01*
X141693966Y-108022009D01*
X141689108Y-108023417D01*
X141684538Y-108025585D01*
X141684526Y-108025590D01*
X141467821Y-108128418D01*
X141467811Y-108128423D01*
X141463231Y-108130597D01*
X141459059Y-108133476D01*
X141459048Y-108133483D01*
X141261649Y-108269738D01*
X141261642Y-108269743D01*
X141257472Y-108272622D01*
X141253815Y-108276134D01*
X141253812Y-108276137D01*
X141080820Y-108442298D01*
X141080816Y-108442301D01*
X141077160Y-108445814D01*
X141074117Y-108449862D01*
X141074112Y-108449869D01*
X140932245Y-108638660D01*
X140926965Y-108645687D01*
X140924607Y-108650179D01*
X140924603Y-108650186D01*
X140813140Y-108862562D01*
X140810777Y-108867065D01*
X140809168Y-108871882D01*
X140809168Y-108871884D01*
X140733213Y-109099395D01*
X140733210Y-109099404D01*
X140731605Y-109104214D01*
X140730790Y-109109226D01*
X140730789Y-109109232D01*
X140692314Y-109345980D01*
X140692313Y-109345986D01*
X140691500Y-109350992D01*
X140691500Y-111058407D01*
X138708500Y-111058407D01*
X138708500Y-109413593D01*
X138693420Y-109226795D01*
X138633587Y-108984044D01*
X138535590Y-108754035D01*
X138401965Y-108542724D01*
X138236174Y-108355585D01*
X138232240Y-108352373D01*
X138232237Y-108352370D01*
X138046450Y-108200680D01*
X138042510Y-108197463D01*
X138038111Y-108194923D01*
X138038105Y-108194919D01*
X137860125Y-108092163D01*
X137825990Y-108072455D01*
X137821237Y-108070652D01*
X137821234Y-108070651D01*
X137596974Y-107985601D01*
X137596967Y-107985599D01*
X137592221Y-107983799D01*
X137587248Y-107982783D01*
X137587242Y-107982782D01*
X137352223Y-107934802D01*
X137352215Y-107934801D01*
X137347258Y-107933789D01*
X137342203Y-107933585D01*
X137342193Y-107933584D01*
X137102521Y-107923926D01*
X137102514Y-107923926D01*
X137097445Y-107923722D01*
X137092408Y-107924333D01*
X137092398Y-107924334D01*
X136854299Y-107953245D01*
X136854296Y-107953245D01*
X136849252Y-107953858D01*
X136844375Y-107955270D01*
X136844368Y-107955272D01*
X136613979Y-108022005D01*
X136613966Y-108022009D01*
X136609108Y-108023417D01*
X136604538Y-108025585D01*
X136604526Y-108025590D01*
X136387821Y-108128418D01*
X136387811Y-108128423D01*
X136383231Y-108130597D01*
X136379059Y-108133476D01*
X136379048Y-108133483D01*
X136181649Y-108269738D01*
X136181642Y-108269743D01*
X136177472Y-108272622D01*
X136173815Y-108276134D01*
X136173812Y-108276137D01*
X136000820Y-108442298D01*
X136000816Y-108442301D01*
X135997160Y-108445814D01*
X135994117Y-108449862D01*
X135994112Y-108449869D01*
X135852245Y-108638660D01*
X135846965Y-108645687D01*
X135844607Y-108650179D01*
X135844603Y-108650186D01*
X135733140Y-108862562D01*
X135730777Y-108867065D01*
X135729168Y-108871882D01*
X135729168Y-108871884D01*
X135653213Y-109099395D01*
X135653210Y-109099404D01*
X135651605Y-109104214D01*
X135650790Y-109109226D01*
X135650789Y-109109232D01*
X135612314Y-109345980D01*
X135612313Y-109345986D01*
X135611500Y-109350992D01*
X135611500Y-111058407D01*
X133628500Y-111058407D01*
X133628500Y-109413593D01*
X133613420Y-109226795D01*
X133553587Y-108984044D01*
X133455590Y-108754035D01*
X133321965Y-108542724D01*
X133156174Y-108355585D01*
X133152240Y-108352373D01*
X133152237Y-108352370D01*
X132966450Y-108200680D01*
X132962510Y-108197463D01*
X132958111Y-108194923D01*
X132958105Y-108194919D01*
X132780125Y-108092163D01*
X132745990Y-108072455D01*
X132741237Y-108070652D01*
X132741234Y-108070651D01*
X132516974Y-107985601D01*
X132516967Y-107985599D01*
X132512221Y-107983799D01*
X132507248Y-107982783D01*
X132507242Y-107982782D01*
X132272223Y-107934802D01*
X132272215Y-107934801D01*
X132267258Y-107933789D01*
X132262203Y-107933585D01*
X132262193Y-107933584D01*
X132022521Y-107923926D01*
X132022514Y-107923926D01*
X132017445Y-107923722D01*
X132012408Y-107924333D01*
X132012398Y-107924334D01*
X131774299Y-107953245D01*
X131774296Y-107953245D01*
X131769252Y-107953858D01*
X131764375Y-107955270D01*
X131764368Y-107955272D01*
X131533979Y-108022005D01*
X131533966Y-108022009D01*
X131529108Y-108023417D01*
X131524538Y-108025585D01*
X131524526Y-108025590D01*
X131307821Y-108128418D01*
X131307811Y-108128423D01*
X131303231Y-108130597D01*
X131299059Y-108133476D01*
X131299048Y-108133483D01*
X131101649Y-108269738D01*
X131101642Y-108269743D01*
X131097472Y-108272622D01*
X131093815Y-108276134D01*
X131093812Y-108276137D01*
X130920820Y-108442298D01*
X130920816Y-108442301D01*
X130917160Y-108445814D01*
X130914117Y-108449862D01*
X130914112Y-108449869D01*
X130772245Y-108638660D01*
X130766965Y-108645687D01*
X130764607Y-108650179D01*
X130764603Y-108650186D01*
X130653140Y-108862562D01*
X130650777Y-108867065D01*
X130649168Y-108871882D01*
X130649168Y-108871884D01*
X130573213Y-109099395D01*
X130573210Y-109099404D01*
X130571605Y-109104214D01*
X130570790Y-109109226D01*
X130570789Y-109109232D01*
X130532314Y-109345980D01*
X130532313Y-109345986D01*
X130531500Y-109350992D01*
X130531500Y-111058407D01*
X128548000Y-111058407D01*
X128548000Y-110506590D01*
X128544493Y-110493506D01*
X128531410Y-110490000D01*
X127270590Y-110490000D01*
X127257506Y-110493506D01*
X127254000Y-110506590D01*
X127254000Y-112506649D01*
X126746000Y-112506649D01*
X126746000Y-110506590D01*
X126742493Y-110493506D01*
X126729410Y-110490000D01*
X125468590Y-110490000D01*
X125455506Y-110493506D01*
X125452000Y-110506590D01*
X125452000Y-111055833D01*
X123468000Y-111055833D01*
X123468000Y-110506590D01*
X123464493Y-110493506D01*
X123451410Y-110490000D01*
X122190590Y-110490000D01*
X122177506Y-110493506D01*
X122174000Y-110506590D01*
X122174000Y-112506649D01*
X121666000Y-112506649D01*
X121666000Y-110506590D01*
X121662493Y-110493506D01*
X121649410Y-110490000D01*
X120388590Y-110490000D01*
X120375506Y-110493506D01*
X120372000Y-110506590D01*
X120372000Y-111055833D01*
X100500000Y-111055833D01*
X100500000Y-109965410D01*
X120372000Y-109965410D01*
X120375506Y-109978493D01*
X120388590Y-109982000D01*
X121649410Y-109982000D01*
X121662493Y-109978493D01*
X121666000Y-109965410D01*
X122174000Y-109965410D01*
X122177506Y-109978493D01*
X122190590Y-109982000D01*
X123451410Y-109982000D01*
X123464493Y-109978493D01*
X123468000Y-109965410D01*
X125452000Y-109965410D01*
X125455506Y-109978493D01*
X125468590Y-109982000D01*
X126729410Y-109982000D01*
X126742493Y-109978493D01*
X126746000Y-109965410D01*
X127254000Y-109965410D01*
X127257506Y-109978493D01*
X127270590Y-109982000D01*
X128531410Y-109982000D01*
X128544493Y-109978493D01*
X128548000Y-109965410D01*
X128548000Y-109416167D01*
X128547794Y-109411069D01*
X128533333Y-109231938D01*
X128531710Y-109221949D01*
X128474324Y-108989127D01*
X128471121Y-108979533D01*
X128377137Y-108758945D01*
X128372429Y-108749973D01*
X128244275Y-108547315D01*
X128238194Y-108539223D01*
X128079197Y-108359753D01*
X128071888Y-108352732D01*
X127886165Y-108201093D01*
X127877820Y-108195332D01*
X127670180Y-108075452D01*
X127661019Y-108071105D01*
X127436834Y-107986083D01*
X127427103Y-107983264D01*
X127267726Y-107950727D01*
X127256473Y-107950953D01*
X127254000Y-107961938D01*
X127254000Y-109965410D01*
X126746000Y-109965410D01*
X126746000Y-107965351D01*
X126742097Y-107951877D01*
X126728250Y-107949627D01*
X126694402Y-107953736D01*
X126684467Y-107955765D01*
X126454163Y-108022473D01*
X126444701Y-108026061D01*
X126228063Y-108128856D01*
X126219310Y-108133910D01*
X126021966Y-108270128D01*
X126014128Y-108276527D01*
X125841196Y-108442631D01*
X125834488Y-108450202D01*
X125690433Y-108641903D01*
X125685033Y-108650442D01*
X125573596Y-108862769D01*
X125569630Y-108872078D01*
X125493702Y-109099509D01*
X125491276Y-109109354D01*
X125452814Y-109346021D01*
X125452000Y-109356109D01*
X125452000Y-109965410D01*
X123468000Y-109965410D01*
X123468000Y-109416167D01*
X123467794Y-109411069D01*
X123453333Y-109231938D01*
X123451710Y-109221949D01*
X123394324Y-108989127D01*
X123391121Y-108979533D01*
X123297137Y-108758945D01*
X123292429Y-108749973D01*
X123164275Y-108547315D01*
X123158194Y-108539223D01*
X122999197Y-108359753D01*
X122991888Y-108352732D01*
X122806165Y-108201093D01*
X122797820Y-108195332D01*
X122590180Y-108075452D01*
X122581019Y-108071105D01*
X122356834Y-107986083D01*
X122347103Y-107983264D01*
X122187726Y-107950727D01*
X122176473Y-107950953D01*
X122174000Y-107961938D01*
X122174000Y-109965410D01*
X121666000Y-109965410D01*
X121666000Y-107965351D01*
X121662097Y-107951877D01*
X121648250Y-107949627D01*
X121614402Y-107953736D01*
X121604467Y-107955765D01*
X121374163Y-108022473D01*
X121364701Y-108026061D01*
X121148063Y-108128856D01*
X121139310Y-108133910D01*
X120941966Y-108270128D01*
X120934128Y-108276527D01*
X120761196Y-108442631D01*
X120754488Y-108450202D01*
X120610433Y-108641903D01*
X120605033Y-108650442D01*
X120493596Y-108862769D01*
X120489630Y-108872078D01*
X120413702Y-109099509D01*
X120411276Y-109109354D01*
X120372814Y-109346021D01*
X120372000Y-109356109D01*
X120372000Y-109965410D01*
X100500000Y-109965410D01*
X100500000Y-107298748D01*
X103065827Y-107298748D01*
X103073638Y-107310256D01*
X103197894Y-107414519D01*
X103203764Y-107418889D01*
X103490396Y-107607409D01*
X103496718Y-107611059D01*
X103803303Y-107765032D01*
X103810018Y-107767928D01*
X104132380Y-107885258D01*
X104139403Y-107887361D01*
X104473225Y-107966479D01*
X104480413Y-107967746D01*
X104821159Y-108007574D01*
X104828473Y-108008000D01*
X105171527Y-108008000D01*
X105178840Y-108007574D01*
X105519586Y-107967746D01*
X105526774Y-107966479D01*
X105860596Y-107887361D01*
X105867619Y-107885258D01*
X106189981Y-107767928D01*
X106196696Y-107765032D01*
X106503281Y-107611059D01*
X106509603Y-107607409D01*
X106796235Y-107418889D01*
X106802105Y-107414519D01*
X106926360Y-107310256D01*
X106934171Y-107298749D01*
X106934170Y-107298748D01*
X168065827Y-107298748D01*
X168073638Y-107310256D01*
X168197894Y-107414519D01*
X168203764Y-107418889D01*
X168490396Y-107607409D01*
X168496718Y-107611059D01*
X168803303Y-107765032D01*
X168810018Y-107767928D01*
X169132380Y-107885258D01*
X169139403Y-107887361D01*
X169473225Y-107966479D01*
X169480413Y-107967746D01*
X169821159Y-108007574D01*
X169828473Y-108008000D01*
X170171527Y-108008000D01*
X170178840Y-108007574D01*
X170519586Y-107967746D01*
X170526774Y-107966479D01*
X170860596Y-107887361D01*
X170867619Y-107885258D01*
X171189981Y-107767928D01*
X171196696Y-107765032D01*
X171503281Y-107611059D01*
X171509603Y-107607409D01*
X171796235Y-107418889D01*
X171802105Y-107414519D01*
X171926360Y-107310256D01*
X171934171Y-107298749D01*
X171927392Y-107286603D01*
X170011729Y-105370939D01*
X170000000Y-105364167D01*
X169988270Y-105370939D01*
X168072605Y-107286604D01*
X168065827Y-107298748D01*
X106934170Y-107298748D01*
X106927392Y-107286603D01*
X105011729Y-105370939D01*
X105000000Y-105364167D01*
X104988270Y-105370939D01*
X103072605Y-107286604D01*
X103065827Y-107298748D01*
X100500000Y-107298748D01*
X100500000Y-105003657D01*
X101987115Y-105003657D01*
X102007062Y-105346143D01*
X102007910Y-105353403D01*
X102067482Y-105691255D01*
X102069172Y-105698382D01*
X102167563Y-106027029D01*
X102170066Y-106033908D01*
X102305943Y-106348907D01*
X102309231Y-106355453D01*
X102480760Y-106652550D01*
X102484778Y-106658659D01*
X102688343Y-106932094D01*
X102697817Y-106937875D01*
X102709691Y-106931096D01*
X104629059Y-105011729D01*
X104635831Y-105000000D01*
X105364167Y-105000000D01*
X105370939Y-105011729D01*
X107290306Y-106931095D01*
X107302182Y-106937875D01*
X107311655Y-106932095D01*
X107515221Y-106658659D01*
X107519239Y-106652550D01*
X107690768Y-106355453D01*
X107694056Y-106348907D01*
X107829933Y-106033908D01*
X107832436Y-106027029D01*
X107930827Y-105698382D01*
X107932517Y-105691255D01*
X107992089Y-105353403D01*
X107992937Y-105346143D01*
X108012885Y-105003657D01*
X166987115Y-105003657D01*
X167007062Y-105346143D01*
X167007910Y-105353403D01*
X167067482Y-105691255D01*
X167069172Y-105698382D01*
X167167563Y-106027029D01*
X167170066Y-106033908D01*
X167305943Y-106348907D01*
X167309231Y-106355453D01*
X167480760Y-106652550D01*
X167484778Y-106658659D01*
X167688343Y-106932094D01*
X167697817Y-106937875D01*
X167709691Y-106931096D01*
X169629059Y-105011729D01*
X169635831Y-105000000D01*
X170364167Y-105000000D01*
X170370939Y-105011729D01*
X172290306Y-106931095D01*
X172302182Y-106937875D01*
X172311655Y-106932095D01*
X172515221Y-106658659D01*
X172519239Y-106652550D01*
X172690768Y-106355453D01*
X172694056Y-106348907D01*
X172829933Y-106033908D01*
X172832436Y-106027029D01*
X172930827Y-105698382D01*
X172932517Y-105691255D01*
X172992089Y-105353403D01*
X172992937Y-105346143D01*
X173012885Y-105003657D01*
X173012885Y-104996343D01*
X172992937Y-104653856D01*
X172992089Y-104646596D01*
X172932517Y-104308744D01*
X172930827Y-104301617D01*
X172832436Y-103972970D01*
X172829933Y-103966091D01*
X172694056Y-103651092D01*
X172690768Y-103644546D01*
X172519239Y-103347449D01*
X172515221Y-103341340D01*
X172311657Y-103067906D01*
X172302181Y-103062123D01*
X172290307Y-103068902D01*
X170370939Y-104988270D01*
X170364167Y-105000000D01*
X169635831Y-105000000D01*
X169629059Y-104988270D01*
X167709693Y-103068904D01*
X167697817Y-103062124D01*
X167688342Y-103067906D01*
X167484778Y-103341340D01*
X167480760Y-103347449D01*
X167309231Y-103644546D01*
X167305943Y-103651092D01*
X167170066Y-103966091D01*
X167167563Y-103972970D01*
X167069172Y-104301617D01*
X167067482Y-104308744D01*
X167007910Y-104646596D01*
X167007062Y-104653856D01*
X166987115Y-104996343D01*
X166987115Y-105003657D01*
X108012885Y-105003657D01*
X108012885Y-104996343D01*
X107992937Y-104653856D01*
X107992089Y-104646596D01*
X107932517Y-104308744D01*
X107930827Y-104301617D01*
X107832436Y-103972970D01*
X107829933Y-103966091D01*
X107694056Y-103651092D01*
X107690768Y-103644546D01*
X107519239Y-103347449D01*
X107515221Y-103341340D01*
X107311657Y-103067906D01*
X107302181Y-103062123D01*
X107290307Y-103068902D01*
X105370939Y-104988270D01*
X105364167Y-105000000D01*
X104635831Y-105000000D01*
X104629059Y-104988270D01*
X102709693Y-103068904D01*
X102697817Y-103062124D01*
X102688342Y-103067906D01*
X102484778Y-103341340D01*
X102480760Y-103347449D01*
X102309231Y-103644546D01*
X102305943Y-103651092D01*
X102170066Y-103966091D01*
X102167563Y-103972970D01*
X102069172Y-104301617D01*
X102067482Y-104308744D01*
X102007910Y-104646596D01*
X102007062Y-104653856D01*
X101987115Y-104996343D01*
X101987115Y-105003657D01*
X100500000Y-105003657D01*
X100500000Y-102701250D01*
X103065827Y-102701250D01*
X103072605Y-102713394D01*
X104988270Y-104629059D01*
X104999999Y-104635831D01*
X105011729Y-104629059D01*
X106927393Y-102713394D01*
X106934171Y-102701250D01*
X168065827Y-102701250D01*
X168072605Y-102713394D01*
X169988270Y-104629059D01*
X169999999Y-104635831D01*
X170011729Y-104629059D01*
X171927393Y-102713394D01*
X171934171Y-102701250D01*
X171926360Y-102689742D01*
X171802105Y-102585480D01*
X171796235Y-102581110D01*
X171509603Y-102392590D01*
X171503281Y-102388940D01*
X171196696Y-102234967D01*
X171189981Y-102232071D01*
X170867619Y-102114741D01*
X170860596Y-102112638D01*
X170526774Y-102033520D01*
X170519586Y-102032253D01*
X170178840Y-101992425D01*
X170171527Y-101992000D01*
X169828473Y-101992000D01*
X169821159Y-101992425D01*
X169480413Y-102032253D01*
X169473225Y-102033520D01*
X169139403Y-102112638D01*
X169132380Y-102114741D01*
X168810018Y-102232071D01*
X168803303Y-102234967D01*
X168496718Y-102388940D01*
X168490396Y-102392590D01*
X168203764Y-102581110D01*
X168197894Y-102585480D01*
X168073638Y-102689742D01*
X168065827Y-102701250D01*
X106934171Y-102701250D01*
X106926360Y-102689742D01*
X106802105Y-102585480D01*
X106796235Y-102581110D01*
X106509603Y-102392590D01*
X106503281Y-102388940D01*
X106196696Y-102234967D01*
X106189981Y-102232071D01*
X105867619Y-102114741D01*
X105860596Y-102112638D01*
X105526774Y-102033520D01*
X105519586Y-102032253D01*
X105178840Y-101992425D01*
X105171527Y-101992000D01*
X104828473Y-101992000D01*
X104821159Y-101992425D01*
X104480413Y-102032253D01*
X104473225Y-102033520D01*
X104139403Y-102112638D01*
X104132380Y-102114741D01*
X103810018Y-102232071D01*
X103803303Y-102234967D01*
X103496718Y-102388940D01*
X103490396Y-102392590D01*
X103203764Y-102581110D01*
X103197894Y-102585480D01*
X103073638Y-102689742D01*
X103065827Y-102701250D01*
X100500000Y-102701250D01*
X100500000Y-100626000D01*
X100516881Y-100563000D01*
X100563000Y-100516881D01*
X100626000Y-100500000D01*
X174374000Y-100500000D01*
X174437000Y-100516881D01*
G37*
%TD.AperFunction*%
%TD*%
M02*
