%TF.GenerationSoftware,KiCad,Pcbnew,(6.99.0-4793-g33d76f63b0-dirty)*%
%TF.CreationDate,2022-12-11T21:20:13+01:00*%
%TF.ProjectId,resolver-to-sincos,7265736f-6c76-4657-922d-746f2d73696e,rev?*%
%TF.SameCoordinates,Original*%
%TF.FileFunction,Copper,L1,Top*%
%TF.FilePolarity,Positive*%
%FSLAX46Y46*%
G04 Gerber Fmt 4.6, Leading zero omitted, Abs format (unit mm)*
G04 Created by KiCad (PCBNEW (6.99.0-4793-g33d76f63b0-dirty)) date 2022-12-11 21:20:13*
%MOMM*%
%LPD*%
G01*
G04 APERTURE LIST*
G04 Aperture macros list*
%AMRoundRect*
0 Rectangle with rounded corners*
0 $1 Rounding radius*
0 $2 $3 $4 $5 $6 $7 $8 $9 X,Y pos of 4 corners*
0 Add a 4 corners polygon primitive as box body*
4,1,4,$2,$3,$4,$5,$6,$7,$8,$9,$2,$3,0*
0 Add four circle primitives for the rounded corners*
1,1,$1+$1,$2,$3*
1,1,$1+$1,$4,$5*
1,1,$1+$1,$6,$7*
1,1,$1+$1,$8,$9*
0 Add four rect primitives between the rounded corners*
20,1,$1+$1,$2,$3,$4,$5,0*
20,1,$1+$1,$4,$5,$6,$7,0*
20,1,$1+$1,$6,$7,$8,$9,0*
20,1,$1+$1,$8,$9,$2,$3,0*%
G04 Aperture macros list end*
%ADD10C,0.300000*%
%TA.AperFunction,NonConductor*%
%ADD11C,0.300000*%
%TD*%
%TA.AperFunction,NonConductor*%
%ADD12C,0.200000*%
%TD*%
%TA.AperFunction,SMDPad,CuDef*%
%ADD13RoundRect,0.200000X-0.275000X0.200000X-0.275000X-0.200000X0.275000X-0.200000X0.275000X0.200000X0*%
%TD*%
%TA.AperFunction,SMDPad,CuDef*%
%ADD14RoundRect,0.200000X0.275000X-0.200000X0.275000X0.200000X-0.275000X0.200000X-0.275000X-0.200000X0*%
%TD*%
%TA.AperFunction,SMDPad,CuDef*%
%ADD15RoundRect,0.150000X-0.150000X0.512500X-0.150000X-0.512500X0.150000X-0.512500X0.150000X0.512500X0*%
%TD*%
%TA.AperFunction,SMDPad,CuDef*%
%ADD16RoundRect,0.225000X0.225000X0.250000X-0.225000X0.250000X-0.225000X-0.250000X0.225000X-0.250000X0*%
%TD*%
%TA.AperFunction,SMDPad,CuDef*%
%ADD17R,1.500000X1.500000*%
%TD*%
%TA.AperFunction,SMDPad,CuDef*%
%ADD18RoundRect,0.200000X-0.200000X-0.275000X0.200000X-0.275000X0.200000X0.275000X-0.200000X0.275000X0*%
%TD*%
%TA.AperFunction,ComponentPad*%
%ADD19R,1.700000X1.700000*%
%TD*%
%TA.AperFunction,ComponentPad*%
%ADD20O,1.700000X1.700000*%
%TD*%
%TA.AperFunction,SMDPad,CuDef*%
%ADD21RoundRect,0.200000X0.200000X0.275000X-0.200000X0.275000X-0.200000X-0.275000X0.200000X-0.275000X0*%
%TD*%
%TA.AperFunction,SMDPad,CuDef*%
%ADD22RoundRect,0.218750X-0.218750X-0.256250X0.218750X-0.256250X0.218750X0.256250X-0.218750X0.256250X0*%
%TD*%
%TA.AperFunction,SMDPad,CuDef*%
%ADD23R,1.500000X2.000000*%
%TD*%
%TA.AperFunction,SMDPad,CuDef*%
%ADD24R,3.800000X2.000000*%
%TD*%
%TA.AperFunction,SMDPad,CuDef*%
%ADD25RoundRect,0.100000X0.100000X-0.637500X0.100000X0.637500X-0.100000X0.637500X-0.100000X-0.637500X0*%
%TD*%
%TA.AperFunction,SMDPad,CuDef*%
%ADD26RoundRect,0.218750X0.218750X0.256250X-0.218750X0.256250X-0.218750X-0.256250X0.218750X-0.256250X0*%
%TD*%
%TA.AperFunction,SMDPad,CuDef*%
%ADD27RoundRect,0.225000X0.250000X-0.225000X0.250000X0.225000X-0.250000X0.225000X-0.250000X-0.225000X0*%
%TD*%
%TA.AperFunction,SMDPad,CuDef*%
%ADD28RoundRect,0.225000X-0.225000X-0.250000X0.225000X-0.250000X0.225000X0.250000X-0.225000X0.250000X0*%
%TD*%
%TA.AperFunction,ComponentPad*%
%ADD29C,5.000000*%
%TD*%
%TA.AperFunction,SMDPad,CuDef*%
%ADD30RoundRect,0.150000X-0.825000X-0.150000X0.825000X-0.150000X0.825000X0.150000X-0.825000X0.150000X0*%
%TD*%
%TA.AperFunction,SMDPad,CuDef*%
%ADD31RoundRect,0.150000X0.587500X0.150000X-0.587500X0.150000X-0.587500X-0.150000X0.587500X-0.150000X0*%
%TD*%
%TA.AperFunction,ComponentPad*%
%ADD32RoundRect,0.249999X0.790001X1.550001X-0.790001X1.550001X-0.790001X-1.550001X0.790001X-1.550001X0*%
%TD*%
%TA.AperFunction,ComponentPad*%
%ADD33O,2.080000X3.600000*%
%TD*%
%TA.AperFunction,ComponentPad*%
%ADD34RoundRect,0.249999X-0.790001X-1.550001X0.790001X-1.550001X0.790001X1.550001X-0.790001X1.550001X0*%
%TD*%
%TA.AperFunction,SMDPad,CuDef*%
%ADD35R,0.700000X1.000000*%
%TD*%
%TA.AperFunction,SMDPad,CuDef*%
%ADD36R,0.700000X0.600000*%
%TD*%
%TA.AperFunction,SMDPad,CuDef*%
%ADD37RoundRect,0.225000X-0.250000X0.225000X-0.250000X-0.225000X0.250000X-0.225000X0.250000X0.225000X0*%
%TD*%
%TA.AperFunction,ViaPad*%
%ADD38C,0.700000*%
%TD*%
%TA.AperFunction,Conductor*%
%ADD39C,0.400000*%
%TD*%
%TA.AperFunction,Conductor*%
%ADD40C,0.200000*%
%TD*%
G04 APERTURE END LIST*
D10*
D11*
X95803072Y-143870570D02*
X95803072Y-142870570D01*
X95803072Y-142870570D02*
X97303072Y-143513427D01*
X95803072Y-141584856D02*
X95803072Y-142299142D01*
X95803072Y-142299142D02*
X96517358Y-142370570D01*
X96517358Y-142370570D02*
X96445929Y-142299142D01*
X96445929Y-142299142D02*
X96374501Y-142156285D01*
X96374501Y-142156285D02*
X96374501Y-141799142D01*
X96374501Y-141799142D02*
X96445929Y-141656285D01*
X96445929Y-141656285D02*
X96517358Y-141584856D01*
X96517358Y-141584856D02*
X96660215Y-141513427D01*
X96660215Y-141513427D02*
X97017358Y-141513427D01*
X97017358Y-141513427D02*
X97160215Y-141584856D01*
X97160215Y-141584856D02*
X97231643Y-141656285D01*
X97231643Y-141656285D02*
X97303072Y-141799142D01*
X97303072Y-141799142D02*
X97303072Y-142156285D01*
X97303072Y-142156285D02*
X97231643Y-142299142D01*
X97231643Y-142299142D02*
X97160215Y-142370570D01*
X97160215Y-140870571D02*
X97231643Y-140799142D01*
X97231643Y-140799142D02*
X97303072Y-140870571D01*
X97303072Y-140870571D02*
X97231643Y-140941999D01*
X97231643Y-140941999D02*
X97160215Y-140870571D01*
X97160215Y-140870571D02*
X97303072Y-140870571D01*
X95803072Y-139870570D02*
X95803072Y-139727713D01*
X95803072Y-139727713D02*
X95874501Y-139584856D01*
X95874501Y-139584856D02*
X95945929Y-139513428D01*
X95945929Y-139513428D02*
X96088786Y-139441999D01*
X96088786Y-139441999D02*
X96374501Y-139370570D01*
X96374501Y-139370570D02*
X96731643Y-139370570D01*
X96731643Y-139370570D02*
X97017358Y-139441999D01*
X97017358Y-139441999D02*
X97160215Y-139513428D01*
X97160215Y-139513428D02*
X97231643Y-139584856D01*
X97231643Y-139584856D02*
X97303072Y-139727713D01*
X97303072Y-139727713D02*
X97303072Y-139870570D01*
X97303072Y-139870570D02*
X97231643Y-140013428D01*
X97231643Y-140013428D02*
X97160215Y-140084856D01*
X97160215Y-140084856D02*
X97017358Y-140156285D01*
X97017358Y-140156285D02*
X96731643Y-140227713D01*
X96731643Y-140227713D02*
X96374501Y-140227713D01*
X96374501Y-140227713D02*
X96088786Y-140156285D01*
X96088786Y-140156285D02*
X95945929Y-140084856D01*
X95945929Y-140084856D02*
X95874501Y-140013428D01*
X95874501Y-140013428D02*
X95803072Y-139870570D01*
X95803072Y-138441999D02*
X95803072Y-138299142D01*
X95803072Y-138299142D02*
X95874501Y-138156285D01*
X95874501Y-138156285D02*
X95945929Y-138084857D01*
X95945929Y-138084857D02*
X96088786Y-138013428D01*
X96088786Y-138013428D02*
X96374501Y-137941999D01*
X96374501Y-137941999D02*
X96731643Y-137941999D01*
X96731643Y-137941999D02*
X97017358Y-138013428D01*
X97017358Y-138013428D02*
X97160215Y-138084857D01*
X97160215Y-138084857D02*
X97231643Y-138156285D01*
X97231643Y-138156285D02*
X97303072Y-138299142D01*
X97303072Y-138299142D02*
X97303072Y-138441999D01*
X97303072Y-138441999D02*
X97231643Y-138584857D01*
X97231643Y-138584857D02*
X97160215Y-138656285D01*
X97160215Y-138656285D02*
X97017358Y-138727714D01*
X97017358Y-138727714D02*
X96731643Y-138799142D01*
X96731643Y-138799142D02*
X96374501Y-138799142D01*
X96374501Y-138799142D02*
X96088786Y-138727714D01*
X96088786Y-138727714D02*
X95945929Y-138656285D01*
X95945929Y-138656285D02*
X95874501Y-138584857D01*
X95874501Y-138584857D02*
X95803072Y-138441999D01*
X95803072Y-137013428D02*
X95803072Y-136870571D01*
X95803072Y-136870571D02*
X95874501Y-136727714D01*
X95874501Y-136727714D02*
X95945929Y-136656286D01*
X95945929Y-136656286D02*
X96088786Y-136584857D01*
X96088786Y-136584857D02*
X96374501Y-136513428D01*
X96374501Y-136513428D02*
X96731643Y-136513428D01*
X96731643Y-136513428D02*
X97017358Y-136584857D01*
X97017358Y-136584857D02*
X97160215Y-136656286D01*
X97160215Y-136656286D02*
X97231643Y-136727714D01*
X97231643Y-136727714D02*
X97303072Y-136870571D01*
X97303072Y-136870571D02*
X97303072Y-137013428D01*
X97303072Y-137013428D02*
X97231643Y-137156286D01*
X97231643Y-137156286D02*
X97160215Y-137227714D01*
X97160215Y-137227714D02*
X97017358Y-137299143D01*
X97017358Y-137299143D02*
X96731643Y-137370571D01*
X96731643Y-137370571D02*
X96374501Y-137370571D01*
X96374501Y-137370571D02*
X96088786Y-137299143D01*
X96088786Y-137299143D02*
X95945929Y-137227714D01*
X95945929Y-137227714D02*
X95874501Y-137156286D01*
X95874501Y-137156286D02*
X95803072Y-137013428D01*
X95803072Y-135584857D02*
X95803072Y-135442000D01*
X95803072Y-135442000D02*
X95874501Y-135299143D01*
X95874501Y-135299143D02*
X95945929Y-135227715D01*
X95945929Y-135227715D02*
X96088786Y-135156286D01*
X96088786Y-135156286D02*
X96374501Y-135084857D01*
X96374501Y-135084857D02*
X96731643Y-135084857D01*
X96731643Y-135084857D02*
X97017358Y-135156286D01*
X97017358Y-135156286D02*
X97160215Y-135227715D01*
X97160215Y-135227715D02*
X97231643Y-135299143D01*
X97231643Y-135299143D02*
X97303072Y-135442000D01*
X97303072Y-135442000D02*
X97303072Y-135584857D01*
X97303072Y-135584857D02*
X97231643Y-135727715D01*
X97231643Y-135727715D02*
X97160215Y-135799143D01*
X97160215Y-135799143D02*
X97017358Y-135870572D01*
X97017358Y-135870572D02*
X96731643Y-135942000D01*
X96731643Y-135942000D02*
X96374501Y-135942000D01*
X96374501Y-135942000D02*
X96088786Y-135870572D01*
X96088786Y-135870572D02*
X95945929Y-135799143D01*
X95945929Y-135799143D02*
X95874501Y-135727715D01*
X95874501Y-135727715D02*
X95803072Y-135584857D01*
X97303072Y-133542001D02*
X96303072Y-133542001D01*
X96445929Y-133542001D02*
X96374501Y-133470572D01*
X96374501Y-133470572D02*
X96303072Y-133327715D01*
X96303072Y-133327715D02*
X96303072Y-133113429D01*
X96303072Y-133113429D02*
X96374501Y-132970572D01*
X96374501Y-132970572D02*
X96517358Y-132899144D01*
X96517358Y-132899144D02*
X97303072Y-132899144D01*
X96517358Y-132899144D02*
X96374501Y-132827715D01*
X96374501Y-132827715D02*
X96303072Y-132684858D01*
X96303072Y-132684858D02*
X96303072Y-132470572D01*
X96303072Y-132470572D02*
X96374501Y-132327715D01*
X96374501Y-132327715D02*
X96517358Y-132256286D01*
X96517358Y-132256286D02*
X97303072Y-132256286D01*
X97303072Y-131542001D02*
X96303072Y-131542001D01*
X96445929Y-131542001D02*
X96374501Y-131470572D01*
X96374501Y-131470572D02*
X96303072Y-131327715D01*
X96303072Y-131327715D02*
X96303072Y-131113429D01*
X96303072Y-131113429D02*
X96374501Y-130970572D01*
X96374501Y-130970572D02*
X96517358Y-130899144D01*
X96517358Y-130899144D02*
X97303072Y-130899144D01*
X96517358Y-130899144D02*
X96374501Y-130827715D01*
X96374501Y-130827715D02*
X96303072Y-130684858D01*
X96303072Y-130684858D02*
X96303072Y-130470572D01*
X96303072Y-130470572D02*
X96374501Y-130327715D01*
X96374501Y-130327715D02*
X96517358Y-130256286D01*
X96517358Y-130256286D02*
X97303072Y-130256286D01*
D12*
X99500000Y-99492000D02*
X97965581Y-99492000D01*
X99500000Y-174492000D02*
X97965581Y-174492000D01*
X98552001Y-99492000D02*
X98552001Y-174492000D01*
X98552001Y-99492000D02*
X98552001Y-174492000D01*
X98552001Y-99492000D02*
X99138422Y-100618504D01*
X98552001Y-99492000D02*
X97965580Y-100618504D01*
X98552001Y-174492000D02*
X97965580Y-173365496D01*
X98552001Y-174492000D02*
X99138422Y-173365496D01*
D10*
D11*
X130621429Y-176067071D02*
X131621429Y-176067071D01*
X131621429Y-176067071D02*
X130978572Y-177567071D01*
X132907143Y-176067071D02*
X132192857Y-176067071D01*
X132192857Y-176067071D02*
X132121429Y-176781357D01*
X132121429Y-176781357D02*
X132192857Y-176709928D01*
X132192857Y-176709928D02*
X132335715Y-176638500D01*
X132335715Y-176638500D02*
X132692857Y-176638500D01*
X132692857Y-176638500D02*
X132835715Y-176709928D01*
X132835715Y-176709928D02*
X132907143Y-176781357D01*
X132907143Y-176781357D02*
X132978572Y-176924214D01*
X132978572Y-176924214D02*
X132978572Y-177281357D01*
X132978572Y-177281357D02*
X132907143Y-177424214D01*
X132907143Y-177424214D02*
X132835715Y-177495642D01*
X132835715Y-177495642D02*
X132692857Y-177567071D01*
X132692857Y-177567071D02*
X132335715Y-177567071D01*
X132335715Y-177567071D02*
X132192857Y-177495642D01*
X132192857Y-177495642D02*
X132121429Y-177424214D01*
X133621428Y-177424214D02*
X133692857Y-177495642D01*
X133692857Y-177495642D02*
X133621428Y-177567071D01*
X133621428Y-177567071D02*
X133550000Y-177495642D01*
X133550000Y-177495642D02*
X133621428Y-177424214D01*
X133621428Y-177424214D02*
X133621428Y-177567071D01*
X134621429Y-176067071D02*
X134764286Y-176067071D01*
X134764286Y-176067071D02*
X134907143Y-176138500D01*
X134907143Y-176138500D02*
X134978572Y-176209928D01*
X134978572Y-176209928D02*
X135050000Y-176352785D01*
X135050000Y-176352785D02*
X135121429Y-176638500D01*
X135121429Y-176638500D02*
X135121429Y-176995642D01*
X135121429Y-176995642D02*
X135050000Y-177281357D01*
X135050000Y-177281357D02*
X134978572Y-177424214D01*
X134978572Y-177424214D02*
X134907143Y-177495642D01*
X134907143Y-177495642D02*
X134764286Y-177567071D01*
X134764286Y-177567071D02*
X134621429Y-177567071D01*
X134621429Y-177567071D02*
X134478572Y-177495642D01*
X134478572Y-177495642D02*
X134407143Y-177424214D01*
X134407143Y-177424214D02*
X134335714Y-177281357D01*
X134335714Y-177281357D02*
X134264286Y-176995642D01*
X134264286Y-176995642D02*
X134264286Y-176638500D01*
X134264286Y-176638500D02*
X134335714Y-176352785D01*
X134335714Y-176352785D02*
X134407143Y-176209928D01*
X134407143Y-176209928D02*
X134478572Y-176138500D01*
X134478572Y-176138500D02*
X134621429Y-176067071D01*
X136050000Y-176067071D02*
X136192857Y-176067071D01*
X136192857Y-176067071D02*
X136335714Y-176138500D01*
X136335714Y-176138500D02*
X136407143Y-176209928D01*
X136407143Y-176209928D02*
X136478571Y-176352785D01*
X136478571Y-176352785D02*
X136550000Y-176638500D01*
X136550000Y-176638500D02*
X136550000Y-176995642D01*
X136550000Y-176995642D02*
X136478571Y-177281357D01*
X136478571Y-177281357D02*
X136407143Y-177424214D01*
X136407143Y-177424214D02*
X136335714Y-177495642D01*
X136335714Y-177495642D02*
X136192857Y-177567071D01*
X136192857Y-177567071D02*
X136050000Y-177567071D01*
X136050000Y-177567071D02*
X135907143Y-177495642D01*
X135907143Y-177495642D02*
X135835714Y-177424214D01*
X135835714Y-177424214D02*
X135764285Y-177281357D01*
X135764285Y-177281357D02*
X135692857Y-176995642D01*
X135692857Y-176995642D02*
X135692857Y-176638500D01*
X135692857Y-176638500D02*
X135764285Y-176352785D01*
X135764285Y-176352785D02*
X135835714Y-176209928D01*
X135835714Y-176209928D02*
X135907143Y-176138500D01*
X135907143Y-176138500D02*
X136050000Y-176067071D01*
X137478571Y-176067071D02*
X137621428Y-176067071D01*
X137621428Y-176067071D02*
X137764285Y-176138500D01*
X137764285Y-176138500D02*
X137835714Y-176209928D01*
X137835714Y-176209928D02*
X137907142Y-176352785D01*
X137907142Y-176352785D02*
X137978571Y-176638500D01*
X137978571Y-176638500D02*
X137978571Y-176995642D01*
X137978571Y-176995642D02*
X137907142Y-177281357D01*
X137907142Y-177281357D02*
X137835714Y-177424214D01*
X137835714Y-177424214D02*
X137764285Y-177495642D01*
X137764285Y-177495642D02*
X137621428Y-177567071D01*
X137621428Y-177567071D02*
X137478571Y-177567071D01*
X137478571Y-177567071D02*
X137335714Y-177495642D01*
X137335714Y-177495642D02*
X137264285Y-177424214D01*
X137264285Y-177424214D02*
X137192856Y-177281357D01*
X137192856Y-177281357D02*
X137121428Y-176995642D01*
X137121428Y-176995642D02*
X137121428Y-176638500D01*
X137121428Y-176638500D02*
X137192856Y-176352785D01*
X137192856Y-176352785D02*
X137264285Y-176209928D01*
X137264285Y-176209928D02*
X137335714Y-176138500D01*
X137335714Y-176138500D02*
X137478571Y-176067071D01*
X138907142Y-176067071D02*
X139049999Y-176067071D01*
X139049999Y-176067071D02*
X139192856Y-176138500D01*
X139192856Y-176138500D02*
X139264285Y-176209928D01*
X139264285Y-176209928D02*
X139335713Y-176352785D01*
X139335713Y-176352785D02*
X139407142Y-176638500D01*
X139407142Y-176638500D02*
X139407142Y-176995642D01*
X139407142Y-176995642D02*
X139335713Y-177281357D01*
X139335713Y-177281357D02*
X139264285Y-177424214D01*
X139264285Y-177424214D02*
X139192856Y-177495642D01*
X139192856Y-177495642D02*
X139049999Y-177567071D01*
X139049999Y-177567071D02*
X138907142Y-177567071D01*
X138907142Y-177567071D02*
X138764285Y-177495642D01*
X138764285Y-177495642D02*
X138692856Y-177424214D01*
X138692856Y-177424214D02*
X138621427Y-177281357D01*
X138621427Y-177281357D02*
X138549999Y-176995642D01*
X138549999Y-176995642D02*
X138549999Y-176638500D01*
X138549999Y-176638500D02*
X138621427Y-176352785D01*
X138621427Y-176352785D02*
X138692856Y-176209928D01*
X138692856Y-176209928D02*
X138764285Y-176138500D01*
X138764285Y-176138500D02*
X138907142Y-176067071D01*
X140949998Y-177567071D02*
X140949998Y-176567071D01*
X140949998Y-176709928D02*
X141021427Y-176638500D01*
X141021427Y-176638500D02*
X141164284Y-176567071D01*
X141164284Y-176567071D02*
X141378570Y-176567071D01*
X141378570Y-176567071D02*
X141521427Y-176638500D01*
X141521427Y-176638500D02*
X141592856Y-176781357D01*
X141592856Y-176781357D02*
X141592856Y-177567071D01*
X141592856Y-176781357D02*
X141664284Y-176638500D01*
X141664284Y-176638500D02*
X141807141Y-176567071D01*
X141807141Y-176567071D02*
X142021427Y-176567071D01*
X142021427Y-176567071D02*
X142164284Y-176638500D01*
X142164284Y-176638500D02*
X142235713Y-176781357D01*
X142235713Y-176781357D02*
X142235713Y-177567071D01*
X142949998Y-177567071D02*
X142949998Y-176567071D01*
X142949998Y-176709928D02*
X143021427Y-176638500D01*
X143021427Y-176638500D02*
X143164284Y-176567071D01*
X143164284Y-176567071D02*
X143378570Y-176567071D01*
X143378570Y-176567071D02*
X143521427Y-176638500D01*
X143521427Y-176638500D02*
X143592856Y-176781357D01*
X143592856Y-176781357D02*
X143592856Y-177567071D01*
X143592856Y-176781357D02*
X143664284Y-176638500D01*
X143664284Y-176638500D02*
X143807141Y-176567071D01*
X143807141Y-176567071D02*
X144021427Y-176567071D01*
X144021427Y-176567071D02*
X144164284Y-176638500D01*
X144164284Y-176638500D02*
X144235713Y-176781357D01*
X144235713Y-176781357D02*
X144235713Y-177567071D01*
D12*
X100000000Y-175500000D02*
X100000000Y-179402420D01*
X175000000Y-175500000D02*
X175000000Y-179402420D01*
X100000000Y-178816000D02*
X175000000Y-178816000D01*
X100000000Y-178816000D02*
X175000000Y-178816000D01*
X100000000Y-178816000D02*
X101126504Y-178229579D01*
X100000000Y-178816000D02*
X101126504Y-179402421D01*
X175000000Y-178816000D02*
X173873496Y-179402421D01*
X175000000Y-178816000D02*
X173873496Y-178229579D01*
D13*
%TO.P,R65,1*%
%TO.N,+3.3V*%
X147828000Y-124334000D03*
%TO.P,R65,2*%
%TO.N,/Microprocessor/SW_POS_3v3*%
X147828000Y-125984000D03*
%TD*%
D14*
%TO.P,R64,1*%
%TO.N,+3.3V*%
X143764000Y-128524000D03*
%TO.P,R64,2*%
%TO.N,/Microprocessor/SW_NEG_3v3*%
X143764000Y-126874000D03*
%TD*%
D15*
%TO.P,U6,1*%
%TO.N,/Microprocessor/SW_POS_3v3*%
X147254000Y-128402500D03*
%TO.P,U6,2,GND*%
%TO.N,GND*%
X146304000Y-128402500D03*
%TO.P,U6,3*%
%TO.N,/Microprocessor/SW_NEG_3v3*%
X145354000Y-128402500D03*
%TO.P,U6,4*%
%TO.N,SW_NEG*%
X145354000Y-130677500D03*
%TO.P,U6,5,VCC*%
%TO.N,+5V*%
X146304000Y-130677500D03*
%TO.P,U6,6*%
%TO.N,SW_POS*%
X147254000Y-130677500D03*
%TD*%
D16*
%TO.P,C35,1*%
%TO.N,+5V*%
X147079000Y-132588000D03*
%TO.P,C35,2*%
%TO.N,GND*%
X145529000Y-132588000D03*
%TD*%
D17*
%TO.P,TP21,1,1*%
%TO.N,Net-(U5D-+)*%
X114299999Y-132587999D03*
%TD*%
D18*
%TO.P,R63,1*%
%TO.N,/U_REF*%
X112650000Y-135128000D03*
%TO.P,R63,2*%
%TO.N,Net-(U5D-+)*%
X114300000Y-135128000D03*
%TD*%
D17*
%TO.P,TP20,1,1*%
%TO.N,Net-(R62-Pad1)*%
X117347999Y-132587999D03*
%TD*%
%TO.P,TP19,1,1*%
%TO.N,Net-(R61-Pad2)*%
X120395999Y-132587999D03*
%TD*%
D18*
%TO.P,R62,1*%
%TO.N,Net-(R62-Pad1)*%
X116015000Y-135128000D03*
%TO.P,R62,2*%
%TO.N,Net-(U5D--)*%
X117665000Y-135128000D03*
%TD*%
%TO.P,R61,1*%
%TO.N,Net-(U5D--)*%
X119571000Y-135128000D03*
%TO.P,R61,2*%
%TO.N,Net-(R61-Pad2)*%
X121221000Y-135128000D03*
%TD*%
D17*
%TO.P,TP18,1,1*%
%TO.N,+3.3V*%
X106171999Y-159003999D03*
%TD*%
%TO.P,TP17,1,1*%
%TO.N,Net-(U7-PA9)*%
X112775999Y-114807999D03*
%TD*%
D19*
%TO.P,J4,1,Pin_1*%
%TO.N,+3.3V*%
X131571999Y-128015999D03*
D20*
%TO.P,J4,2,Pin_2*%
%TO.N,/Microprocessor/USART4_TX*%
X134111999Y-128015999D03*
%TO.P,J4,3,Pin_3*%
%TO.N,/Microprocessor/USART4_RX*%
X136651999Y-128015999D03*
%TO.P,J4,4,Pin_4*%
%TO.N,GND*%
X139191999Y-128015999D03*
%TD*%
D17*
%TO.P,TP16,1,1*%
%TO.N,Net-(U7-PA5)*%
X121919999Y-119887999D03*
%TD*%
%TO.P,TP15,1,1*%
%TO.N,Net-(U7-PA4)*%
X121919999Y-123951999D03*
%TD*%
%TO.P,TP14,1,1*%
%TO.N,Net-(U7-PA3)*%
X121919999Y-126491999D03*
%TD*%
%TO.P,TP13,1,1*%
%TO.N,Net-(U7-PA2)*%
X121919999Y-129031999D03*
%TD*%
D21*
%TO.P,R60,1*%
%TO.N,Net-(U7-PA10)*%
X108204000Y-110744000D03*
%TO.P,R60,2*%
%TO.N,Net-(D9-A)*%
X106554000Y-110744000D03*
%TD*%
D22*
%TO.P,D9,1,K*%
%TO.N,GND*%
X103073000Y-110744000D03*
%TO.P,D9,2,A*%
%TO.N,Net-(D9-A)*%
X104648000Y-110744000D03*
%TD*%
D17*
%TO.P,TP12,1,1*%
%TO.N,RESOLVER_TX*%
X110743999Y-111759999D03*
%TD*%
%TO.P,TP11,1,1*%
%TO.N,/Microprocessor/SW_NEG_3v3*%
X110743999Y-108711999D03*
%TD*%
%TO.P,TP10,1,1*%
%TO.N,/Microprocessor/SW_POS_3v3*%
X110743999Y-105663999D03*
%TD*%
D19*
%TO.P,J1,1,VTref*%
%TO.N,+3.3V*%
X105419499Y-115310999D03*
D20*
%TO.P,J1,2,SWDIO/TMS*%
%TO.N,/Microprocessor/SWDIO*%
X107959499Y-115310999D03*
%TO.P,J1,3,GND*%
%TO.N,GND*%
X105419499Y-117850999D03*
%TO.P,J1,4,SWDCLK/TCK*%
%TO.N,/Microprocessor/SWCK*%
X107959499Y-117850999D03*
%TO.P,J1,5,GND*%
%TO.N,GND*%
X105419499Y-120390999D03*
%TO.P,J1,6,SWO/TDO*%
%TO.N,unconnected-(J1-SWO{slash}TDO)*%
X107959499Y-120390999D03*
%TO.P,J1,7,KEY*%
%TO.N,unconnected-(J1-KEY)*%
X105419499Y-122930999D03*
%TO.P,J1,8,NC/TDI*%
%TO.N,unconnected-(J1-NC{slash}TDI)*%
X107959499Y-122930999D03*
%TO.P,J1,9,GNDDetect*%
%TO.N,GND*%
X105419499Y-125470999D03*
%TO.P,J1,10,~{RESET}*%
%TO.N,/Microprocessor/~{RESET}*%
X107959499Y-125470999D03*
%TD*%
D18*
%TO.P,R59,1*%
%TO.N,GND*%
X108395000Y-150876000D03*
%TO.P,R59,2*%
%TO.N,Net-(U5B-+)*%
X110045000Y-150876000D03*
%TD*%
D21*
%TO.P,R58,1*%
%TO.N,+3.3V*%
X107822000Y-130048000D03*
%TO.P,R58,2*%
%TO.N,/Microprocessor/~{RESET}*%
X106172000Y-130048000D03*
%TD*%
D18*
%TO.P,R57,1*%
%TO.N,GND*%
X110618000Y-130048000D03*
%TO.P,R57,2*%
%TO.N,Net-(U7-BOOT0)*%
X112268000Y-130048000D03*
%TD*%
%TO.P,R56,1*%
%TO.N,+3.3V*%
X110618000Y-128016000D03*
%TO.P,R56,2*%
%TO.N,Net-(U7-BOOT0)*%
X112268000Y-128016000D03*
%TD*%
D23*
%TO.P,U8,1,GND*%
%TO.N,GND*%
X162799999Y-123037999D03*
D24*
%TO.P,U8,2,VO*%
%TO.N,+3.3V*%
X165099999Y-116737999D03*
D23*
X165099999Y-123037999D03*
%TO.P,U8,3,VI*%
%TO.N,+5V*%
X167399999Y-123037999D03*
%TD*%
D25*
%TO.P,U7,1,BOOT0*%
%TO.N,Net-(U7-BOOT0)*%
X113407000Y-125798500D03*
%TO.P,U7,2,PF0*%
%TO.N,unconnected-(U7-PF0)*%
X114057000Y-125798500D03*
%TO.P,U7,3,PF1*%
%TO.N,unconnected-(U7-PF1)*%
X114707000Y-125798500D03*
%TO.P,U7,4,NRST*%
%TO.N,/Microprocessor/~{RESET}*%
X115357000Y-125798500D03*
%TO.P,U7,5,VDDA*%
%TO.N,+3.3V*%
X116007000Y-125798500D03*
%TO.P,U7,6,PA0*%
%TO.N,/Microprocessor/USART4_TX*%
X116657000Y-125798500D03*
%TO.P,U7,7,PA1*%
%TO.N,/Microprocessor/USART4_RX*%
X117307000Y-125798500D03*
%TO.P,U7,8,PA2*%
%TO.N,Net-(U7-PA2)*%
X117957000Y-125798500D03*
%TO.P,U7,9,PA3*%
%TO.N,Net-(U7-PA3)*%
X118607000Y-125798500D03*
%TO.P,U7,10,PA4*%
%TO.N,Net-(U7-PA4)*%
X119257000Y-125798500D03*
%TO.P,U7,11,PA5*%
%TO.N,Net-(U7-PA5)*%
X119257000Y-120073500D03*
%TO.P,U7,12,PA6*%
%TO.N,/Microprocessor/SW_POS_3v3*%
X118607000Y-120073500D03*
%TO.P,U7,13,PA7*%
%TO.N,/Microprocessor/SW_NEG_3v3*%
X117957000Y-120073500D03*
%TO.P,U7,14,PB1*%
%TO.N,RESOLVER_TX*%
X117307000Y-120073500D03*
%TO.P,U7,15,VSS*%
%TO.N,GND*%
X116657000Y-120073500D03*
%TO.P,U7,16,VDD*%
%TO.N,+3.3V*%
X116007000Y-120073500D03*
%TO.P,U7,17,PA9*%
%TO.N,Net-(U7-PA9)*%
X115357000Y-120073500D03*
%TO.P,U7,18,PA10*%
%TO.N,Net-(U7-PA10)*%
X114707000Y-120073500D03*
%TO.P,U7,19,PA13*%
%TO.N,/Microprocessor/SWDIO*%
X114057000Y-120073500D03*
%TO.P,U7,20,PA14*%
%TO.N,/Microprocessor/SWCK*%
X113407000Y-120073500D03*
%TD*%
D18*
%TO.P,R55,1*%
%TO.N,+3.3V*%
X165990000Y-113284000D03*
%TO.P,R55,2*%
%TO.N,Net-(D8-A)*%
X167640000Y-113284000D03*
%TD*%
D26*
%TO.P,D8,1,K*%
%TO.N,GND*%
X171196000Y-113284000D03*
%TO.P,D8,2,A*%
%TO.N,Net-(D8-A)*%
X169621000Y-113284000D03*
%TD*%
D27*
%TO.P,C34,1*%
%TO.N,+3.3V*%
X158496000Y-123203000D03*
%TO.P,C34,2*%
%TO.N,GND*%
X158496000Y-121653000D03*
%TD*%
%TO.P,C33,1*%
%TO.N,+3.3V*%
X160528000Y-123203000D03*
%TO.P,C33,2*%
%TO.N,GND*%
X160528000Y-121653000D03*
%TD*%
%TO.P,C32,1*%
%TO.N,+5V*%
X171704000Y-123203000D03*
%TO.P,C32,2*%
%TO.N,GND*%
X171704000Y-121653000D03*
%TD*%
%TO.P,C31,1*%
%TO.N,+5V*%
X169939000Y-123203000D03*
%TO.P,C31,2*%
%TO.N,GND*%
X169939000Y-121653000D03*
%TD*%
D16*
%TO.P,C30,1*%
%TO.N,GND*%
X117488000Y-128156000D03*
%TO.P,C30,2*%
%TO.N,+3.3V*%
X115938000Y-128156000D03*
%TD*%
D27*
%TO.P,C29,1*%
%TO.N,+3.3V*%
X115824000Y-118123000D03*
%TO.P,C29,2*%
%TO.N,GND*%
X115824000Y-116573000D03*
%TD*%
D17*
%TO.P,TP9,1,1*%
%TO.N,+5V*%
X106171999Y-162051999D03*
%TD*%
%TO.P,TP8,1,1*%
%TO.N,GND*%
X106171999Y-155955999D03*
%TD*%
%TO.P,TP7,1,1*%
%TO.N,/U_REF*%
X106171999Y-165099999D03*
%TD*%
D28*
%TO.P,C11,1*%
%TO.N,Net-(U2A--)*%
X156464000Y-137668000D03*
%TO.P,C11,2*%
%TO.N,Net-(C11-Pad2)*%
X158014000Y-137668000D03*
%TD*%
D29*
%TO.P,H4,1,1*%
%TO.N,GND*%
X105000000Y-105000000D03*
%TD*%
%TO.P,H3,1,1*%
%TO.N,GND*%
X170000000Y-105000000D03*
%TD*%
%TO.P,H2,1,1*%
%TO.N,GND*%
X170000000Y-170000000D03*
%TD*%
%TO.P,H1,1,1*%
%TO.N,GND*%
X105000000Y-170000000D03*
%TD*%
D30*
%TO.P,U5,1*%
%TO.N,/U_REF*%
X112841000Y-138430000D03*
%TO.P,U5,2,-*%
X112841000Y-139700000D03*
%TO.P,U5,3,+*%
%TO.N,Net-(U1-K)*%
X112841000Y-140970000D03*
%TO.P,U5,4,V+*%
%TO.N,+5V*%
X112841000Y-142240000D03*
%TO.P,U5,5,+*%
%TO.N,Net-(U5B-+)*%
X112841000Y-143510000D03*
%TO.P,U5,6,-*%
%TO.N,Net-(U5B--)*%
X112841000Y-144780000D03*
%TO.P,U5,7*%
%TO.N,/ESD_TXP*%
X112841000Y-146050000D03*
%TO.P,U5,8*%
%TO.N,/ESD_TXN*%
X117791000Y-146050000D03*
%TO.P,U5,9,-*%
%TO.N,Net-(U5C--)*%
X117791000Y-144780000D03*
%TO.P,U5,10,+*%
%TO.N,/U_REF*%
X117791000Y-143510000D03*
%TO.P,U5,11,V-*%
%TO.N,GND*%
X117791000Y-142240000D03*
%TO.P,U5,12,+*%
%TO.N,Net-(U5D-+)*%
X117791000Y-140970000D03*
%TO.P,U5,13,-*%
%TO.N,Net-(U5D--)*%
X117791000Y-139700000D03*
%TO.P,U5,14*%
%TO.N,Net-(R61-Pad2)*%
X117791000Y-138430000D03*
%TD*%
%TO.P,U4,1*%
%TO.N,/OUT_COS_P*%
X129097000Y-138430000D03*
%TO.P,U4,2,-*%
X129097000Y-139700000D03*
%TO.P,U4,3,+*%
%TO.N,Net-(U4A-+)*%
X129097000Y-140970000D03*
%TO.P,U4,4,V+*%
%TO.N,+5V*%
X129097000Y-142240000D03*
%TO.P,U4,5,+*%
%TO.N,/U_REF*%
X129097000Y-143510000D03*
%TO.P,U4,6,-*%
%TO.N,Net-(U4B--)*%
X129097000Y-144780000D03*
%TO.P,U4,7*%
%TO.N,/OUT_COS_N*%
X129097000Y-146050000D03*
%TO.P,U4,8*%
%TO.N,Net-(C17-Pad2)*%
X134047000Y-146050000D03*
%TO.P,U4,9,-*%
%TO.N,Net-(U4C--)*%
X134047000Y-144780000D03*
%TO.P,U4,10,+*%
%TO.N,Net-(U4C-+)*%
X134047000Y-143510000D03*
%TO.P,U4,11,V-*%
%TO.N,GND*%
X134047000Y-142240000D03*
%TO.P,U4,12,+*%
%TO.N,Net-(U4D-+)*%
X134047000Y-140970000D03*
%TO.P,U4,13,-*%
%TO.N,Net-(U4D--)*%
X134047000Y-139700000D03*
%TO.P,U4,14*%
%TO.N,Net-(C19-Pad2)*%
X134047000Y-138430000D03*
%TD*%
%TO.P,U2,1*%
%TO.N,Net-(C11-Pad2)*%
X160910000Y-138430000D03*
%TO.P,U2,2,-*%
%TO.N,Net-(U2A--)*%
X160910000Y-139700000D03*
%TO.P,U2,3,+*%
%TO.N,Net-(U2A-+)*%
X160910000Y-140970000D03*
%TO.P,U2,4,V+*%
%TO.N,+5V*%
X160910000Y-142240000D03*
%TO.P,U2,5,+*%
%TO.N,Net-(U2B-+)*%
X160910000Y-143510000D03*
%TO.P,U2,6,-*%
%TO.N,Net-(U2B--)*%
X160910000Y-144780000D03*
%TO.P,U2,7*%
%TO.N,Net-(C13-Pad2)*%
X160910000Y-146050000D03*
%TO.P,U2,8*%
%TO.N,/OUT_SIN_N*%
X165860000Y-146050000D03*
%TO.P,U2,9,-*%
%TO.N,Net-(U2C--)*%
X165860000Y-144780000D03*
%TO.P,U2,10,+*%
%TO.N,/U_REF*%
X165860000Y-143510000D03*
%TO.P,U2,11,V-*%
%TO.N,GND*%
X165860000Y-142240000D03*
%TO.P,U2,12,+*%
%TO.N,Net-(U2D-+)*%
X165860000Y-140970000D03*
%TO.P,U2,13,-*%
%TO.N,/OUT_SIN_P*%
X165860000Y-139700000D03*
%TO.P,U2,14*%
X165860000Y-138430000D03*
%TD*%
%TO.P,U3,1*%
%TO.N,Net-(R40-Pad2)*%
X144845000Y-138430000D03*
%TO.P,U3,2*%
%TO.N,Net-(R41-Pad1)*%
X144845000Y-139700000D03*
%TO.P,U3,3*%
%TO.N,Net-(R42-Pad1)*%
X144845000Y-140970000D03*
%TO.P,U3,4*%
%TO.N,Net-(R40-Pad2)*%
X144845000Y-142240000D03*
%TO.P,U3,5*%
%TO.N,SW_POS*%
X144845000Y-143510000D03*
%TO.P,U3,6*%
X144845000Y-144780000D03*
%TO.P,U3,7,VSS*%
%TO.N,GND*%
X144845000Y-146050000D03*
%TO.P,U3,8*%
%TO.N,Net-(R31-Pad2)*%
X149795000Y-146050000D03*
%TO.P,U3,9*%
%TO.N,Net-(R28-Pad1)*%
X149795000Y-144780000D03*
%TO.P,U3,10*%
%TO.N,Net-(R27-Pad1)*%
X149795000Y-143510000D03*
%TO.P,U3,11*%
%TO.N,Net-(R31-Pad2)*%
X149795000Y-142240000D03*
%TO.P,U3,12*%
%TO.N,SW_NEG*%
X149795000Y-140970000D03*
%TO.P,U3,13*%
X149795000Y-139700000D03*
%TO.P,U3,14,VDD*%
%TO.N,+5V*%
X149795000Y-138430000D03*
%TD*%
D31*
%TO.P,U1,1,K*%
%TO.N,Net-(U1-K)*%
X110157500Y-140142000D03*
%TO.P,U1,2,A*%
%TO.N,GND*%
X110157500Y-138242000D03*
%TO.P,U1,3*%
%TO.N,N/C*%
X108282500Y-139192000D03*
%TD*%
D17*
%TO.P,TP6,1,1*%
%TO.N,/OUT_COS_P*%
X121411999Y-140207999D03*
%TD*%
%TO.P,TP5,1,1*%
%TO.N,Net-(C19-Pad2)*%
X137159999Y-135127999D03*
%TD*%
%TO.P,TP4,1,1*%
%TO.N,Net-(C17-Pad2)*%
X147319999Y-151383999D03*
%TD*%
%TO.P,TP3,1,1*%
%TO.N,/OUT_SIN_P*%
X171703999Y-140207999D03*
%TD*%
%TO.P,TP2,1,1*%
%TO.N,Net-(C11-Pad2)*%
X157479999Y-135127999D03*
%TD*%
%TO.P,TP1,1,1*%
%TO.N,Net-(C13-Pad2)*%
X160019999Y-151383999D03*
%TD*%
D18*
%TO.P,R54,1*%
%TO.N,/U_REF*%
X108395000Y-148844000D03*
%TO.P,R54,2*%
%TO.N,Net-(U5B-+)*%
X110045000Y-148844000D03*
%TD*%
%TO.P,R53,1*%
%TO.N,Net-(U5B--)*%
X113983000Y-148306000D03*
%TO.P,R53,2*%
%TO.N,/ESD_TXP*%
X115633000Y-148306000D03*
%TD*%
%TO.P,R52,1*%
%TO.N,/ESD_TXP*%
X117222000Y-148336000D03*
%TO.P,R52,2*%
%TO.N,Net-(U5C--)*%
X118872000Y-148336000D03*
%TD*%
D21*
%TO.P,R51,1*%
%TO.N,RESOLVER_TX*%
X115633000Y-152400000D03*
%TO.P,R51,2*%
%TO.N,Net-(U5B--)*%
X113983000Y-152400000D03*
%TD*%
D18*
%TO.P,R50,1*%
%TO.N,+3.3V*%
X108395000Y-144780000D03*
%TO.P,R50,2*%
%TO.N,Net-(U5B-+)*%
X110045000Y-144780000D03*
%TD*%
D13*
%TO.P,R49,1*%
%TO.N,Net-(U5C--)*%
X120904000Y-144463000D03*
%TO.P,R49,2*%
%TO.N,/ESD_TXN*%
X120904000Y-146113000D03*
%TD*%
%TO.P,R48,1*%
%TO.N,Net-(U4B--)*%
X125984000Y-144780000D03*
%TO.P,R48,2*%
%TO.N,/OUT_COS_N*%
X125984000Y-146430000D03*
%TD*%
%TO.P,R47,1*%
%TO.N,/OUT_COS_P*%
X123952000Y-144780000D03*
%TO.P,R47,2*%
%TO.N,Net-(U4B--)*%
X123952000Y-146430000D03*
%TD*%
D21*
%TO.P,R46,2*%
%TO.N,Net-(U4A-+)*%
X128207000Y-136144000D03*
%TO.P,R46,1*%
%TO.N,Net-(C21-Pad2)*%
X129857000Y-136144000D03*
%TD*%
%TO.P,R45,1*%
%TO.N,Net-(C19-Pad2)*%
X134429000Y-136144000D03*
%TO.P,R45,2*%
%TO.N,Net-(C21-Pad2)*%
X132779000Y-136144000D03*
%TD*%
%TO.P,R44,1*%
%TO.N,Net-(U4D--)*%
X138176000Y-139700000D03*
%TO.P,R44,2*%
%TO.N,Net-(C19-Pad2)*%
X136526000Y-139700000D03*
%TD*%
D18*
%TO.P,R43,1*%
%TO.N,/U_REF*%
X140108000Y-137668000D03*
%TO.P,R43,2*%
%TO.N,Net-(U4D-+)*%
X141758000Y-137668000D03*
%TD*%
D21*
%TO.P,R42,1*%
%TO.N,Net-(R42-Pad1)*%
X141732000Y-141732000D03*
%TO.P,R42,2*%
%TO.N,Net-(U4D-+)*%
X140082000Y-141732000D03*
%TD*%
%TO.P,R41,1*%
%TO.N,Net-(R41-Pad1)*%
X141732000Y-139700000D03*
%TO.P,R41,2*%
%TO.N,Net-(U4D--)*%
X140082000Y-139700000D03*
%TD*%
D18*
%TO.P,R40,1*%
%TO.N,Net-(C17-Pad2)*%
X140082000Y-143764000D03*
%TO.P,R40,2*%
%TO.N,Net-(R40-Pad2)*%
X141732000Y-143764000D03*
%TD*%
D14*
%TO.P,R39,1*%
%TO.N,Net-(U4C--)*%
X144780000Y-151892000D03*
%TO.P,R39,2*%
%TO.N,Net-(C17-Pad2)*%
X144780000Y-150242000D03*
%TD*%
D13*
%TO.P,R38,1*%
%TO.N,/U_REF*%
X137160000Y-150242000D03*
%TO.P,R38,2*%
%TO.N,Net-(U4C-+)*%
X137160000Y-151892000D03*
%TD*%
D14*
%TO.P,R37,1*%
%TO.N,/ESD_RCP*%
X137160000Y-155956000D03*
%TO.P,R37,2*%
%TO.N,Net-(U4C-+)*%
X137160000Y-154306000D03*
%TD*%
%TO.P,R36,1*%
%TO.N,/ESD_RCN*%
X144780000Y-155956000D03*
%TO.P,R36,2*%
%TO.N,Net-(U4C--)*%
X144780000Y-154306000D03*
%TD*%
D13*
%TO.P,R35,1*%
%TO.N,Net-(U2C--)*%
X169164000Y-143955000D03*
%TO.P,R35,2*%
%TO.N,/OUT_SIN_N*%
X169164000Y-145605000D03*
%TD*%
%TO.P,R34,1*%
%TO.N,/OUT_SIN_P*%
X169164000Y-140399000D03*
%TO.P,R34,2*%
%TO.N,Net-(U2C--)*%
X169164000Y-142049000D03*
%TD*%
D18*
%TO.P,R33,1*%
%TO.N,Net-(C16-Pad2)*%
X164783000Y-136652000D03*
%TO.P,R33,2*%
%TO.N,Net-(U2D-+)*%
X166433000Y-136652000D03*
%TD*%
%TO.P,R32,1*%
%TO.N,Net-(C11-Pad2)*%
X160211000Y-136652000D03*
%TO.P,R32,2*%
%TO.N,Net-(C16-Pad2)*%
X161861000Y-136652000D03*
%TD*%
D21*
%TO.P,R31,1*%
%TO.N,Net-(C13-Pad2)*%
X154558000Y-143764000D03*
%TO.P,R31,2*%
%TO.N,Net-(R31-Pad2)*%
X152908000Y-143764000D03*
%TD*%
D18*
%TO.P,R30,1*%
%TO.N,Net-(U2A--)*%
X156464000Y-139700000D03*
%TO.P,R30,2*%
%TO.N,Net-(C11-Pad2)*%
X158114000Y-139700000D03*
%TD*%
D21*
%TO.P,R29,1*%
%TO.N,/U_REF*%
X154558000Y-137668000D03*
%TO.P,R29,2*%
%TO.N,Net-(U2A-+)*%
X152908000Y-137668000D03*
%TD*%
D18*
%TO.P,R28,1*%
%TO.N,Net-(R28-Pad1)*%
X152908000Y-141732000D03*
%TO.P,R28,2*%
%TO.N,Net-(U2A-+)*%
X154558000Y-141732000D03*
%TD*%
%TO.P,R27,1*%
%TO.N,Net-(R27-Pad1)*%
X152908000Y-139700000D03*
%TO.P,R27,2*%
%TO.N,Net-(U2A--)*%
X154558000Y-139700000D03*
%TD*%
D13*
%TO.P,R26,1*%
%TO.N,/U_REF*%
X149860000Y-150368000D03*
%TO.P,R26,2*%
%TO.N,Net-(U2B-+)*%
X149860000Y-152018000D03*
%TD*%
D14*
%TO.P,R25,1*%
%TO.N,Net-(U2B--)*%
X157480000Y-151892000D03*
%TO.P,R25,2*%
%TO.N,Net-(C13-Pad2)*%
X157480000Y-150242000D03*
%TD*%
%TO.P,R24,1*%
%TO.N,/ESD_RSN*%
X157480000Y-155956000D03*
%TO.P,R24,2*%
%TO.N,Net-(U2B--)*%
X157480000Y-154306000D03*
%TD*%
%TO.P,R23,1*%
%TO.N,/ESD_RSP*%
X149860000Y-155956000D03*
%TO.P,R23,2*%
%TO.N,Net-(U2B-+)*%
X149860000Y-154306000D03*
%TD*%
%TO.P,R22,1*%
%TO.N,/OUT_SIN_N*%
X132080000Y-119697000D03*
%TO.P,R22,2*%
%TO.N,/ESD_SINN*%
X132080000Y-118047000D03*
%TD*%
%TO.P,R21,1*%
%TO.N,/OUT_SIN_P*%
X139700000Y-119697000D03*
%TO.P,R21,2*%
%TO.N,/ESD_SINP*%
X139700000Y-118047000D03*
%TD*%
%TO.P,R20,1*%
%TO.N,/OUT_COS_N*%
X142240000Y-119697000D03*
%TO.P,R20,2*%
%TO.N,/ESD_COSN*%
X142240000Y-118047000D03*
%TD*%
%TO.P,R19,1*%
%TO.N,/OUT_COS_P*%
X149860000Y-119697000D03*
%TO.P,R19,2*%
%TO.N,/ESD_COSP*%
X149860000Y-118047000D03*
%TD*%
%TO.P,R18,1*%
%TO.N,/ESD_SINN*%
X132080000Y-116332000D03*
%TO.P,R18,2*%
%TO.N,Net-(J3-Pin_6)*%
X132080000Y-114682000D03*
%TD*%
%TO.P,R17,1*%
%TO.N,/ESD_SINP*%
X137160000Y-116332000D03*
%TO.P,R17,2*%
%TO.N,Net-(J3-Pin_5)*%
X137160000Y-114682000D03*
%TD*%
%TO.P,R16,1*%
%TO.N,/ESD_COSN*%
X142240000Y-116332000D03*
%TO.P,R16,2*%
%TO.N,Net-(J3-Pin_4)*%
X142240000Y-114682000D03*
%TD*%
%TO.P,R15,1*%
%TO.N,/ESD_COSP*%
X147320000Y-116332000D03*
%TO.P,R15,2*%
%TO.N,Net-(J3-Pin_3)*%
X147320000Y-114682000D03*
%TD*%
D18*
%TO.P,R14,1*%
%TO.N,+5V*%
X166027500Y-111252000D03*
%TO.P,R14,2*%
%TO.N,Net-(D7-A)*%
X167677500Y-111252000D03*
%TD*%
D14*
%TO.P,R7,1*%
%TO.N,Net-(J2-Pin_2)*%
X127000000Y-160020000D03*
%TO.P,R7,2*%
%TO.N,/ESD_TXN*%
X127000000Y-158370000D03*
%TD*%
%TO.P,R6,1*%
%TO.N,Net-(J2-Pin_1)*%
X121920000Y-160020000D03*
%TO.P,R6,2*%
%TO.N,/ESD_TXP*%
X121920000Y-158370000D03*
%TD*%
%TO.P,R5,1*%
%TO.N,Net-(J2-Pin_8)*%
X157480000Y-160020000D03*
%TO.P,R5,2*%
%TO.N,/ESD_RSN*%
X157480000Y-158370000D03*
%TD*%
%TO.P,R4,1*%
%TO.N,Net-(J2-Pin_7)*%
X152400000Y-160020000D03*
%TO.P,R4,2*%
%TO.N,/ESD_RSP*%
X152400000Y-158370000D03*
%TD*%
%TO.P,R3,1*%
%TO.N,Net-(J2-Pin_5)*%
X142240000Y-160020000D03*
%TO.P,R3,2*%
%TO.N,/ESD_RCN*%
X142240000Y-158370000D03*
%TD*%
%TO.P,R2,1*%
%TO.N,Net-(J2-Pin_4)*%
X137160000Y-160020000D03*
%TO.P,R2,2*%
%TO.N,/ESD_RCP*%
X137160000Y-158370000D03*
%TD*%
D18*
%TO.P,R1,1*%
%TO.N,+5V*%
X108395000Y-136144000D03*
%TO.P,R1,2*%
%TO.N,Net-(U1-K)*%
X110045000Y-136144000D03*
%TD*%
D32*
%TO.P,J3,1,Pin_1*%
%TO.N,+5V*%
X157480000Y-110236000D03*
D33*
%TO.P,J3,2,Pin_2*%
X152399999Y-110235999D03*
%TO.P,J3,3,Pin_3*%
%TO.N,Net-(J3-Pin_3)*%
X147319999Y-110235999D03*
%TO.P,J3,4,Pin_4*%
%TO.N,Net-(J3-Pin_4)*%
X142239999Y-110235999D03*
%TO.P,J3,5,Pin_5*%
%TO.N,Net-(J3-Pin_5)*%
X137159999Y-110235999D03*
%TO.P,J3,6,Pin_6*%
%TO.N,Net-(J3-Pin_6)*%
X132079999Y-110235999D03*
%TO.P,J3,7,Pin_7*%
%TO.N,GND*%
X126999999Y-110235999D03*
%TO.P,J3,8,Pin_8*%
X121919999Y-110235999D03*
%TD*%
D34*
%TO.P,J2,1,Pin_1*%
%TO.N,Net-(J2-Pin_1)*%
X121920000Y-164592000D03*
D33*
%TO.P,J2,2,Pin_2*%
%TO.N,Net-(J2-Pin_2)*%
X126999999Y-164591999D03*
%TO.P,J2,3,Pin_3*%
%TO.N,GND*%
X132079999Y-164591999D03*
%TO.P,J2,4,Pin_4*%
%TO.N,Net-(J2-Pin_4)*%
X137159999Y-164591999D03*
%TO.P,J2,5,Pin_5*%
%TO.N,Net-(J2-Pin_5)*%
X142239999Y-164591999D03*
%TO.P,J2,6,Pin_6*%
%TO.N,GND*%
X147319999Y-164591999D03*
%TO.P,J2,7,Pin_7*%
%TO.N,Net-(J2-Pin_7)*%
X152399999Y-164591999D03*
%TO.P,J2,8,Pin_8*%
%TO.N,Net-(J2-Pin_8)*%
X157479999Y-164591999D03*
%TD*%
D26*
%TO.P,D7,2,A*%
%TO.N,Net-(D7-A)*%
X169621000Y-111252000D03*
%TO.P,D7,1,K*%
%TO.N,GND*%
X171196000Y-111252000D03*
%TD*%
D35*
%TO.P,D5,1,GND*%
%TO.N,GND*%
X146795999Y-120129999D03*
D36*
%TO.P,D5,2,I/O1*%
%TO.N,/ESD_COSP*%
X146795999Y-118429999D03*
%TO.P,D5,3,I/O2*%
%TO.N,/ESD_COSN*%
X144795999Y-118429999D03*
%TO.P,D5,4,VCC*%
%TO.N,+5V*%
X144795999Y-120329999D03*
%TD*%
D35*
%TO.P,D4,1,GND*%
%TO.N,GND*%
X137143999Y-120129999D03*
D36*
%TO.P,D4,2,I/O1*%
%TO.N,/ESD_SINP*%
X137143999Y-118429999D03*
%TO.P,D4,3,I/O2*%
%TO.N,/ESD_SINN*%
X135143999Y-118429999D03*
%TO.P,D4,4,VCC*%
%TO.N,+5V*%
X135143999Y-120329999D03*
%TD*%
D35*
%TO.P,D3,1,GND*%
%TO.N,GND*%
X152415999Y-154189999D03*
D36*
%TO.P,D3,2,I/O1*%
%TO.N,/ESD_RSP*%
X152415999Y-155889999D03*
%TO.P,D3,3,I/O2*%
%TO.N,/ESD_RSN*%
X154415999Y-155889999D03*
%TO.P,D3,4,VCC*%
%TO.N,+5V*%
X154415999Y-153989999D03*
%TD*%
D35*
%TO.P,D2,1,GND*%
%TO.N,GND*%
X139715999Y-154189999D03*
D36*
%TO.P,D2,2,I/O1*%
%TO.N,/ESD_RCP*%
X139715999Y-155889999D03*
%TO.P,D2,3,I/O2*%
%TO.N,/ESD_RCN*%
X141715999Y-155889999D03*
%TO.P,D2,4,VCC*%
%TO.N,+5V*%
X141715999Y-153989999D03*
%TD*%
D35*
%TO.P,D1,1,GND*%
%TO.N,GND*%
X124983999Y-154189999D03*
D36*
%TO.P,D1,2,I/O1*%
%TO.N,/ESD_TXP*%
X124983999Y-155889999D03*
%TO.P,D1,3,I/O2*%
%TO.N,/ESD_TXN*%
X126983999Y-155889999D03*
%TO.P,D1,4,VCC*%
%TO.N,+5V*%
X126983999Y-153989999D03*
%TD*%
D28*
%TO.P,C28,1*%
%TO.N,Net-(U5B--)*%
X114033000Y-150368000D03*
%TO.P,C28,2*%
%TO.N,/ESD_TXP*%
X115583000Y-150368000D03*
%TD*%
%TO.P,C27,1*%
%TO.N,GND*%
X108445000Y-146812000D03*
%TO.P,C27,2*%
%TO.N,Net-(U5B-+)*%
X109995000Y-146812000D03*
%TD*%
D16*
%TO.P,C26,1*%
%TO.N,+5V*%
X110744000Y-142240000D03*
%TO.P,C26,2*%
%TO.N,GND*%
X109194000Y-142240000D03*
%TD*%
%TO.P,C25,1*%
%TO.N,+5V*%
X126251000Y-142240000D03*
%TO.P,C25,2*%
%TO.N,GND*%
X124701000Y-142240000D03*
%TD*%
%TO.P,C24,1*%
%TO.N,+5V*%
X157988000Y-142240000D03*
%TO.P,C24,2*%
%TO.N,GND*%
X156438000Y-142240000D03*
%TD*%
%TO.P,C23,1*%
%TO.N,+5V*%
X148095000Y-136652000D03*
%TO.P,C23,2*%
%TO.N,GND*%
X146545000Y-136652000D03*
%TD*%
%TO.P,C22,1*%
%TO.N,GND*%
X129807000Y-134112000D03*
%TO.P,C22,2*%
%TO.N,Net-(U4A-+)*%
X128257000Y-134112000D03*
%TD*%
D27*
%TO.P,C21,1*%
%TO.N,/OUT_COS_P*%
X125984000Y-138443000D03*
%TO.P,C21,2*%
%TO.N,Net-(C21-Pad2)*%
X125984000Y-136893000D03*
%TD*%
D28*
%TO.P,C20,1*%
%TO.N,GND*%
X140208000Y-135636000D03*
%TO.P,C20,2*%
%TO.N,Net-(U4D-+)*%
X141758000Y-135636000D03*
%TD*%
D16*
%TO.P,C19,1*%
%TO.N,Net-(U4D--)*%
X138176000Y-137668000D03*
%TO.P,C19,2*%
%TO.N,Net-(C19-Pad2)*%
X136626000Y-137668000D03*
%TD*%
D27*
%TO.P,C18,1*%
%TO.N,GND*%
X139700000Y-151892000D03*
%TO.P,C18,2*%
%TO.N,Net-(U4C-+)*%
X139700000Y-150342000D03*
%TD*%
%TO.P,C17,1*%
%TO.N,Net-(U4C--)*%
X142748000Y-151892000D03*
%TO.P,C17,2*%
%TO.N,Net-(C17-Pad2)*%
X142748000Y-150342000D03*
%TD*%
%TO.P,C16,1*%
%TO.N,/OUT_SIN_P*%
X168656000Y-138443000D03*
%TO.P,C16,2*%
%TO.N,Net-(C16-Pad2)*%
X168656000Y-136893000D03*
%TD*%
D28*
%TO.P,C15,1*%
%TO.N,GND*%
X164833000Y-134620000D03*
%TO.P,C15,2*%
%TO.N,Net-(U2D-+)*%
X166383000Y-134620000D03*
%TD*%
D27*
%TO.P,C14,1*%
%TO.N,GND*%
X152400000Y-151892000D03*
%TO.P,C14,2*%
%TO.N,Net-(U2B-+)*%
X152400000Y-150342000D03*
%TD*%
%TO.P,C13,1*%
%TO.N,Net-(U2B--)*%
X155448000Y-151892000D03*
%TO.P,C13,2*%
%TO.N,Net-(C13-Pad2)*%
X155448000Y-150342000D03*
%TD*%
D16*
%TO.P,C12,1*%
%TO.N,GND*%
X154508000Y-135636000D03*
%TO.P,C12,2*%
%TO.N,Net-(U2A-+)*%
X152958000Y-135636000D03*
%TD*%
D27*
%TO.P,C10,1*%
%TO.N,/ESD_SINN*%
X134620000Y-116282000D03*
%TO.P,C10,2*%
%TO.N,GND*%
X134620000Y-114732000D03*
%TD*%
%TO.P,C9,1*%
%TO.N,/ESD_SINP*%
X139700000Y-116282000D03*
%TO.P,C9,2*%
%TO.N,GND*%
X139700000Y-114732000D03*
%TD*%
%TO.P,C8,1*%
%TO.N,/ESD_COSN*%
X144780000Y-116282000D03*
%TO.P,C8,2*%
%TO.N,GND*%
X144780000Y-114732000D03*
%TD*%
%TO.P,C7,1*%
%TO.N,/ESD_COSP*%
X149860000Y-116282000D03*
%TO.P,C7,2*%
%TO.N,GND*%
X149860000Y-114732000D03*
%TD*%
D37*
%TO.P,C6,1*%
%TO.N,/ESD_RSN*%
X154940000Y-158470000D03*
%TO.P,C6,2*%
%TO.N,GND*%
X154940000Y-160020000D03*
%TD*%
%TO.P,C5,1*%
%TO.N,/ESD_RSP*%
X149860000Y-158470000D03*
%TO.P,C5,2*%
%TO.N,GND*%
X149860000Y-160020000D03*
%TD*%
%TO.P,C4,1*%
%TO.N,/ESD_RCN*%
X144780000Y-158470000D03*
%TO.P,C4,2*%
%TO.N,GND*%
X144780000Y-160020000D03*
%TD*%
%TO.P,C3,1*%
%TO.N,/ESD_RCP*%
X139700000Y-158470000D03*
%TO.P,C3,2*%
%TO.N,GND*%
X139700000Y-160020000D03*
%TD*%
%TO.P,C2,1*%
%TO.N,/ESD_TXN*%
X129540000Y-158470000D03*
%TO.P,C2,2*%
%TO.N,GND*%
X129540000Y-160020000D03*
%TD*%
%TO.P,C1,1*%
%TO.N,/ESD_TXP*%
X124460000Y-158450000D03*
%TO.P,C1,2*%
%TO.N,GND*%
X124460000Y-160000000D03*
%TD*%
D38*
%TO.N,+3.3V*%
X142748000Y-128524000D03*
X146812000Y-124460000D03*
%TO.N,GND*%
X146304000Y-127000000D03*
X146304000Y-134112000D03*
%TO.N,+5V*%
X148477500Y-133096000D03*
%TO.N,/U_REF*%
X108204000Y-165100000D03*
%TO.N,+3.3V*%
X108204000Y-159512000D03*
%TO.N,GND*%
X102616000Y-111760000D03*
%TO.N,RESOLVER_TX*%
X116840000Y-152400000D03*
X113792000Y-121920000D03*
%TO.N,+3.3V*%
X107188000Y-144272000D03*
%TO.N,GND*%
X109728000Y-129540000D03*
%TO.N,+3.3V*%
X109728000Y-128016000D03*
X156972000Y-122936000D03*
%TO.N,SW_NEG*%
X148336000Y-131572000D03*
X147828000Y-140208000D03*
%TO.N,SW_POS*%
X146304000Y-144272000D03*
X148336000Y-130556000D03*
%TO.N,GND*%
X116848332Y-118364174D03*
X107696000Y-151384000D03*
X163068000Y-121412000D03*
X171196000Y-120904000D03*
X169672000Y-120904000D03*
X161036000Y-120904000D03*
X159004000Y-120904000D03*
%TO.N,+5V*%
X167640000Y-121412000D03*
%TO.N,GND*%
X172212000Y-112776000D03*
%TO.N,+3.3V*%
X115245079Y-117499187D03*
%TO.N,GND*%
X115316000Y-115824000D03*
%TO.N,+3.3V*%
X115189000Y-128664000D03*
%TO.N,GND*%
X118237000Y-128664000D03*
%TO.N,+5V*%
X108204000Y-163068000D03*
%TO.N,GND*%
X108204000Y-156458000D03*
%TO.N,/U_REF*%
X111252000Y-139192000D03*
%TO.N,+5V*%
X107696000Y-136652000D03*
%TO.N,GND*%
X109220000Y-137668000D03*
%TO.N,/U_REF*%
X109220000Y-149860000D03*
%TO.N,GND*%
X107696000Y-147320000D03*
X153924000Y-161036000D03*
X148844000Y-161036000D03*
X145796000Y-161036000D03*
X140208000Y-161036000D03*
X119380000Y-142240000D03*
X109728000Y-141224000D03*
%TO.N,+5V*%
X110236000Y-143256000D03*
%TO.N,/U_REF*%
X164084000Y-143256000D03*
X162560000Y-135636000D03*
X153924000Y-149352000D03*
X139192000Y-136652000D03*
X127508000Y-150368000D03*
X127508000Y-143764000D03*
%TO.N,/OUT_SIN_N*%
X170180000Y-145288000D03*
X132080000Y-120904000D03*
%TO.N,/OUT_SIN_P*%
X139700000Y-120904000D03*
X169672000Y-138176000D03*
%TO.N,/OUT_COS_N*%
X130556000Y-121778500D03*
X130556000Y-146304000D03*
%TO.N,/OUT_COS_P*%
X124460000Y-138684000D03*
X129540000Y-122936000D03*
%TO.N,GND*%
X150876000Y-114300000D03*
X145796000Y-114300000D03*
X140716000Y-114300000D03*
X135636000Y-114300000D03*
X145796000Y-119380000D03*
%TO.N,+5V*%
X143764000Y-119380000D03*
X134112000Y-119380000D03*
%TO.N,GND*%
X136144000Y-119380000D03*
%TO.N,+5V*%
X128016000Y-154940000D03*
%TO.N,GND*%
X125984000Y-154940000D03*
X130556000Y-161036000D03*
X125476000Y-161036000D03*
%TO.N,Net-(U2D-+)*%
X167640000Y-140716000D03*
X167640000Y-135636000D03*
%TO.N,Net-(U4A-+)*%
X127508000Y-135128000D03*
X127508000Y-140716000D03*
%TO.N,GND*%
X163576000Y-135128000D03*
X131064000Y-134620000D03*
X172440500Y-110822500D03*
%TO.N,+5V*%
X165328500Y-109806500D03*
%TO.N,/U_REF*%
X153924000Y-136652000D03*
%TO.N,GND*%
X153924000Y-134620000D03*
X140716000Y-134620000D03*
X146304000Y-146304000D03*
X125476000Y-141224000D03*
%TO.N,+5V*%
X125476000Y-143256000D03*
%TO.N,GND*%
X156464000Y-143256000D03*
%TO.N,+5V*%
X157480000Y-143256000D03*
%TO.N,GND*%
X146812000Y-135636000D03*
%TO.N,+5V*%
X147828000Y-135636000D03*
%TO.N,Net-(U2B-+)*%
X158496000Y-143764000D03*
X151384000Y-150876000D03*
%TO.N,GND*%
X167640000Y-142240000D03*
X135636000Y-142240000D03*
X153416000Y-152400000D03*
X140716000Y-152258500D03*
%TO.N,+5V*%
X142748000Y-154940000D03*
X155448000Y-154940000D03*
%TO.N,GND*%
X153416000Y-154940000D03*
X140716000Y-154940000D03*
%TO.N,/U_REF*%
X138684000Y-149860000D03*
X148844000Y-150876000D03*
%TO.N,Net-(U2B--)*%
X157988000Y-152908000D03*
X159004000Y-144780000D03*
%TO.N,Net-(U4C-+)*%
X138176000Y-150876000D03*
X135636000Y-143764000D03*
%TO.N,Net-(U4C--)*%
X135636000Y-144780000D03*
X143256000Y-152908000D03*
%TD*%
D39*
%TO.N,+3.3V*%
X143764000Y-128524000D02*
X142748000Y-128524000D01*
X146938000Y-124334000D02*
X146812000Y-124460000D01*
X147828000Y-124334000D02*
X146938000Y-124334000D01*
D40*
%TO.N,/Microprocessor/SW_POS_3v3*%
X147254000Y-128402500D02*
X147254000Y-127066000D01*
X147254000Y-127066000D02*
X147254000Y-127030761D01*
X147828000Y-125984000D02*
X147254000Y-126558000D01*
X147254000Y-126558000D02*
X147254000Y-127066000D01*
%TO.N,/Microprocessor/SW_NEG_3v3*%
X143764000Y-126874000D02*
X144398000Y-126874000D01*
X144398000Y-126874000D02*
X144780000Y-126492000D01*
%TO.N,/Microprocessor/SW_POS_3v3*%
X118607000Y-120073500D02*
X118607000Y-112395628D01*
X118607000Y-112395628D02*
X111875372Y-105664000D01*
X111875372Y-105664000D02*
X110744000Y-105664000D01*
%TO.N,/Microprocessor/SW_NEG_3v3*%
X117957000Y-120073500D02*
X117957000Y-112311314D01*
X117957000Y-112311314D02*
X114357686Y-108712000D01*
X114357686Y-108712000D02*
X110744000Y-108712000D01*
%TO.N,/Microprocessor/SW_POS_3v3*%
X147254000Y-127030761D02*
X145299239Y-125076000D01*
X145299239Y-125076000D02*
X130721685Y-125076000D01*
X130721685Y-125076000D02*
X127057685Y-121412000D01*
X127057685Y-121412000D02*
X118872000Y-121412000D01*
X118872000Y-121412000D02*
X118607000Y-121147000D01*
X118607000Y-121147000D02*
X118607000Y-120073500D01*
%TO.N,/Microprocessor/SW_NEG_3v3*%
X117957000Y-120073500D02*
X117957000Y-121354686D01*
X117957000Y-121354686D02*
X118414314Y-121812000D01*
X130556000Y-125476000D02*
X128524000Y-123444000D01*
X132080000Y-125476000D02*
X130556000Y-125476000D01*
X126891999Y-121812000D02*
X120396000Y-121812000D01*
X145354000Y-127066000D02*
X144780000Y-126492000D01*
X144780000Y-126492000D02*
X143764000Y-125476000D01*
X145354000Y-128402500D02*
X145354000Y-127066000D01*
X120396000Y-121812000D02*
X118414314Y-121812000D01*
X143764000Y-125476000D02*
X132080000Y-125476000D01*
X128524000Y-123444000D02*
X126891999Y-121812000D01*
%TO.N,SW_NEG*%
X148844000Y-129540000D02*
X149352000Y-130048000D01*
X149352000Y-130048000D02*
X149352000Y-130556000D01*
X145354000Y-129982000D02*
X145796000Y-129540000D01*
X145796000Y-129540000D02*
X148844000Y-129540000D01*
X145354000Y-130677500D02*
X145354000Y-129982000D01*
X149352000Y-130556000D02*
X148336000Y-131572000D01*
%TO.N,SW_POS*%
X147254000Y-130677500D02*
X148214500Y-130677500D01*
X148214500Y-130677500D02*
X148336000Y-130556000D01*
D39*
%TO.N,GND*%
X146304000Y-128402500D02*
X146304000Y-127000000D01*
X145529000Y-133337000D02*
X146304000Y-134112000D01*
X145529000Y-132588000D02*
X145529000Y-133337000D01*
%TO.N,+5V*%
X147969500Y-132588000D02*
X148477500Y-133096000D01*
X147079000Y-132588000D02*
X147969500Y-132588000D01*
X146304000Y-130677500D02*
X146304000Y-131813000D01*
X146304000Y-131813000D02*
X147079000Y-132588000D01*
D40*
%TO.N,Net-(R61-Pad2)*%
X117791000Y-138430000D02*
X120142000Y-138430000D01*
X120142000Y-138430000D02*
X121221000Y-137351000D01*
X121221000Y-137351000D02*
X121221000Y-135128000D01*
X120396000Y-132588000D02*
X121221000Y-133413000D01*
X121221000Y-133413000D02*
X121221000Y-135128000D01*
%TO.N,Net-(R62-Pad1)*%
X116015000Y-135128000D02*
X117348000Y-133795000D01*
X117348000Y-133795000D02*
X117348000Y-132588000D01*
%TO.N,Net-(U5D-+)*%
X114300000Y-135128000D02*
X114300000Y-132588000D01*
%TO.N,Net-(U5D--)*%
X117791000Y-139700000D02*
X116389686Y-139700000D01*
X116389686Y-139700000D02*
X115824000Y-139134314D01*
X115824000Y-139134314D02*
X115824000Y-136969000D01*
X115824000Y-136969000D02*
X117665000Y-135128000D01*
%TO.N,Net-(U5D-+)*%
X117791000Y-140970000D02*
X116586000Y-140970000D01*
X116586000Y-140970000D02*
X114300000Y-138684000D01*
X114300000Y-138684000D02*
X114300000Y-135128000D01*
%TO.N,Net-(U5D--)*%
X119571000Y-135128000D02*
X117665000Y-135128000D01*
%TO.N,/U_REF*%
X112841000Y-139700000D02*
X114300000Y-139700000D01*
X114300000Y-139700000D02*
X115824000Y-141224000D01*
X115824000Y-141224000D02*
X115824000Y-143256000D01*
X115824000Y-143256000D02*
X116078000Y-143510000D01*
X116078000Y-143510000D02*
X117791000Y-143510000D01*
X112841000Y-138430000D02*
X112841000Y-135319000D01*
X106172000Y-165100000D02*
X108204000Y-165100000D01*
D39*
%TO.N,+5V*%
X106680000Y-162052000D02*
X107188000Y-162052000D01*
X107188000Y-162052000D02*
X108204000Y-163068000D01*
%TO.N,GND*%
X106680000Y-155956000D02*
X107702000Y-155956000D01*
X107702000Y-155956000D02*
X108204000Y-156458000D01*
%TO.N,+3.3V*%
X107696000Y-159004000D02*
X108204000Y-159512000D01*
X106172000Y-159004000D02*
X107696000Y-159004000D01*
D40*
%TO.N,Net-(U7-PA2)*%
X118814314Y-127508000D02*
X119380000Y-127508000D01*
X117957000Y-126650686D02*
X118814314Y-127508000D01*
X117957000Y-125798500D02*
X117957000Y-126650686D01*
X119380000Y-127508000D02*
X120904000Y-129032000D01*
X120904000Y-129032000D02*
X121920000Y-129032000D01*
%TO.N,Net-(U7-PA3)*%
X119888000Y-127000000D02*
X120396000Y-126492000D01*
X118872000Y-127000000D02*
X119888000Y-127000000D01*
X118607000Y-125798500D02*
X118607000Y-126735000D01*
X118607000Y-126735000D02*
X118872000Y-127000000D01*
X120396000Y-126492000D02*
X121920000Y-126492000D01*
%TO.N,Net-(U7-PA4)*%
X119257000Y-125798500D02*
X119257000Y-124583000D01*
X119257000Y-124583000D02*
X119888000Y-123952000D01*
X119888000Y-123952000D02*
X121920000Y-123952000D01*
%TO.N,/Microprocessor/USART4_RX*%
X117307000Y-125798500D02*
X117307000Y-125009000D01*
X117307000Y-125009000D02*
X119704000Y-122612000D01*
X129540000Y-125591371D02*
X129540000Y-129540000D01*
X119704000Y-122612000D02*
X126560629Y-122612000D01*
X126560629Y-122612000D02*
X129540000Y-125591371D01*
X129540000Y-129540000D02*
X130048000Y-130048000D01*
X130048000Y-130048000D02*
X134620000Y-130048000D01*
X134620000Y-130048000D02*
X136652000Y-128016000D01*
%TO.N,/Microprocessor/USART4_TX*%
X116657000Y-125798500D02*
X116657000Y-124135000D01*
X116657000Y-124135000D02*
X118580000Y-122212000D01*
X118580000Y-122212000D02*
X126726314Y-122212000D01*
X126726314Y-122212000D02*
X130390315Y-125876000D01*
X130390315Y-125876000D02*
X133604000Y-125876000D01*
X133604000Y-125876000D02*
X134112000Y-126384000D01*
X134112000Y-126384000D02*
X134112000Y-128016000D01*
%TO.N,Net-(U7-PA9)*%
X115357000Y-120073500D02*
X115357000Y-119305628D01*
X115357000Y-119305628D02*
X112776000Y-116724628D01*
X112776000Y-116724628D02*
X112776000Y-114808000D01*
%TO.N,RESOLVER_TX*%
X117498332Y-112418332D02*
X116840000Y-111760000D01*
X117498332Y-118633413D02*
X117498332Y-112418332D01*
X117307000Y-118824745D02*
X117498332Y-118633413D01*
X117307000Y-120073500D02*
X117307000Y-118824745D01*
X116840000Y-111760000D02*
X110744000Y-111760000D01*
X117307000Y-120073500D02*
X117307000Y-121453000D01*
X117307000Y-121453000D02*
X116840000Y-121920000D01*
X116840000Y-121920000D02*
X113792000Y-121920000D01*
%TO.N,Net-(U7-PA5)*%
X119257000Y-120073500D02*
X119442500Y-119888000D01*
X119442500Y-119888000D02*
X121920000Y-119888000D01*
%TO.N,Net-(U7-PA10)*%
X108204000Y-110744000D02*
X108204000Y-112268000D01*
X108204000Y-112268000D02*
X109728000Y-113792000D01*
X109728000Y-113792000D02*
X109728000Y-114242314D01*
X114707000Y-119221314D02*
X114707000Y-120073500D01*
X109728000Y-114242314D02*
X114707000Y-119221314D01*
%TO.N,Net-(D9-A)*%
X104648000Y-110744000D02*
X106554000Y-110744000D01*
D39*
%TO.N,GND*%
X103073000Y-111303000D02*
X102616000Y-111760000D01*
X103073000Y-110744000D02*
X103073000Y-111303000D01*
D40*
%TO.N,/ESD_TXN*%
X120904000Y-146113000D02*
X120904000Y-150310314D01*
X120904000Y-150310314D02*
X122993686Y-152400000D01*
X122993686Y-152400000D02*
X128016000Y-152400000D01*
X128016000Y-152400000D02*
X129032000Y-153416000D01*
X129032000Y-153416000D02*
X129032000Y-155448000D01*
X129032000Y-155448000D02*
X128524000Y-155956000D01*
X128524000Y-155956000D02*
X127050000Y-155956000D01*
%TO.N,/ESD_TXP*%
X121920000Y-151892000D02*
X120396000Y-150368000D01*
X121920000Y-158370000D02*
X121920000Y-151892000D01*
X120396000Y-150368000D02*
X115583000Y-150368000D01*
%TO.N,RESOLVER_TX*%
X116840000Y-152400000D02*
X115633000Y-152400000D01*
D39*
%TO.N,+3.3V*%
X107696000Y-144780000D02*
X107188000Y-144272000D01*
X108395000Y-144780000D02*
X107696000Y-144780000D01*
D40*
%TO.N,/Microprocessor/~{RESET}*%
X106172000Y-130048000D02*
X106172000Y-129032000D01*
X106172000Y-129032000D02*
X107959500Y-127244500D01*
X107959500Y-127244500D02*
X107959500Y-125471000D01*
D39*
%TO.N,+3.3V*%
X107822000Y-129922000D02*
X109728000Y-128016000D01*
%TO.N,GND*%
X110236000Y-130048000D02*
X109728000Y-129540000D01*
X110618000Y-130048000D02*
X110236000Y-130048000D01*
%TO.N,+3.3V*%
X110618000Y-128016000D02*
X109728000Y-128016000D01*
D40*
%TO.N,Net-(U7-BOOT0)*%
X113407000Y-125798500D02*
X113407000Y-127385000D01*
X113407000Y-127385000D02*
X112776000Y-128016000D01*
X112776000Y-128016000D02*
X112268000Y-128016000D01*
X112268000Y-130048000D02*
X112268000Y-128016000D01*
D39*
%TO.N,+3.3V*%
X157239000Y-123203000D02*
X156972000Y-122936000D01*
X158496000Y-123203000D02*
X157239000Y-123203000D01*
D40*
%TO.N,SW_NEG*%
X147828000Y-140208000D02*
X148336000Y-139700000D01*
X148336000Y-139700000D02*
X149795000Y-139700000D01*
%TO.N,SW_POS*%
X146304000Y-144272000D02*
X145542000Y-143510000D01*
D39*
%TO.N,GND*%
X116657000Y-120073500D02*
X116699000Y-120031500D01*
X116699000Y-120031500D02*
X116699000Y-118513506D01*
X116699000Y-118513506D02*
X116848332Y-118364174D01*
%TO.N,+3.3V*%
X116007000Y-120073500D02*
X116007000Y-118306000D01*
X115245079Y-117499187D02*
X115245079Y-117544079D01*
X115245079Y-117544079D02*
X115824000Y-118123000D01*
%TO.N,GND*%
X115316000Y-115824000D02*
X115824000Y-116332000D01*
%TO.N,+3.3V*%
X116007000Y-125798500D02*
X116007000Y-128087000D01*
D40*
%TO.N,/Microprocessor/~{RESET}*%
X115357000Y-124501000D02*
X114808000Y-123952000D01*
X115357000Y-125798500D02*
X115357000Y-124501000D01*
X114808000Y-123952000D02*
X109478500Y-123952000D01*
X109478500Y-123952000D02*
X107959500Y-125471000D01*
%TO.N,/Microprocessor/SWDIO*%
X114057000Y-120073500D02*
X114057000Y-119137000D01*
X114057000Y-119137000D02*
X110231000Y-115311000D01*
X110231000Y-115311000D02*
X107959500Y-115311000D01*
%TO.N,/Microprocessor/SWCK*%
X113407000Y-120073500D02*
X111945500Y-120073500D01*
X111945500Y-120073500D02*
X109723000Y-117851000D01*
X109723000Y-117851000D02*
X107959500Y-117851000D01*
%TO.N,Net-(U5B--)*%
X114033000Y-150368000D02*
X114033000Y-152350000D01*
D39*
%TO.N,GND*%
X108204000Y-150876000D02*
X107696000Y-151384000D01*
D40*
%TO.N,Net-(U5B-+)*%
X110045000Y-148844000D02*
X110045000Y-150876000D01*
D39*
%TO.N,+5V*%
X169939000Y-123203000D02*
X171704000Y-123203000D01*
X167400000Y-123038000D02*
X169774000Y-123038000D01*
%TO.N,+3.3V*%
X160528000Y-123203000D02*
X160528000Y-123952000D01*
X160528000Y-123952000D02*
X161036000Y-124460000D01*
X163928000Y-124460000D02*
X165100000Y-123288000D01*
X161036000Y-124460000D02*
X163928000Y-124460000D01*
X158496000Y-123203000D02*
X160528000Y-123203000D01*
%TO.N,GND*%
X162800000Y-121680000D02*
X163068000Y-121412000D01*
X162800000Y-123038000D02*
X162800000Y-121680000D01*
X171704000Y-121412000D02*
X171196000Y-120904000D01*
X169939000Y-121171000D02*
X169672000Y-120904000D01*
X169939000Y-121653000D02*
X169939000Y-121171000D01*
X160528000Y-121412000D02*
X161036000Y-120904000D01*
X158496000Y-121412000D02*
X159004000Y-120904000D01*
%TO.N,+3.3V*%
X165100000Y-123038000D02*
X165100000Y-116738000D01*
X165608000Y-113284000D02*
X165100000Y-113792000D01*
X165990000Y-113284000D02*
X165608000Y-113284000D01*
X165100000Y-113792000D02*
X165100000Y-116738000D01*
%TO.N,+5V*%
X167400000Y-121652000D02*
X167640000Y-121412000D01*
X167400000Y-123038000D02*
X167400000Y-121652000D01*
%TO.N,GND*%
X171704000Y-113284000D02*
X172212000Y-112776000D01*
X171196000Y-113284000D02*
X171704000Y-113284000D01*
D40*
%TO.N,Net-(D8-A)*%
X167640000Y-113284000D02*
X169621000Y-113284000D01*
D39*
%TO.N,+3.3V*%
X115697000Y-128156000D02*
X115189000Y-128664000D01*
%TO.N,GND*%
X117729000Y-128156000D02*
X118237000Y-128664000D01*
D40*
%TO.N,/OUT_COS_P*%
X129540000Y-122936000D02*
X130048000Y-122428000D01*
X130048000Y-122428000D02*
X147129000Y-122428000D01*
X147129000Y-122428000D02*
X149860000Y-119697000D01*
%TO.N,/U_REF*%
X111252000Y-139192000D02*
X111760000Y-139700000D01*
X111760000Y-139700000D02*
X112841000Y-139700000D01*
%TO.N,Net-(U1-K)*%
X110045000Y-136144000D02*
X109728000Y-136144000D01*
X109728000Y-136144000D02*
X108570000Y-137302000D01*
X108570000Y-137302000D02*
X108570000Y-138034000D01*
X108570000Y-138034000D02*
X110157500Y-139621500D01*
X110157500Y-139621500D02*
X110157500Y-140142000D01*
D39*
%TO.N,+5V*%
X108204000Y-136144000D02*
X107696000Y-136652000D01*
%TO.N,GND*%
X109794000Y-138242000D02*
X109220000Y-137668000D01*
D40*
%TO.N,Net-(U1-K)*%
X110678000Y-140142000D02*
X111506000Y-140970000D01*
X111506000Y-140970000D02*
X112841000Y-140970000D01*
%TO.N,/U_REF*%
X112841000Y-138430000D02*
X112841000Y-139700000D01*
X108395000Y-149035000D02*
X109220000Y-149860000D01*
D39*
%TO.N,GND*%
X108204000Y-146812000D02*
X107696000Y-147320000D01*
D40*
%TO.N,Net-(U5B-+)*%
X109995000Y-146812000D02*
X109995000Y-144830000D01*
X110045000Y-148844000D02*
X110045000Y-146862000D01*
%TO.N,Net-(U5B--)*%
X114033000Y-150368000D02*
X114033000Y-148356000D01*
X111252000Y-147828000D02*
X111252000Y-145796000D01*
X113983000Y-148306000D02*
X111730000Y-148306000D01*
X111730000Y-148306000D02*
X111252000Y-147828000D01*
X111252000Y-145796000D02*
X112268000Y-144780000D01*
%TO.N,/ESD_TXP*%
X112841000Y-146050000D02*
X114046000Y-146050000D01*
X114046000Y-146050000D02*
X115633000Y-147637000D01*
X115633000Y-147637000D02*
X115633000Y-148306000D01*
%TO.N,Net-(U5C--)*%
X118872000Y-148336000D02*
X118872000Y-147828000D01*
X118872000Y-147828000D02*
X118364000Y-147320000D01*
X118364000Y-147320000D02*
X116332000Y-147320000D01*
X115824000Y-145288000D02*
X116332000Y-144780000D01*
X116332000Y-147320000D02*
X115824000Y-146812000D01*
X115824000Y-146812000D02*
X115824000Y-145288000D01*
X116332000Y-144780000D02*
X117791000Y-144780000D01*
%TO.N,/ESD_TXP*%
X117222000Y-148336000D02*
X115663000Y-148336000D01*
X115583000Y-150368000D02*
X115583000Y-148577000D01*
%TO.N,Net-(U5C--)*%
X117791000Y-144780000D02*
X120587000Y-144780000D01*
X120587000Y-144780000D02*
X120904000Y-144463000D01*
%TO.N,/ESD_TXN*%
X117791000Y-146050000D02*
X120841000Y-146050000D01*
%TO.N,Net-(U5B-+)*%
X111252000Y-144272000D02*
X110744000Y-144780000D01*
X111506000Y-143510000D02*
X111252000Y-143764000D01*
X111252000Y-143764000D02*
X111252000Y-144272000D01*
X110744000Y-144780000D02*
X110045000Y-144780000D01*
X112841000Y-143510000D02*
X111506000Y-143510000D01*
%TO.N,Net-(C13-Pad2)*%
X160020000Y-151384000D02*
X158622000Y-151384000D01*
X158622000Y-151384000D02*
X157480000Y-150242000D01*
%TO.N,Net-(C17-Pad2)*%
X147320000Y-151384000D02*
X145922000Y-151384000D01*
X145922000Y-151384000D02*
X144780000Y-150242000D01*
D39*
%TO.N,GND*%
X154940000Y-160020000D02*
X153924000Y-161036000D01*
X149860000Y-160020000D02*
X148844000Y-161036000D01*
X144780000Y-160020000D02*
X145796000Y-161036000D01*
X139700000Y-160528000D02*
X140208000Y-161036000D01*
X139700000Y-160020000D02*
X139700000Y-160528000D01*
X117791000Y-142240000D02*
X119380000Y-142240000D01*
X109194000Y-141758000D02*
X109728000Y-141224000D01*
X109194000Y-142240000D02*
X109194000Y-141758000D01*
%TO.N,+5V*%
X110744000Y-142748000D02*
X110236000Y-143256000D01*
X110744000Y-142240000D02*
X110744000Y-142748000D01*
X112841000Y-142240000D02*
X110744000Y-142240000D01*
D40*
%TO.N,Net-(C19-Pad2)*%
X137160000Y-135128000D02*
X137160000Y-137134000D01*
X137160000Y-137134000D02*
X136626000Y-137668000D01*
%TO.N,Net-(C11-Pad2)*%
X158014000Y-137668000D02*
X157480000Y-137134000D01*
X157480000Y-137134000D02*
X157480000Y-135128000D01*
%TO.N,/U_REF*%
X158496000Y-133096000D02*
X156464000Y-133096000D01*
X162560000Y-135636000D02*
X159512000Y-135636000D01*
X155956000Y-133604000D02*
X155956000Y-136144000D01*
X164338000Y-143510000D02*
X164084000Y-143256000D01*
X159512000Y-135636000D02*
X159004000Y-135128000D01*
X159004000Y-135128000D02*
X159004000Y-133604000D01*
X156464000Y-133096000D02*
X155956000Y-133604000D01*
X155956000Y-136144000D02*
X155448000Y-136652000D01*
X159004000Y-133604000D02*
X158496000Y-133096000D01*
X165860000Y-143510000D02*
X164338000Y-143510000D01*
X155448000Y-136652000D02*
X153924000Y-136652000D01*
X153924000Y-149352000D02*
X150368000Y-149352000D01*
X149860000Y-149860000D02*
X149860000Y-150368000D01*
X150368000Y-149352000D02*
X149860000Y-149860000D01*
X140108000Y-137568000D02*
X139192000Y-136652000D01*
X127508000Y-150368000D02*
X137034000Y-150368000D01*
X129097000Y-143510000D02*
X127762000Y-143510000D01*
X127762000Y-143510000D02*
X127508000Y-143764000D01*
%TO.N,/OUT_SIN_N*%
X169164000Y-145605000D02*
X169863000Y-145605000D01*
X169863000Y-145605000D02*
X170180000Y-145288000D01*
X132080000Y-120904000D02*
X132080000Y-119697000D01*
%TO.N,/OUT_SIN_P*%
X168656000Y-138443000D02*
X169405000Y-138443000D01*
X169405000Y-138443000D02*
X169672000Y-138176000D01*
X139700000Y-120904000D02*
X139700000Y-119697000D01*
%TO.N,/OUT_COS_N*%
X142240000Y-121412000D02*
X142240000Y-119697000D01*
X129097000Y-146050000D02*
X130302000Y-146050000D01*
X130302000Y-146050000D02*
X130556000Y-146304000D01*
X130556000Y-121778500D02*
X130697500Y-121920000D01*
X130697500Y-121920000D02*
X141732000Y-121920000D01*
X141732000Y-121920000D02*
X142240000Y-121412000D01*
%TO.N,/OUT_COS_P*%
X125984000Y-138443000D02*
X124701000Y-138443000D01*
X124701000Y-138443000D02*
X124460000Y-138684000D01*
X121412000Y-140208000D02*
X122669000Y-140208000D01*
X122669000Y-140208000D02*
X123444000Y-140983000D01*
%TO.N,/OUT_SIN_P*%
X169355000Y-140208000D02*
X171196000Y-140208000D01*
D39*
%TO.N,GND*%
X150444000Y-114732000D02*
X150876000Y-114300000D01*
X149860000Y-114732000D02*
X150444000Y-114732000D01*
X145364000Y-114732000D02*
X145796000Y-114300000D01*
X144780000Y-114732000D02*
X145364000Y-114732000D01*
X140284000Y-114732000D02*
X140716000Y-114300000D01*
X139700000Y-114732000D02*
X140284000Y-114732000D01*
X135204000Y-114732000D02*
X135636000Y-114300000D01*
X134620000Y-114732000D02*
X135204000Y-114732000D01*
D40*
%TO.N,Net-(J3-Pin_3)*%
X147320000Y-110236000D02*
X147320000Y-114682000D01*
%TO.N,Net-(J3-Pin_4)*%
X142240000Y-110236000D02*
X142240000Y-114682000D01*
%TO.N,Net-(J3-Pin_5)*%
X137160000Y-110236000D02*
X137160000Y-114682000D01*
%TO.N,Net-(J3-Pin_6)*%
X132080000Y-110236000D02*
X132080000Y-114682000D01*
%TO.N,/ESD_SINN*%
X132080000Y-118047000D02*
X132463000Y-118430000D01*
X132463000Y-118430000D02*
X135144000Y-118430000D01*
X135144000Y-118430000D02*
X135144000Y-116806000D01*
X135144000Y-116806000D02*
X134620000Y-116282000D01*
X134620000Y-116282000D02*
X132130000Y-116282000D01*
%TO.N,/ESD_SINP*%
X137144000Y-118430000D02*
X139317000Y-118430000D01*
X139317000Y-118430000D02*
X139700000Y-118047000D01*
X137144000Y-116348000D02*
X137144000Y-118430000D01*
X139700000Y-116282000D02*
X137210000Y-116282000D01*
%TO.N,/ESD_COSP*%
X149860000Y-118047000D02*
X149477000Y-118430000D01*
X149477000Y-118430000D02*
X146796000Y-118430000D01*
X147320000Y-116332000D02*
X146796000Y-116856000D01*
X146796000Y-116856000D02*
X146796000Y-118430000D01*
X149860000Y-116282000D02*
X147370000Y-116282000D01*
%TO.N,/ESD_COSN*%
X142240000Y-118047000D02*
X142623000Y-118430000D01*
X142623000Y-118430000D02*
X144796000Y-118430000D01*
X142240000Y-116332000D02*
X144730000Y-116332000D01*
X144796000Y-116298000D02*
X144796000Y-118430000D01*
D39*
%TO.N,GND*%
X146546000Y-120130000D02*
X145796000Y-119380000D01*
X146796000Y-120130000D02*
X146546000Y-120130000D01*
%TO.N,+5V*%
X144714000Y-120330000D02*
X143764000Y-119380000D01*
X135062000Y-120330000D02*
X134112000Y-119380000D01*
%TO.N,GND*%
X136894000Y-120130000D02*
X136144000Y-119380000D01*
X137144000Y-120130000D02*
X136894000Y-120130000D01*
%TO.N,+5V*%
X127066000Y-153990000D02*
X128016000Y-154940000D01*
%TO.N,GND*%
X125234000Y-154190000D02*
X125984000Y-154940000D01*
X124984000Y-154190000D02*
X125234000Y-154190000D01*
X129540000Y-160020000D02*
X130556000Y-161036000D01*
X124460000Y-160020000D02*
X125476000Y-161036000D01*
D40*
%TO.N,/ESD_TXN*%
X126984000Y-155890000D02*
X126984000Y-158354000D01*
%TO.N,/ESD_TXP*%
X124984000Y-155890000D02*
X124984000Y-157926000D01*
X124984000Y-157926000D02*
X124460000Y-158450000D01*
%TO.N,/ESD_TXN*%
X127000000Y-158370000D02*
X129440000Y-158370000D01*
%TO.N,/ESD_TXP*%
X121920000Y-158370000D02*
X124380000Y-158370000D01*
%TO.N,Net-(J2-Pin_2)*%
X127000000Y-164592000D02*
X127000000Y-160020000D01*
%TO.N,Net-(J2-Pin_1)*%
X121920000Y-164592000D02*
X121920000Y-160020000D01*
%TO.N,Net-(U2D-+)*%
X166383000Y-134620000D02*
X166383000Y-135636000D01*
X166383000Y-135636000D02*
X166383000Y-136602000D01*
X167640000Y-135636000D02*
X166383000Y-135636000D01*
X165860000Y-140970000D02*
X167386000Y-140970000D01*
X167386000Y-140970000D02*
X167640000Y-140716000D01*
%TO.N,Net-(U4A-+)*%
X129097000Y-140970000D02*
X127762000Y-140970000D01*
X127762000Y-140970000D02*
X127508000Y-140716000D01*
X127508000Y-135128000D02*
X127508000Y-135445000D01*
X127508000Y-135445000D02*
X128207000Y-136144000D01*
%TO.N,/OUT_COS_P*%
X129097000Y-138430000D02*
X129097000Y-139700000D01*
%TO.N,/OUT_SIN_P*%
X165860000Y-139700000D02*
X165860000Y-138430000D01*
X169164000Y-140399000D02*
X169164000Y-138951000D01*
X169164000Y-138951000D02*
X168656000Y-138443000D01*
%TO.N,Net-(U2C--)*%
X169164000Y-142049000D02*
X169164000Y-143955000D01*
X165860000Y-144780000D02*
X168339000Y-144780000D01*
X168339000Y-144780000D02*
X169164000Y-143955000D01*
%TO.N,/OUT_SIN_N*%
X165860000Y-146050000D02*
X168719000Y-146050000D01*
X168719000Y-146050000D02*
X169164000Y-145605000D01*
%TO.N,/OUT_COS_P*%
X123952000Y-144780000D02*
X123444000Y-144272000D01*
X123444000Y-144272000D02*
X123444000Y-140983000D01*
X123444000Y-140983000D02*
X125984000Y-138443000D01*
%TO.N,Net-(U4B--)*%
X123952000Y-146430000D02*
X124334000Y-146430000D01*
X124334000Y-146430000D02*
X125984000Y-144780000D01*
%TO.N,/OUT_COS_N*%
X129097000Y-146050000D02*
X127762000Y-146050000D01*
X127762000Y-146050000D02*
X127382000Y-146430000D01*
X127382000Y-146430000D02*
X125984000Y-146430000D01*
%TO.N,Net-(U4B--)*%
X129097000Y-144780000D02*
X125984000Y-144780000D01*
D39*
%TO.N,GND*%
X164084000Y-134620000D02*
X163576000Y-135128000D01*
X164833000Y-134620000D02*
X164084000Y-134620000D01*
X130556000Y-134112000D02*
X131064000Y-134620000D01*
X130048000Y-134112000D02*
X130556000Y-134112000D01*
D40*
%TO.N,Net-(C11-Pad2)*%
X160211000Y-136652000D02*
X160211000Y-137731000D01*
X160211000Y-137731000D02*
X160910000Y-138430000D01*
%TO.N,Net-(C16-Pad2)*%
X161861000Y-136652000D02*
X164783000Y-136652000D01*
X164783000Y-137351000D02*
X165100000Y-137668000D01*
X164783000Y-136652000D02*
X164783000Y-137351000D01*
X165100000Y-137668000D02*
X167881000Y-137668000D01*
X167881000Y-137668000D02*
X168656000Y-136893000D01*
%TO.N,/OUT_COS_P*%
X129097000Y-138430000D02*
X126238000Y-138430000D01*
%TO.N,Net-(C21-Pad2)*%
X125984000Y-136626000D02*
X126518000Y-137160000D01*
X126518000Y-137160000D02*
X128841000Y-137160000D01*
X128841000Y-137160000D02*
X129857000Y-136144000D01*
%TO.N,/OUT_SIN_P*%
X165860000Y-138430000D02*
X168643000Y-138430000D01*
%TO.N,Net-(U4A-+)*%
X128207000Y-136144000D02*
X128207000Y-134403000D01*
%TO.N,Net-(C21-Pad2)*%
X132779000Y-136144000D02*
X129857000Y-136144000D01*
%TO.N,Net-(C19-Pad2)*%
X134047000Y-138430000D02*
X134047000Y-136526000D01*
X134047000Y-136526000D02*
X134429000Y-136144000D01*
D39*
%TO.N,GND*%
X172011000Y-111252000D02*
X172440500Y-110822500D01*
X171196000Y-111252000D02*
X172011000Y-111252000D01*
%TO.N,+5V*%
X166027500Y-110505500D02*
X165328500Y-109806500D01*
X166027500Y-111252000D02*
X166027500Y-110505500D01*
D40*
%TO.N,Net-(D7-A)*%
X169621000Y-111252000D02*
X167677500Y-111252000D01*
%TO.N,/U_REF*%
X154558000Y-137286000D02*
X153924000Y-136652000D01*
X154558000Y-137668000D02*
X154558000Y-137286000D01*
D39*
%TO.N,GND*%
X154508000Y-135204000D02*
X153924000Y-134620000D01*
X154508000Y-135636000D02*
X154508000Y-135204000D01*
X140208000Y-135128000D02*
X140716000Y-134620000D01*
X140208000Y-135636000D02*
X140208000Y-135128000D01*
D40*
%TO.N,Net-(U2A-+)*%
X160815000Y-140875000D02*
X155415000Y-140875000D01*
X155415000Y-140875000D02*
X154558000Y-141732000D01*
X154558000Y-141732000D02*
X153608000Y-140782000D01*
X153608000Y-140782000D02*
X153608000Y-138368000D01*
X153608000Y-138368000D02*
X152908000Y-137668000D01*
X152958000Y-135636000D02*
X152958000Y-137618000D01*
%TO.N,Net-(U4D-+)*%
X140782000Y-138644000D02*
X141758000Y-137668000D01*
X140208000Y-141732000D02*
X140782000Y-141158000D01*
X140782000Y-141158000D02*
X140782000Y-138644000D01*
X141858000Y-135636000D02*
X141858000Y-137668000D01*
%TO.N,Net-(U4D--)*%
X135274000Y-139700000D02*
X136144000Y-140570000D01*
X134047000Y-139700000D02*
X135274000Y-139700000D01*
X136144000Y-140570000D02*
X137306000Y-140570000D01*
X137306000Y-140570000D02*
X138176000Y-139700000D01*
X139891000Y-139700000D02*
X138176000Y-139700000D01*
X138176000Y-139700000D02*
X138176000Y-137668000D01*
%TO.N,Net-(C19-Pad2)*%
X136526000Y-139700000D02*
X136526000Y-137768000D01*
X134047000Y-138430000D02*
X135864000Y-138430000D01*
X135864000Y-138430000D02*
X136626000Y-137668000D01*
%TO.N,Net-(C17-Pad2)*%
X142748000Y-150342000D02*
X142748000Y-146621000D01*
X142748000Y-146621000D02*
X139891000Y-143764000D01*
%TO.N,Net-(C13-Pad2)*%
X155448000Y-147828000D02*
X155448000Y-150342000D01*
X160910000Y-146050000D02*
X160910000Y-146812000D01*
X160910000Y-146812000D02*
X157480000Y-150242000D01*
X154558000Y-146938000D02*
X155448000Y-147828000D01*
X154558000Y-143764000D02*
X154558000Y-146938000D01*
X155448000Y-150342000D02*
X157380000Y-150342000D01*
%TO.N,Net-(C17-Pad2)*%
X144780000Y-150242000D02*
X142848000Y-150242000D01*
%TO.N,Net-(R27-Pad1)*%
X151892000Y-140716000D02*
X152908000Y-139700000D01*
X150136396Y-143510000D02*
X151892000Y-141754396D01*
X151892000Y-141754396D02*
X151892000Y-140716000D01*
%TO.N,Net-(R28-Pad1)*%
X150136396Y-144780000D02*
X152908000Y-142008396D01*
%TO.N,Net-(R31-Pad2)*%
X152908000Y-143764000D02*
X150622000Y-146050000D01*
%TO.N,Net-(C11-Pad2)*%
X158114000Y-139700000D02*
X158114000Y-138684000D01*
X158114000Y-138684000D02*
X158114000Y-137768000D01*
X160910000Y-138430000D02*
X158368000Y-138430000D01*
X158368000Y-138430000D02*
X158114000Y-138684000D01*
%TO.N,Net-(U2A--)*%
X160910000Y-139700000D02*
X159512000Y-139700000D01*
X159512000Y-139700000D02*
X158737000Y-140475000D01*
X158737000Y-140475000D02*
X157239000Y-140475000D01*
X157239000Y-140475000D02*
X156464000Y-139700000D01*
X154558000Y-139700000D02*
X156464000Y-139700000D01*
X156464000Y-139700000D02*
X156464000Y-137668000D01*
D39*
%TO.N,GND*%
X156464000Y-143256000D02*
X156464000Y-142266000D01*
D40*
%TO.N,Net-(R40-Pad2)*%
X144845000Y-142240000D02*
X143256000Y-142240000D01*
X143256000Y-142240000D02*
X141732000Y-143764000D01*
%TO.N,Net-(C17-Pad2)*%
X134047000Y-146050000D02*
X136398000Y-146050000D01*
X136398000Y-146050000D02*
X137160000Y-145288000D01*
X137668000Y-143764000D02*
X139891000Y-143764000D01*
X137160000Y-145288000D02*
X137160000Y-144272000D01*
X137160000Y-144272000D02*
X137668000Y-143764000D01*
%TO.N,Net-(R42-Pad1)*%
X141541000Y-141732000D02*
X142240000Y-141732000D01*
X142240000Y-141732000D02*
X143002000Y-140970000D01*
X143002000Y-140970000D02*
X144845000Y-140970000D01*
%TO.N,Net-(U4D-+)*%
X134047000Y-140970000D02*
X136906000Y-140970000D01*
X136906000Y-140970000D02*
X137668000Y-141732000D01*
X137668000Y-141732000D02*
X139891000Y-141732000D01*
%TO.N,Net-(R41-Pad1)*%
X141541000Y-139700000D02*
X144845000Y-139700000D01*
%TO.N,Net-(R31-Pad2)*%
X148844000Y-142240000D02*
X148336000Y-142748000D01*
X149795000Y-142240000D02*
X148844000Y-142240000D01*
X148336000Y-142748000D02*
X148336000Y-145796000D01*
X148590000Y-146050000D02*
X148336000Y-145796000D01*
X149795000Y-146050000D02*
X148590000Y-146050000D01*
%TO.N,Net-(R40-Pad2)*%
X144845000Y-142240000D02*
X145796000Y-142240000D01*
X146304000Y-141732000D02*
X146304000Y-138684000D01*
X145796000Y-142240000D02*
X146304000Y-141732000D01*
X146304000Y-138684000D02*
X146050000Y-138430000D01*
X146050000Y-138430000D02*
X144845000Y-138430000D01*
%TO.N,SW_NEG*%
X149795000Y-140970000D02*
X149795000Y-139700000D01*
%TO.N,SW_POS*%
X144845000Y-144780000D02*
X144845000Y-143510000D01*
D39*
%TO.N,GND*%
X146050000Y-146050000D02*
X146304000Y-146304000D01*
X144845000Y-146050000D02*
X146050000Y-146050000D01*
X124701000Y-141999000D02*
X125476000Y-141224000D01*
%TO.N,+5V*%
X126251000Y-142481000D02*
X125476000Y-143256000D01*
X126251000Y-142240000D02*
X129097000Y-142240000D01*
X157988000Y-142748000D02*
X157480000Y-143256000D01*
X157988000Y-142240000D02*
X157988000Y-142748000D01*
X157988000Y-142240000D02*
X160910000Y-142240000D01*
%TO.N,GND*%
X146545000Y-135903000D02*
X146812000Y-135636000D01*
X146545000Y-136652000D02*
X146545000Y-135903000D01*
%TO.N,+5V*%
X148095000Y-135903000D02*
X147828000Y-135636000D01*
X148095000Y-136652000D02*
X148095000Y-135903000D01*
X148095000Y-136652000D02*
X149352000Y-136652000D01*
X149795000Y-137095000D02*
X149352000Y-136652000D01*
X149795000Y-138430000D02*
X149795000Y-137095000D01*
D40*
%TO.N,Net-(U2B-+)*%
X158750000Y-143510000D02*
X158496000Y-143764000D01*
X160910000Y-143510000D02*
X158750000Y-143510000D01*
X150724000Y-152018000D02*
X151371000Y-151371000D01*
X151371000Y-151371000D02*
X152400000Y-150342000D01*
X151384000Y-150876000D02*
X151384000Y-151358000D01*
X151384000Y-151358000D02*
X151371000Y-151371000D01*
D39*
%TO.N,GND*%
X165860000Y-142240000D02*
X167640000Y-142240000D01*
X134047000Y-142240000D02*
X135636000Y-142240000D01*
X152908000Y-151892000D02*
X153416000Y-152400000D01*
X152400000Y-151892000D02*
X152908000Y-151892000D01*
X140349500Y-151892000D02*
X140716000Y-152258500D01*
X139700000Y-151892000D02*
X140349500Y-151892000D01*
%TO.N,+5V*%
X141798000Y-153990000D02*
X142748000Y-154940000D01*
X154498000Y-153990000D02*
X155448000Y-154940000D01*
%TO.N,GND*%
X152666000Y-154190000D02*
X153416000Y-154940000D01*
X152416000Y-154190000D02*
X152666000Y-154190000D01*
X139966000Y-154190000D02*
X140716000Y-154940000D01*
X139716000Y-154190000D02*
X139966000Y-154190000D01*
D40*
%TO.N,/U_REF*%
X149860000Y-150368000D02*
X149352000Y-150368000D01*
X149352000Y-150368000D02*
X148844000Y-150876000D01*
X138684000Y-149860000D02*
X137542000Y-149860000D01*
X137542000Y-149860000D02*
X137160000Y-150242000D01*
%TO.N,Net-(U2B-+)*%
X149860000Y-154306000D02*
X149860000Y-152018000D01*
X149860000Y-152018000D02*
X150724000Y-152018000D01*
%TO.N,Net-(U2B--)*%
X155448000Y-151892000D02*
X157480000Y-151892000D01*
X157480000Y-151892000D02*
X157480000Y-152400000D01*
X157480000Y-152400000D02*
X157988000Y-152908000D01*
X160910000Y-144780000D02*
X159004000Y-144780000D01*
X157988000Y-152908000D02*
X157480000Y-153416000D01*
X157480000Y-153416000D02*
X157480000Y-154306000D01*
%TO.N,Net-(U4C-+)*%
X137160000Y-151892000D02*
X138176000Y-150876000D01*
X138176000Y-150876000D02*
X139166000Y-150876000D01*
X139166000Y-150876000D02*
X139700000Y-150342000D01*
X135382000Y-143510000D02*
X135636000Y-143764000D01*
X134047000Y-143510000D02*
X135382000Y-143510000D01*
%TO.N,Net-(U4C--)*%
X134047000Y-144780000D02*
X135636000Y-144780000D01*
X143256000Y-152908000D02*
X143256000Y-152400000D01*
X143256000Y-152400000D02*
X142748000Y-151892000D01*
%TO.N,/ESD_RSP*%
X152416000Y-155890000D02*
X149926000Y-155890000D01*
X152416000Y-158354000D02*
X152416000Y-155890000D01*
X149860000Y-158470000D02*
X152300000Y-158470000D01*
%TO.N,/ESD_RSN*%
X154416000Y-155890000D02*
X157414000Y-155890000D01*
X154940000Y-158470000D02*
X154416000Y-157946000D01*
X154416000Y-157946000D02*
X154416000Y-155890000D01*
X157480000Y-158370000D02*
X155040000Y-158370000D01*
%TO.N,Net-(J2-Pin_8)*%
X157480000Y-164592000D02*
X157480000Y-160020000D01*
%TO.N,Net-(J2-Pin_7)*%
X152400000Y-164592000D02*
X152400000Y-160020000D01*
%TO.N,Net-(U4C-+)*%
X137160000Y-154306000D02*
X137160000Y-151892000D01*
%TO.N,Net-(U4C--)*%
X142748000Y-151892000D02*
X144780000Y-151892000D01*
X144780000Y-154306000D02*
X144780000Y-151892000D01*
%TO.N,/ESD_RCN*%
X141716000Y-155890000D02*
X144714000Y-155890000D01*
X142240000Y-158370000D02*
X141716000Y-157846000D01*
X141716000Y-157846000D02*
X141716000Y-155890000D01*
X142240000Y-158370000D02*
X144680000Y-158370000D01*
%TO.N,/ESD_RCP*%
X139716000Y-155890000D02*
X137226000Y-155890000D01*
X139716000Y-158454000D02*
X139716000Y-155890000D01*
X137160000Y-158370000D02*
X139600000Y-158370000D01*
%TO.N,Net-(J2-Pin_5)*%
X142240000Y-164592000D02*
X142240000Y-160020000D01*
%TO.N,Net-(J2-Pin_4)*%
X137160000Y-164592000D02*
X137160000Y-160020000D01*
%TD*%
M02*
