M48
; DRILL file {KiCad (6.99.0-4793-g33d76f63b0-dirty)} date Sun 11 Dec 2022 09:20:10 PM CET
; FORMAT={-:-/ absolute / inch / decimal}
; #@! TF.CreationDate,2022-12-11T21:20:10+01:00
; #@! TF.GenerationSoftware,Kicad,Pcbnew,(6.99.0-4793-g33d76f63b0-dirty)
; #@! TF.FileFunction,Plated,1,4,PTH
FMAT,2
INCH
; #@! TA.AperFunction,Plated,PTH,ViaDrill
T1C0.0118
; #@! TA.AperFunction,Plated,PTH,ComponentDrill
T2C0.0394
; #@! TA.AperFunction,Plated,PTH,ComponentDrill
T3C0.0551
; #@! TA.AperFunction,Plated,PTH,ComponentDrill
T4C0.0984
%
G90
G05
T1
X4.04Y-4.4
X4.22Y-5.68
X4.24Y-5.38
X4.24Y-5.8
X4.24Y-5.96
X4.26Y-6.1598
X4.26Y-6.28
X4.26Y-6.42
X4.26Y-6.5
X4.3Y-5.42
X4.3Y-5.9
X4.32Y-5.04
X4.32Y-5.1
X4.32Y-5.56
X4.34Y-5.64
X4.38Y-5.48
X4.48Y-4.8
X4.535Y-5.0655
X4.5372Y-4.626
X4.54Y-4.56
X4.6Y-6.0
X4.6003Y-4.66
X4.655Y-5.0655
X4.7Y-5.6
X4.9Y-5.46
X4.94Y-5.56
X4.94Y-5.64
X4.94Y-6.34
X4.96Y-6.1
X5.02Y-5.32
X5.02Y-5.54
X5.02Y-5.66
X5.02Y-5.92
X5.04Y-6.1
X5.1Y-4.84
X5.14Y-4.7944
X5.14Y-5.76
X5.14Y-6.34
X5.16Y-5.3
X5.2Y-4.76
X5.28Y-4.7
X5.34Y-4.5
X5.34Y-5.6
X5.34Y-5.66
X5.34Y-5.7
X5.36Y-4.7
X5.44Y-5.94
X5.46Y-5.9
X5.48Y-5.38
X5.5Y-4.76
X5.52Y-6.34
X5.54Y-4.5
X5.54Y-5.3
X5.54Y-5.9944
X5.54Y-6.1
X5.62Y-5.06
X5.62Y-6.1
X5.64Y-6.02
X5.66Y-4.7
X5.74Y-4.5
X5.74Y-4.7
X5.74Y-6.34
X5.76Y-5.0
X5.76Y-5.28
X5.76Y-5.68
X5.76Y-5.76
X5.78Y-4.9
X5.78Y-5.34
X5.82Y-5.34
X5.82Y-5.52
X5.84Y-5.14
X5.84Y-5.18
X5.8456Y-5.24
X5.86Y-5.94
X5.86Y-6.34
X5.94Y-4.5
X5.96Y-5.94
X6.04Y-6.0
X6.04Y-6.1
X6.06Y-5.3
X6.06Y-5.38
X6.06Y-5.88
X6.06Y-6.34
X6.12Y-6.1
X6.16Y-5.64
X6.18Y-4.84
X6.2Y-5.64
X6.22Y-6.02
X6.24Y-5.66
X6.26Y-4.76
X6.26Y-5.7
X6.34Y-4.76
X6.4Y-5.34
X6.42Y-4.78
X6.44Y-5.32
X6.46Y-5.64
X6.509Y-4.3231
X6.6Y-4.78
X6.6Y-5.34
X6.6Y-5.54
X6.6Y-5.6
X6.68Y-4.76
X6.68Y-5.44
X6.7Y-5.72
X6.74Y-4.76
X6.78Y-4.44
X6.789Y-4.3631
T2
X4.1504Y-4.5398
X4.1504Y-4.6398
X4.1504Y-4.7398
X4.1504Y-4.8398
X4.1504Y-4.9398
X4.2504Y-4.5398
X4.2504Y-4.6398
X4.2504Y-4.7398
X4.2504Y-4.8398
X4.2504Y-4.9398
X5.18Y-5.04
X5.28Y-5.04
X5.38Y-5.04
X5.48Y-5.04
T3
X4.8Y-4.34
X4.8Y-6.48
X5.0Y-4.34
X5.0Y-6.48
X5.2Y-4.34
X5.2Y-6.48
X5.4Y-4.34
X5.4Y-6.48
X5.6Y-4.34
X5.6Y-6.48
X5.8Y-4.34
X5.8Y-6.48
X6.0Y-4.34
X6.0Y-6.48
X6.2Y-4.34
X6.2Y-6.48
T4
X4.1339Y-4.1339
X4.1339Y-6.6929
X6.6929Y-4.1339
X6.6929Y-6.6929
T0
M30
