%TF.GenerationSoftware,KiCad,Pcbnew,(6.99.0-4793-g33d76f63b0-dirty)*%
%TF.CreationDate,2022-12-11T21:29:41+01:00*%
%TF.ProjectId,resolver-to-sincos,7265736f-6c76-4657-922d-746f2d73696e,rev?*%
%TF.SameCoordinates,Original*%
%TF.FileFunction,Copper,L4,Bot*%
%TF.FilePolarity,Positive*%
%FSLAX46Y46*%
G04 Gerber Fmt 4.6, Leading zero omitted, Abs format (unit mm)*
G04 Created by KiCad (PCBNEW (6.99.0-4793-g33d76f63b0-dirty)) date 2022-12-11 21:29:41*
%MOMM*%
%LPD*%
G01*
G04 APERTURE LIST*
G04 Aperture macros list*
%AMRoundRect*
0 Rectangle with rounded corners*
0 $1 Rounding radius*
0 $2 $3 $4 $5 $6 $7 $8 $9 X,Y pos of 4 corners*
0 Add a 4 corners polygon primitive as box body*
4,1,4,$2,$3,$4,$5,$6,$7,$8,$9,$2,$3,0*
0 Add four circle primitives for the rounded corners*
1,1,$1+$1,$2,$3*
1,1,$1+$1,$4,$5*
1,1,$1+$1,$6,$7*
1,1,$1+$1,$8,$9*
0 Add four rect primitives between the rounded corners*
20,1,$1+$1,$2,$3,$4,$5,0*
20,1,$1+$1,$4,$5,$6,$7,0*
20,1,$1+$1,$6,$7,$8,$9,0*
20,1,$1+$1,$8,$9,$2,$3,0*%
G04 Aperture macros list end*
%ADD10C,0.300000*%
%TA.AperFunction,NonConductor*%
%ADD11C,0.300000*%
%TD*%
%TA.AperFunction,ComponentPad*%
%ADD12C,5.000000*%
%TD*%
%TA.AperFunction,ComponentPad*%
%ADD13R,1.700000X1.700000*%
%TD*%
%TA.AperFunction,ComponentPad*%
%ADD14O,1.700000X1.700000*%
%TD*%
%TA.AperFunction,ComponentPad*%
%ADD15RoundRect,0.249999X-0.790001X-1.550001X0.790001X-1.550001X0.790001X1.550001X-0.790001X1.550001X0*%
%TD*%
%TA.AperFunction,ComponentPad*%
%ADD16O,2.080000X3.600000*%
%TD*%
%TA.AperFunction,ComponentPad*%
%ADD17RoundRect,0.249999X0.790001X1.550001X-0.790001X1.550001X-0.790001X-1.550001X0.790001X-1.550001X0*%
%TD*%
%TA.AperFunction,ViaPad*%
%ADD18C,0.700000*%
%TD*%
%TA.AperFunction,Conductor*%
%ADD19C,0.200000*%
%TD*%
G04 APERTURE END LIST*
D10*
D11*
X137778142Y-102393714D02*
X137849571Y-102536571D01*
X137849571Y-102536571D02*
X137849571Y-102822285D01*
X137849571Y-102822285D02*
X137778142Y-102965142D01*
X137778142Y-102965142D02*
X137635285Y-103036571D01*
X137635285Y-103036571D02*
X137563857Y-103036571D01*
X137563857Y-103036571D02*
X137421000Y-102965142D01*
X137421000Y-102965142D02*
X137349571Y-102822285D01*
X137349571Y-102822285D02*
X137349571Y-102608000D01*
X137349571Y-102608000D02*
X137278142Y-102465142D01*
X137278142Y-102465142D02*
X137135285Y-102393714D01*
X137135285Y-102393714D02*
X137063857Y-102393714D01*
X137063857Y-102393714D02*
X136921000Y-102465142D01*
X136921000Y-102465142D02*
X136849571Y-102608000D01*
X136849571Y-102608000D02*
X136849571Y-102822285D01*
X136849571Y-102822285D02*
X136921000Y-102965142D01*
X137849571Y-103679428D02*
X136849571Y-103679428D01*
X136349571Y-103679428D02*
X136421000Y-103608000D01*
X136421000Y-103608000D02*
X136492428Y-103679428D01*
X136492428Y-103679428D02*
X136421000Y-103750857D01*
X136421000Y-103750857D02*
X136349571Y-103679428D01*
X136349571Y-103679428D02*
X136492428Y-103679428D01*
X136849571Y-104393714D02*
X137849571Y-104393714D01*
X136992428Y-104393714D02*
X136921000Y-104465143D01*
X136921000Y-104465143D02*
X136849571Y-104608000D01*
X136849571Y-104608000D02*
X136849571Y-104822286D01*
X136849571Y-104822286D02*
X136921000Y-104965143D01*
X136921000Y-104965143D02*
X137063857Y-105036572D01*
X137063857Y-105036572D02*
X137849571Y-105036572D01*
X136849571Y-106650857D02*
X138349571Y-106650857D01*
X136921000Y-106650857D02*
X136849571Y-106793715D01*
X136849571Y-106793715D02*
X136849571Y-107079429D01*
X136849571Y-107079429D02*
X136921000Y-107222286D01*
X136921000Y-107222286D02*
X136992428Y-107293715D01*
X136992428Y-107293715D02*
X137135285Y-107365143D01*
X137135285Y-107365143D02*
X137563857Y-107365143D01*
X137563857Y-107365143D02*
X137706714Y-107293715D01*
X137706714Y-107293715D02*
X137778142Y-107222286D01*
X137778142Y-107222286D02*
X137849571Y-107079429D01*
X137849571Y-107079429D02*
X137849571Y-106793715D01*
X137849571Y-106793715D02*
X137778142Y-106650857D01*
D10*
D11*
X137778142Y-168132000D02*
X137849571Y-167989142D01*
X137849571Y-167989142D02*
X137849571Y-167703428D01*
X137849571Y-167703428D02*
X137778142Y-167560571D01*
X137778142Y-167560571D02*
X137706714Y-167489142D01*
X137706714Y-167489142D02*
X137563857Y-167417714D01*
X137563857Y-167417714D02*
X137135285Y-167417714D01*
X137135285Y-167417714D02*
X136992428Y-167489142D01*
X136992428Y-167489142D02*
X136921000Y-167560571D01*
X136921000Y-167560571D02*
X136849571Y-167703428D01*
X136849571Y-167703428D02*
X136849571Y-167989142D01*
X136849571Y-167989142D02*
X136921000Y-168132000D01*
X137849571Y-168989142D02*
X137778142Y-168846285D01*
X137778142Y-168846285D02*
X137706714Y-168774856D01*
X137706714Y-168774856D02*
X137563857Y-168703428D01*
X137563857Y-168703428D02*
X137135285Y-168703428D01*
X137135285Y-168703428D02*
X136992428Y-168774856D01*
X136992428Y-168774856D02*
X136921000Y-168846285D01*
X136921000Y-168846285D02*
X136849571Y-168989142D01*
X136849571Y-168989142D02*
X136849571Y-169203428D01*
X136849571Y-169203428D02*
X136921000Y-169346285D01*
X136921000Y-169346285D02*
X136992428Y-169417714D01*
X136992428Y-169417714D02*
X137135285Y-169489142D01*
X137135285Y-169489142D02*
X137563857Y-169489142D01*
X137563857Y-169489142D02*
X137706714Y-169417714D01*
X137706714Y-169417714D02*
X137778142Y-169346285D01*
X137778142Y-169346285D02*
X137849571Y-169203428D01*
X137849571Y-169203428D02*
X137849571Y-168989142D01*
X137778142Y-170060571D02*
X137849571Y-170203428D01*
X137849571Y-170203428D02*
X137849571Y-170489142D01*
X137849571Y-170489142D02*
X137778142Y-170631999D01*
X137778142Y-170631999D02*
X137635285Y-170703428D01*
X137635285Y-170703428D02*
X137563857Y-170703428D01*
X137563857Y-170703428D02*
X137421000Y-170631999D01*
X137421000Y-170631999D02*
X137349571Y-170489142D01*
X137349571Y-170489142D02*
X137349571Y-170274857D01*
X137349571Y-170274857D02*
X137278142Y-170131999D01*
X137278142Y-170131999D02*
X137135285Y-170060571D01*
X137135285Y-170060571D02*
X137063857Y-170060571D01*
X137063857Y-170060571D02*
X136921000Y-170131999D01*
X136921000Y-170131999D02*
X136849571Y-170274857D01*
X136849571Y-170274857D02*
X136849571Y-170489142D01*
X136849571Y-170489142D02*
X136921000Y-170631999D01*
X136849571Y-172246285D02*
X138349571Y-172246285D01*
X136921000Y-172246285D02*
X136849571Y-172389143D01*
X136849571Y-172389143D02*
X136849571Y-172674857D01*
X136849571Y-172674857D02*
X136921000Y-172817714D01*
X136921000Y-172817714D02*
X136992428Y-172889143D01*
X136992428Y-172889143D02*
X137135285Y-172960571D01*
X137135285Y-172960571D02*
X137563857Y-172960571D01*
X137563857Y-172960571D02*
X137706714Y-172889143D01*
X137706714Y-172889143D02*
X137778142Y-172817714D01*
X137778142Y-172817714D02*
X137849571Y-172674857D01*
X137849571Y-172674857D02*
X137849571Y-172389143D01*
X137849571Y-172389143D02*
X137778142Y-172246285D01*
D10*
D11*
X146581000Y-168274857D02*
X146509571Y-168132000D01*
X146509571Y-168132000D02*
X146509571Y-167917714D01*
X146509571Y-167917714D02*
X146581000Y-167703428D01*
X146581000Y-167703428D02*
X146723857Y-167560571D01*
X146723857Y-167560571D02*
X146866714Y-167489142D01*
X146866714Y-167489142D02*
X147152428Y-167417714D01*
X147152428Y-167417714D02*
X147366714Y-167417714D01*
X147366714Y-167417714D02*
X147652428Y-167489142D01*
X147652428Y-167489142D02*
X147795285Y-167560571D01*
X147795285Y-167560571D02*
X147938142Y-167703428D01*
X147938142Y-167703428D02*
X148009571Y-167917714D01*
X148009571Y-167917714D02*
X148009571Y-168060571D01*
X148009571Y-168060571D02*
X147938142Y-168274857D01*
X147938142Y-168274857D02*
X147866714Y-168346285D01*
X147866714Y-168346285D02*
X147366714Y-168346285D01*
X147366714Y-168346285D02*
X147366714Y-168060571D01*
X148009571Y-168989142D02*
X146509571Y-168989142D01*
X146509571Y-168989142D02*
X148009571Y-169846285D01*
X148009571Y-169846285D02*
X146509571Y-169846285D01*
X148009571Y-170560571D02*
X146509571Y-170560571D01*
X146509571Y-170560571D02*
X146509571Y-170917714D01*
X146509571Y-170917714D02*
X146581000Y-171132000D01*
X146581000Y-171132000D02*
X146723857Y-171274857D01*
X146723857Y-171274857D02*
X146866714Y-171346286D01*
X146866714Y-171346286D02*
X147152428Y-171417714D01*
X147152428Y-171417714D02*
X147366714Y-171417714D01*
X147366714Y-171417714D02*
X147652428Y-171346286D01*
X147652428Y-171346286D02*
X147795285Y-171274857D01*
X147795285Y-171274857D02*
X147938142Y-171132000D01*
X147938142Y-171132000D02*
X148009571Y-170917714D01*
X148009571Y-170917714D02*
X148009571Y-170560571D01*
D10*
D11*
X132698142Y-102393714D02*
X132769571Y-102536571D01*
X132769571Y-102536571D02*
X132769571Y-102822285D01*
X132769571Y-102822285D02*
X132698142Y-102965142D01*
X132698142Y-102965142D02*
X132555285Y-103036571D01*
X132555285Y-103036571D02*
X132483857Y-103036571D01*
X132483857Y-103036571D02*
X132341000Y-102965142D01*
X132341000Y-102965142D02*
X132269571Y-102822285D01*
X132269571Y-102822285D02*
X132269571Y-102608000D01*
X132269571Y-102608000D02*
X132198142Y-102465142D01*
X132198142Y-102465142D02*
X132055285Y-102393714D01*
X132055285Y-102393714D02*
X131983857Y-102393714D01*
X131983857Y-102393714D02*
X131841000Y-102465142D01*
X131841000Y-102465142D02*
X131769571Y-102608000D01*
X131769571Y-102608000D02*
X131769571Y-102822285D01*
X131769571Y-102822285D02*
X131841000Y-102965142D01*
X132769571Y-103679428D02*
X131769571Y-103679428D01*
X131269571Y-103679428D02*
X131341000Y-103608000D01*
X131341000Y-103608000D02*
X131412428Y-103679428D01*
X131412428Y-103679428D02*
X131341000Y-103750857D01*
X131341000Y-103750857D02*
X131269571Y-103679428D01*
X131269571Y-103679428D02*
X131412428Y-103679428D01*
X131769571Y-104393714D02*
X132769571Y-104393714D01*
X131912428Y-104393714D02*
X131841000Y-104465143D01*
X131841000Y-104465143D02*
X131769571Y-104608000D01*
X131769571Y-104608000D02*
X131769571Y-104822286D01*
X131769571Y-104822286D02*
X131841000Y-104965143D01*
X131841000Y-104965143D02*
X131983857Y-105036572D01*
X131983857Y-105036572D02*
X132769571Y-105036572D01*
X131769571Y-106650857D02*
X132769571Y-106650857D01*
X131912428Y-106650857D02*
X131841000Y-106722286D01*
X131841000Y-106722286D02*
X131769571Y-106865143D01*
X131769571Y-106865143D02*
X131769571Y-107079429D01*
X131769571Y-107079429D02*
X131841000Y-107222286D01*
X131841000Y-107222286D02*
X131983857Y-107293715D01*
X131983857Y-107293715D02*
X132769571Y-107293715D01*
D10*
D11*
X131341000Y-168274857D02*
X131269571Y-168132000D01*
X131269571Y-168132000D02*
X131269571Y-167917714D01*
X131269571Y-167917714D02*
X131341000Y-167703428D01*
X131341000Y-167703428D02*
X131483857Y-167560571D01*
X131483857Y-167560571D02*
X131626714Y-167489142D01*
X131626714Y-167489142D02*
X131912428Y-167417714D01*
X131912428Y-167417714D02*
X132126714Y-167417714D01*
X132126714Y-167417714D02*
X132412428Y-167489142D01*
X132412428Y-167489142D02*
X132555285Y-167560571D01*
X132555285Y-167560571D02*
X132698142Y-167703428D01*
X132698142Y-167703428D02*
X132769571Y-167917714D01*
X132769571Y-167917714D02*
X132769571Y-168060571D01*
X132769571Y-168060571D02*
X132698142Y-168274857D01*
X132698142Y-168274857D02*
X132626714Y-168346285D01*
X132626714Y-168346285D02*
X132126714Y-168346285D01*
X132126714Y-168346285D02*
X132126714Y-168060571D01*
X132769571Y-168989142D02*
X131269571Y-168989142D01*
X131269571Y-168989142D02*
X132769571Y-169846285D01*
X132769571Y-169846285D02*
X131269571Y-169846285D01*
X132769571Y-170560571D02*
X131269571Y-170560571D01*
X131269571Y-170560571D02*
X131269571Y-170917714D01*
X131269571Y-170917714D02*
X131341000Y-171132000D01*
X131341000Y-171132000D02*
X131483857Y-171274857D01*
X131483857Y-171274857D02*
X131626714Y-171346286D01*
X131626714Y-171346286D02*
X131912428Y-171417714D01*
X131912428Y-171417714D02*
X132126714Y-171417714D01*
X132126714Y-171417714D02*
X132412428Y-171346286D01*
X132412428Y-171346286D02*
X132555285Y-171274857D01*
X132555285Y-171274857D02*
X132698142Y-171132000D01*
X132698142Y-171132000D02*
X132769571Y-170917714D01*
X132769571Y-170917714D02*
X132769571Y-170560571D01*
D10*
D11*
X126261000Y-103250857D02*
X126189571Y-103108000D01*
X126189571Y-103108000D02*
X126189571Y-102893714D01*
X126189571Y-102893714D02*
X126261000Y-102679428D01*
X126261000Y-102679428D02*
X126403857Y-102536571D01*
X126403857Y-102536571D02*
X126546714Y-102465142D01*
X126546714Y-102465142D02*
X126832428Y-102393714D01*
X126832428Y-102393714D02*
X127046714Y-102393714D01*
X127046714Y-102393714D02*
X127332428Y-102465142D01*
X127332428Y-102465142D02*
X127475285Y-102536571D01*
X127475285Y-102536571D02*
X127618142Y-102679428D01*
X127618142Y-102679428D02*
X127689571Y-102893714D01*
X127689571Y-102893714D02*
X127689571Y-103036571D01*
X127689571Y-103036571D02*
X127618142Y-103250857D01*
X127618142Y-103250857D02*
X127546714Y-103322285D01*
X127546714Y-103322285D02*
X127046714Y-103322285D01*
X127046714Y-103322285D02*
X127046714Y-103036571D01*
X127689571Y-103965142D02*
X126189571Y-103965142D01*
X126189571Y-103965142D02*
X127689571Y-104822285D01*
X127689571Y-104822285D02*
X126189571Y-104822285D01*
X127689571Y-105536571D02*
X126189571Y-105536571D01*
X126189571Y-105536571D02*
X126189571Y-105893714D01*
X126189571Y-105893714D02*
X126261000Y-106108000D01*
X126261000Y-106108000D02*
X126403857Y-106250857D01*
X126403857Y-106250857D02*
X126546714Y-106322286D01*
X126546714Y-106322286D02*
X126832428Y-106393714D01*
X126832428Y-106393714D02*
X127046714Y-106393714D01*
X127046714Y-106393714D02*
X127332428Y-106322286D01*
X127332428Y-106322286D02*
X127475285Y-106250857D01*
X127475285Y-106250857D02*
X127618142Y-106108000D01*
X127618142Y-106108000D02*
X127689571Y-105893714D01*
X127689571Y-105893714D02*
X127689571Y-105536571D01*
D10*
D11*
X142858142Y-168132000D02*
X142929571Y-167989142D01*
X142929571Y-167989142D02*
X142929571Y-167703428D01*
X142929571Y-167703428D02*
X142858142Y-167560571D01*
X142858142Y-167560571D02*
X142786714Y-167489142D01*
X142786714Y-167489142D02*
X142643857Y-167417714D01*
X142643857Y-167417714D02*
X142215285Y-167417714D01*
X142215285Y-167417714D02*
X142072428Y-167489142D01*
X142072428Y-167489142D02*
X142001000Y-167560571D01*
X142001000Y-167560571D02*
X141929571Y-167703428D01*
X141929571Y-167703428D02*
X141929571Y-167989142D01*
X141929571Y-167989142D02*
X142001000Y-168132000D01*
X142929571Y-168989142D02*
X142858142Y-168846285D01*
X142858142Y-168846285D02*
X142786714Y-168774856D01*
X142786714Y-168774856D02*
X142643857Y-168703428D01*
X142643857Y-168703428D02*
X142215285Y-168703428D01*
X142215285Y-168703428D02*
X142072428Y-168774856D01*
X142072428Y-168774856D02*
X142001000Y-168846285D01*
X142001000Y-168846285D02*
X141929571Y-168989142D01*
X141929571Y-168989142D02*
X141929571Y-169203428D01*
X141929571Y-169203428D02*
X142001000Y-169346285D01*
X142001000Y-169346285D02*
X142072428Y-169417714D01*
X142072428Y-169417714D02*
X142215285Y-169489142D01*
X142215285Y-169489142D02*
X142643857Y-169489142D01*
X142643857Y-169489142D02*
X142786714Y-169417714D01*
X142786714Y-169417714D02*
X142858142Y-169346285D01*
X142858142Y-169346285D02*
X142929571Y-169203428D01*
X142929571Y-169203428D02*
X142929571Y-168989142D01*
X142858142Y-170060571D02*
X142929571Y-170203428D01*
X142929571Y-170203428D02*
X142929571Y-170489142D01*
X142929571Y-170489142D02*
X142858142Y-170631999D01*
X142858142Y-170631999D02*
X142715285Y-170703428D01*
X142715285Y-170703428D02*
X142643857Y-170703428D01*
X142643857Y-170703428D02*
X142501000Y-170631999D01*
X142501000Y-170631999D02*
X142429571Y-170489142D01*
X142429571Y-170489142D02*
X142429571Y-170274857D01*
X142429571Y-170274857D02*
X142358142Y-170131999D01*
X142358142Y-170131999D02*
X142215285Y-170060571D01*
X142215285Y-170060571D02*
X142143857Y-170060571D01*
X142143857Y-170060571D02*
X142001000Y-170131999D01*
X142001000Y-170131999D02*
X141929571Y-170274857D01*
X141929571Y-170274857D02*
X141929571Y-170489142D01*
X141929571Y-170489142D02*
X142001000Y-170631999D01*
X141929571Y-172246285D02*
X142929571Y-172246285D01*
X142072428Y-172246285D02*
X142001000Y-172317714D01*
X142001000Y-172317714D02*
X141929571Y-172460571D01*
X141929571Y-172460571D02*
X141929571Y-172674857D01*
X141929571Y-172674857D02*
X142001000Y-172817714D01*
X142001000Y-172817714D02*
X142143857Y-172889143D01*
X142143857Y-172889143D02*
X142929571Y-172889143D01*
D10*
D11*
X121181000Y-103250857D02*
X121109571Y-103108000D01*
X121109571Y-103108000D02*
X121109571Y-102893714D01*
X121109571Y-102893714D02*
X121181000Y-102679428D01*
X121181000Y-102679428D02*
X121323857Y-102536571D01*
X121323857Y-102536571D02*
X121466714Y-102465142D01*
X121466714Y-102465142D02*
X121752428Y-102393714D01*
X121752428Y-102393714D02*
X121966714Y-102393714D01*
X121966714Y-102393714D02*
X122252428Y-102465142D01*
X122252428Y-102465142D02*
X122395285Y-102536571D01*
X122395285Y-102536571D02*
X122538142Y-102679428D01*
X122538142Y-102679428D02*
X122609571Y-102893714D01*
X122609571Y-102893714D02*
X122609571Y-103036571D01*
X122609571Y-103036571D02*
X122538142Y-103250857D01*
X122538142Y-103250857D02*
X122466714Y-103322285D01*
X122466714Y-103322285D02*
X121966714Y-103322285D01*
X121966714Y-103322285D02*
X121966714Y-103036571D01*
X122609571Y-103965142D02*
X121109571Y-103965142D01*
X121109571Y-103965142D02*
X122609571Y-104822285D01*
X122609571Y-104822285D02*
X121109571Y-104822285D01*
X122609571Y-105536571D02*
X121109571Y-105536571D01*
X121109571Y-105536571D02*
X121109571Y-105893714D01*
X121109571Y-105893714D02*
X121181000Y-106108000D01*
X121181000Y-106108000D02*
X121323857Y-106250857D01*
X121323857Y-106250857D02*
X121466714Y-106322286D01*
X121466714Y-106322286D02*
X121752428Y-106393714D01*
X121752428Y-106393714D02*
X121966714Y-106393714D01*
X121966714Y-106393714D02*
X122252428Y-106322286D01*
X122252428Y-106322286D02*
X122395285Y-106250857D01*
X122395285Y-106250857D02*
X122538142Y-106108000D01*
X122538142Y-106108000D02*
X122609571Y-105893714D01*
X122609571Y-105893714D02*
X122609571Y-105536571D01*
D10*
D11*
X126689571Y-167274857D02*
X126689571Y-167846285D01*
X126189571Y-167489142D02*
X127475285Y-167489142D01*
X127475285Y-167489142D02*
X127618142Y-167560571D01*
X127618142Y-167560571D02*
X127689571Y-167703428D01*
X127689571Y-167703428D02*
X127689571Y-167846285D01*
X127689571Y-168203428D02*
X126689571Y-168989143D01*
X126689571Y-168203428D02*
X127689571Y-168989143D01*
X126689571Y-170460571D02*
X127689571Y-170460571D01*
X126832428Y-170460571D02*
X126761000Y-170532000D01*
X126761000Y-170532000D02*
X126689571Y-170674857D01*
X126689571Y-170674857D02*
X126689571Y-170889143D01*
X126689571Y-170889143D02*
X126761000Y-171032000D01*
X126761000Y-171032000D02*
X126903857Y-171103429D01*
X126903857Y-171103429D02*
X127689571Y-171103429D01*
D10*
D11*
X152518142Y-102465142D02*
X152518142Y-103608000D01*
X153089571Y-103036571D02*
X151946714Y-103036571D01*
X151589571Y-105036571D02*
X151589571Y-104322285D01*
X151589571Y-104322285D02*
X152303857Y-104250857D01*
X152303857Y-104250857D02*
X152232428Y-104322285D01*
X152232428Y-104322285D02*
X152161000Y-104465143D01*
X152161000Y-104465143D02*
X152161000Y-104822285D01*
X152161000Y-104822285D02*
X152232428Y-104965143D01*
X152232428Y-104965143D02*
X152303857Y-105036571D01*
X152303857Y-105036571D02*
X152446714Y-105108000D01*
X152446714Y-105108000D02*
X152803857Y-105108000D01*
X152803857Y-105108000D02*
X152946714Y-105036571D01*
X152946714Y-105036571D02*
X153018142Y-104965143D01*
X153018142Y-104965143D02*
X153089571Y-104822285D01*
X153089571Y-104822285D02*
X153089571Y-104465143D01*
X153089571Y-104465143D02*
X153018142Y-104322285D01*
X153018142Y-104322285D02*
X152946714Y-104250857D01*
X151589571Y-105536571D02*
X153089571Y-106036571D01*
X153089571Y-106036571D02*
X151589571Y-106536571D01*
D10*
D11*
X142858142Y-103108000D02*
X142929571Y-102965142D01*
X142929571Y-102965142D02*
X142929571Y-102679428D01*
X142929571Y-102679428D02*
X142858142Y-102536571D01*
X142858142Y-102536571D02*
X142786714Y-102465142D01*
X142786714Y-102465142D02*
X142643857Y-102393714D01*
X142643857Y-102393714D02*
X142215285Y-102393714D01*
X142215285Y-102393714D02*
X142072428Y-102465142D01*
X142072428Y-102465142D02*
X142001000Y-102536571D01*
X142001000Y-102536571D02*
X141929571Y-102679428D01*
X141929571Y-102679428D02*
X141929571Y-102965142D01*
X141929571Y-102965142D02*
X142001000Y-103108000D01*
X142929571Y-103965142D02*
X142858142Y-103822285D01*
X142858142Y-103822285D02*
X142786714Y-103750856D01*
X142786714Y-103750856D02*
X142643857Y-103679428D01*
X142643857Y-103679428D02*
X142215285Y-103679428D01*
X142215285Y-103679428D02*
X142072428Y-103750856D01*
X142072428Y-103750856D02*
X142001000Y-103822285D01*
X142001000Y-103822285D02*
X141929571Y-103965142D01*
X141929571Y-103965142D02*
X141929571Y-104179428D01*
X141929571Y-104179428D02*
X142001000Y-104322285D01*
X142001000Y-104322285D02*
X142072428Y-104393714D01*
X142072428Y-104393714D02*
X142215285Y-104465142D01*
X142215285Y-104465142D02*
X142643857Y-104465142D01*
X142643857Y-104465142D02*
X142786714Y-104393714D01*
X142786714Y-104393714D02*
X142858142Y-104322285D01*
X142858142Y-104322285D02*
X142929571Y-104179428D01*
X142929571Y-104179428D02*
X142929571Y-103965142D01*
X142858142Y-105036571D02*
X142929571Y-105179428D01*
X142929571Y-105179428D02*
X142929571Y-105465142D01*
X142929571Y-105465142D02*
X142858142Y-105607999D01*
X142858142Y-105607999D02*
X142715285Y-105679428D01*
X142715285Y-105679428D02*
X142643857Y-105679428D01*
X142643857Y-105679428D02*
X142501000Y-105607999D01*
X142501000Y-105607999D02*
X142429571Y-105465142D01*
X142429571Y-105465142D02*
X142429571Y-105250857D01*
X142429571Y-105250857D02*
X142358142Y-105107999D01*
X142358142Y-105107999D02*
X142215285Y-105036571D01*
X142215285Y-105036571D02*
X142143857Y-105036571D01*
X142143857Y-105036571D02*
X142001000Y-105107999D01*
X142001000Y-105107999D02*
X141929571Y-105250857D01*
X141929571Y-105250857D02*
X141929571Y-105465142D01*
X141929571Y-105465142D02*
X142001000Y-105607999D01*
X141929571Y-107222285D02*
X142929571Y-107222285D01*
X142072428Y-107222285D02*
X142001000Y-107293714D01*
X142001000Y-107293714D02*
X141929571Y-107436571D01*
X141929571Y-107436571D02*
X141929571Y-107650857D01*
X141929571Y-107650857D02*
X142001000Y-107793714D01*
X142001000Y-107793714D02*
X142143857Y-107865143D01*
X142143857Y-107865143D02*
X142929571Y-107865143D01*
D10*
D11*
X157598142Y-102465142D02*
X157598142Y-103608000D01*
X158169571Y-103036571D02*
X157026714Y-103036571D01*
X156669571Y-105036571D02*
X156669571Y-104322285D01*
X156669571Y-104322285D02*
X157383857Y-104250857D01*
X157383857Y-104250857D02*
X157312428Y-104322285D01*
X157312428Y-104322285D02*
X157241000Y-104465143D01*
X157241000Y-104465143D02*
X157241000Y-104822285D01*
X157241000Y-104822285D02*
X157312428Y-104965143D01*
X157312428Y-104965143D02*
X157383857Y-105036571D01*
X157383857Y-105036571D02*
X157526714Y-105108000D01*
X157526714Y-105108000D02*
X157883857Y-105108000D01*
X157883857Y-105108000D02*
X158026714Y-105036571D01*
X158026714Y-105036571D02*
X158098142Y-104965143D01*
X158098142Y-104965143D02*
X158169571Y-104822285D01*
X158169571Y-104822285D02*
X158169571Y-104465143D01*
X158169571Y-104465143D02*
X158098142Y-104322285D01*
X158098142Y-104322285D02*
X158026714Y-104250857D01*
X156669571Y-105536571D02*
X158169571Y-106036571D01*
X158169571Y-106036571D02*
X156669571Y-106536571D01*
D10*
D11*
X158098142Y-167417714D02*
X158169571Y-167560571D01*
X158169571Y-167560571D02*
X158169571Y-167846285D01*
X158169571Y-167846285D02*
X158098142Y-167989142D01*
X158098142Y-167989142D02*
X157955285Y-168060571D01*
X157955285Y-168060571D02*
X157883857Y-168060571D01*
X157883857Y-168060571D02*
X157741000Y-167989142D01*
X157741000Y-167989142D02*
X157669571Y-167846285D01*
X157669571Y-167846285D02*
X157669571Y-167632000D01*
X157669571Y-167632000D02*
X157598142Y-167489142D01*
X157598142Y-167489142D02*
X157455285Y-167417714D01*
X157455285Y-167417714D02*
X157383857Y-167417714D01*
X157383857Y-167417714D02*
X157241000Y-167489142D01*
X157241000Y-167489142D02*
X157169571Y-167632000D01*
X157169571Y-167632000D02*
X157169571Y-167846285D01*
X157169571Y-167846285D02*
X157241000Y-167989142D01*
X158169571Y-168703428D02*
X157169571Y-168703428D01*
X156669571Y-168703428D02*
X156741000Y-168632000D01*
X156741000Y-168632000D02*
X156812428Y-168703428D01*
X156812428Y-168703428D02*
X156741000Y-168774857D01*
X156741000Y-168774857D02*
X156669571Y-168703428D01*
X156669571Y-168703428D02*
X156812428Y-168703428D01*
X157169571Y-169417714D02*
X158169571Y-169417714D01*
X157312428Y-169417714D02*
X157241000Y-169489143D01*
X157241000Y-169489143D02*
X157169571Y-169632000D01*
X157169571Y-169632000D02*
X157169571Y-169846286D01*
X157169571Y-169846286D02*
X157241000Y-169989143D01*
X157241000Y-169989143D02*
X157383857Y-170060572D01*
X157383857Y-170060572D02*
X158169571Y-170060572D01*
X157169571Y-171674857D02*
X158169571Y-171674857D01*
X157312428Y-171674857D02*
X157241000Y-171746286D01*
X157241000Y-171746286D02*
X157169571Y-171889143D01*
X157169571Y-171889143D02*
X157169571Y-172103429D01*
X157169571Y-172103429D02*
X157241000Y-172246286D01*
X157241000Y-172246286D02*
X157383857Y-172317715D01*
X157383857Y-172317715D02*
X158169571Y-172317715D01*
D10*
D11*
X147938142Y-103108000D02*
X148009571Y-102965142D01*
X148009571Y-102965142D02*
X148009571Y-102679428D01*
X148009571Y-102679428D02*
X147938142Y-102536571D01*
X147938142Y-102536571D02*
X147866714Y-102465142D01*
X147866714Y-102465142D02*
X147723857Y-102393714D01*
X147723857Y-102393714D02*
X147295285Y-102393714D01*
X147295285Y-102393714D02*
X147152428Y-102465142D01*
X147152428Y-102465142D02*
X147081000Y-102536571D01*
X147081000Y-102536571D02*
X147009571Y-102679428D01*
X147009571Y-102679428D02*
X147009571Y-102965142D01*
X147009571Y-102965142D02*
X147081000Y-103108000D01*
X148009571Y-103965142D02*
X147938142Y-103822285D01*
X147938142Y-103822285D02*
X147866714Y-103750856D01*
X147866714Y-103750856D02*
X147723857Y-103679428D01*
X147723857Y-103679428D02*
X147295285Y-103679428D01*
X147295285Y-103679428D02*
X147152428Y-103750856D01*
X147152428Y-103750856D02*
X147081000Y-103822285D01*
X147081000Y-103822285D02*
X147009571Y-103965142D01*
X147009571Y-103965142D02*
X147009571Y-104179428D01*
X147009571Y-104179428D02*
X147081000Y-104322285D01*
X147081000Y-104322285D02*
X147152428Y-104393714D01*
X147152428Y-104393714D02*
X147295285Y-104465142D01*
X147295285Y-104465142D02*
X147723857Y-104465142D01*
X147723857Y-104465142D02*
X147866714Y-104393714D01*
X147866714Y-104393714D02*
X147938142Y-104322285D01*
X147938142Y-104322285D02*
X148009571Y-104179428D01*
X148009571Y-104179428D02*
X148009571Y-103965142D01*
X147938142Y-105036571D02*
X148009571Y-105179428D01*
X148009571Y-105179428D02*
X148009571Y-105465142D01*
X148009571Y-105465142D02*
X147938142Y-105607999D01*
X147938142Y-105607999D02*
X147795285Y-105679428D01*
X147795285Y-105679428D02*
X147723857Y-105679428D01*
X147723857Y-105679428D02*
X147581000Y-105607999D01*
X147581000Y-105607999D02*
X147509571Y-105465142D01*
X147509571Y-105465142D02*
X147509571Y-105250857D01*
X147509571Y-105250857D02*
X147438142Y-105107999D01*
X147438142Y-105107999D02*
X147295285Y-105036571D01*
X147295285Y-105036571D02*
X147223857Y-105036571D01*
X147223857Y-105036571D02*
X147081000Y-105107999D01*
X147081000Y-105107999D02*
X147009571Y-105250857D01*
X147009571Y-105250857D02*
X147009571Y-105465142D01*
X147009571Y-105465142D02*
X147081000Y-105607999D01*
X147009571Y-107222285D02*
X148509571Y-107222285D01*
X147081000Y-107222285D02*
X147009571Y-107365143D01*
X147009571Y-107365143D02*
X147009571Y-107650857D01*
X147009571Y-107650857D02*
X147081000Y-107793714D01*
X147081000Y-107793714D02*
X147152428Y-107865143D01*
X147152428Y-107865143D02*
X147295285Y-107936571D01*
X147295285Y-107936571D02*
X147723857Y-107936571D01*
X147723857Y-107936571D02*
X147866714Y-107865143D01*
X147866714Y-107865143D02*
X147938142Y-107793714D01*
X147938142Y-107793714D02*
X148009571Y-107650857D01*
X148009571Y-107650857D02*
X148009571Y-107365143D01*
X148009571Y-107365143D02*
X147938142Y-107222285D01*
D10*
D11*
X121609571Y-167274857D02*
X121609571Y-167846285D01*
X121109571Y-167489142D02*
X122395285Y-167489142D01*
X122395285Y-167489142D02*
X122538142Y-167560571D01*
X122538142Y-167560571D02*
X122609571Y-167703428D01*
X122609571Y-167703428D02*
X122609571Y-167846285D01*
X122609571Y-168203428D02*
X121609571Y-168989143D01*
X121609571Y-168203428D02*
X122609571Y-168989143D01*
X121609571Y-170460571D02*
X123109571Y-170460571D01*
X121681000Y-170460571D02*
X121609571Y-170603429D01*
X121609571Y-170603429D02*
X121609571Y-170889143D01*
X121609571Y-170889143D02*
X121681000Y-171032000D01*
X121681000Y-171032000D02*
X121752428Y-171103429D01*
X121752428Y-171103429D02*
X121895285Y-171174857D01*
X121895285Y-171174857D02*
X122323857Y-171174857D01*
X122323857Y-171174857D02*
X122466714Y-171103429D01*
X122466714Y-171103429D02*
X122538142Y-171032000D01*
X122538142Y-171032000D02*
X122609571Y-170889143D01*
X122609571Y-170889143D02*
X122609571Y-170603429D01*
X122609571Y-170603429D02*
X122538142Y-170460571D01*
D10*
D11*
X153018142Y-167417714D02*
X153089571Y-167560571D01*
X153089571Y-167560571D02*
X153089571Y-167846285D01*
X153089571Y-167846285D02*
X153018142Y-167989142D01*
X153018142Y-167989142D02*
X152875285Y-168060571D01*
X152875285Y-168060571D02*
X152803857Y-168060571D01*
X152803857Y-168060571D02*
X152661000Y-167989142D01*
X152661000Y-167989142D02*
X152589571Y-167846285D01*
X152589571Y-167846285D02*
X152589571Y-167632000D01*
X152589571Y-167632000D02*
X152518142Y-167489142D01*
X152518142Y-167489142D02*
X152375285Y-167417714D01*
X152375285Y-167417714D02*
X152303857Y-167417714D01*
X152303857Y-167417714D02*
X152161000Y-167489142D01*
X152161000Y-167489142D02*
X152089571Y-167632000D01*
X152089571Y-167632000D02*
X152089571Y-167846285D01*
X152089571Y-167846285D02*
X152161000Y-167989142D01*
X153089571Y-168703428D02*
X152089571Y-168703428D01*
X151589571Y-168703428D02*
X151661000Y-168632000D01*
X151661000Y-168632000D02*
X151732428Y-168703428D01*
X151732428Y-168703428D02*
X151661000Y-168774857D01*
X151661000Y-168774857D02*
X151589571Y-168703428D01*
X151589571Y-168703428D02*
X151732428Y-168703428D01*
X152089571Y-169417714D02*
X153089571Y-169417714D01*
X152232428Y-169417714D02*
X152161000Y-169489143D01*
X152161000Y-169489143D02*
X152089571Y-169632000D01*
X152089571Y-169632000D02*
X152089571Y-169846286D01*
X152089571Y-169846286D02*
X152161000Y-169989143D01*
X152161000Y-169989143D02*
X152303857Y-170060572D01*
X152303857Y-170060572D02*
X153089571Y-170060572D01*
X152089571Y-171674857D02*
X153589571Y-171674857D01*
X152161000Y-171674857D02*
X152089571Y-171817715D01*
X152089571Y-171817715D02*
X152089571Y-172103429D01*
X152089571Y-172103429D02*
X152161000Y-172246286D01*
X152161000Y-172246286D02*
X152232428Y-172317715D01*
X152232428Y-172317715D02*
X152375285Y-172389143D01*
X152375285Y-172389143D02*
X152803857Y-172389143D01*
X152803857Y-172389143D02*
X152946714Y-172317715D01*
X152946714Y-172317715D02*
X153018142Y-172246286D01*
X153018142Y-172246286D02*
X153089571Y-172103429D01*
X153089571Y-172103429D02*
X153089571Y-171817715D01*
X153089571Y-171817715D02*
X153018142Y-171674857D01*
D12*
%TO.P,H3,1,1*%
%TO.N,GND*%
X170000000Y-105000000D03*
%TD*%
%TO.P,H2,1,1*%
%TO.N,GND*%
X170000000Y-170000000D03*
%TD*%
D13*
%TO.P,J1,1,VTref*%
%TO.N,+3.3V*%
X105419499Y-115310999D03*
D14*
%TO.P,J1,2,SWDIO/TMS*%
%TO.N,/Microprocessor/SWDIO*%
X107959499Y-115310999D03*
%TO.P,J1,3,GND*%
%TO.N,GND*%
X105419499Y-117850999D03*
%TO.P,J1,4,SWDCLK/TCK*%
%TO.N,/Microprocessor/SWCK*%
X107959499Y-117850999D03*
%TO.P,J1,5,GND*%
%TO.N,GND*%
X105419499Y-120390999D03*
%TO.P,J1,6,SWO/TDO*%
%TO.N,unconnected-(J1-SWO{slash}TDO)*%
X107959499Y-120390999D03*
%TO.P,J1,7,KEY*%
%TO.N,unconnected-(J1-KEY)*%
X105419499Y-122930999D03*
%TO.P,J1,8,NC/TDI*%
%TO.N,unconnected-(J1-NC{slash}TDI)*%
X107959499Y-122930999D03*
%TO.P,J1,9,GNDDetect*%
%TO.N,GND*%
X105419499Y-125470999D03*
%TO.P,J1,10,~{RESET}*%
%TO.N,/Microprocessor/~{RESET}*%
X107959499Y-125470999D03*
%TD*%
D15*
%TO.P,J2,1,Pin_1*%
%TO.N,Net-(J2-Pin_1)*%
X121920000Y-164592000D03*
D16*
%TO.P,J2,2,Pin_2*%
%TO.N,Net-(J2-Pin_2)*%
X126999999Y-164591999D03*
%TO.P,J2,3,Pin_3*%
%TO.N,GND*%
X132079999Y-164591999D03*
%TO.P,J2,4,Pin_4*%
%TO.N,Net-(J2-Pin_4)*%
X137159999Y-164591999D03*
%TO.P,J2,5,Pin_5*%
%TO.N,Net-(J2-Pin_5)*%
X142239999Y-164591999D03*
%TO.P,J2,6,Pin_6*%
%TO.N,GND*%
X147319999Y-164591999D03*
%TO.P,J2,7,Pin_7*%
%TO.N,Net-(J2-Pin_7)*%
X152399999Y-164591999D03*
%TO.P,J2,8,Pin_8*%
%TO.N,Net-(J2-Pin_8)*%
X157479999Y-164591999D03*
%TD*%
D12*
%TO.P,H1,1,1*%
%TO.N,GND*%
X105000000Y-170000000D03*
%TD*%
D13*
%TO.P,J4,1,Pin_1*%
%TO.N,+3.3V*%
X131571999Y-128015999D03*
D14*
%TO.P,J4,2,Pin_2*%
%TO.N,/Microprocessor/USART4_TX*%
X134111999Y-128015999D03*
%TO.P,J4,3,Pin_3*%
%TO.N,/Microprocessor/USART4_RX*%
X136651999Y-128015999D03*
%TO.P,J4,4,Pin_4*%
%TO.N,GND*%
X139191999Y-128015999D03*
%TD*%
D12*
%TO.P,H4,1,1*%
%TO.N,GND*%
X105000000Y-105000000D03*
%TD*%
D17*
%TO.P,J3,1,Pin_1*%
%TO.N,+5V*%
X157480000Y-110236000D03*
D16*
%TO.P,J3,2,Pin_2*%
X152399999Y-110235999D03*
%TO.P,J3,3,Pin_3*%
%TO.N,Net-(J3-Pin_3)*%
X147319999Y-110235999D03*
%TO.P,J3,4,Pin_4*%
%TO.N,Net-(J3-Pin_4)*%
X142239999Y-110235999D03*
%TO.P,J3,5,Pin_5*%
%TO.N,Net-(J3-Pin_5)*%
X137159999Y-110235999D03*
%TO.P,J3,6,Pin_6*%
%TO.N,Net-(J3-Pin_6)*%
X132079999Y-110235999D03*
%TO.P,J3,7,Pin_7*%
%TO.N,GND*%
X126999999Y-110235999D03*
%TO.P,J3,8,Pin_8*%
X121919999Y-110235999D03*
%TD*%
D18*
%TO.N,GND*%
X140716000Y-152258500D03*
X163068000Y-121412000D03*
X146812000Y-135636000D03*
X140716000Y-134620000D03*
X153416000Y-152400000D03*
X116848332Y-118364174D03*
X125984000Y-154940000D03*
X171196000Y-120904000D03*
X107696000Y-151384000D03*
X136144000Y-119380000D03*
X153416000Y-154940000D03*
X153924000Y-134620000D03*
X118237000Y-128664000D03*
X140716000Y-154940000D03*
X125476000Y-161036000D03*
X167640000Y-142240000D03*
X172212000Y-112776000D03*
X159004000Y-120904000D03*
X109220000Y-137668000D03*
X115316000Y-115824000D03*
X119380000Y-142240000D03*
X156464000Y-143256000D03*
X146304000Y-146304000D03*
X148844000Y-161036000D03*
X161036000Y-120904000D03*
X146304000Y-127000000D03*
X145796000Y-119380000D03*
X146304000Y-134112000D03*
X107696000Y-147320000D03*
X109728000Y-141224000D03*
X125476000Y-141224000D03*
X153924000Y-161036000D03*
X108204000Y-156458000D03*
X145796000Y-161036000D03*
X130556000Y-161036000D03*
X135636000Y-142240000D03*
X109728000Y-129540000D03*
X169672000Y-120904000D03*
X135636000Y-114300000D03*
X145796000Y-114300000D03*
X150876000Y-114300000D03*
X102616000Y-111760000D03*
X140716000Y-114300000D03*
X163576000Y-135128000D03*
X131064000Y-134620000D03*
X140208000Y-161036000D03*
X172440500Y-110822500D03*
%TO.N,Net-(U2B--)*%
X157988000Y-152908000D03*
X159004000Y-144780000D03*
%TO.N,Net-(U2B-+)*%
X151384000Y-150876000D03*
X158496000Y-143764000D03*
%TO.N,/OUT_SIN_P*%
X169672000Y-138176000D03*
X139700000Y-120904000D03*
%TO.N,Net-(U4A-+)*%
X127508000Y-140716000D03*
X127508000Y-135128000D03*
%TO.N,/OUT_COS_P*%
X124460000Y-138684000D03*
X129540000Y-122936000D03*
%TO.N,Net-(U4C-+)*%
X135636000Y-143764000D03*
X138176000Y-150876000D03*
%TO.N,+5V*%
X108204000Y-163068000D03*
X107696000Y-136652000D03*
X167640000Y-121412000D03*
X142748000Y-154940000D03*
X143764000Y-119380000D03*
X165328500Y-109806500D03*
X155448000Y-154940000D03*
X147828000Y-135636000D03*
X134112000Y-119380000D03*
X128016000Y-154940000D03*
X148477500Y-133096000D03*
X157480000Y-143256000D03*
X125476000Y-143256000D03*
X110236000Y-143256000D03*
%TO.N,/OUT_COS_N*%
X130556000Y-146304000D03*
X130556000Y-121778500D03*
%TO.N,/OUT_SIN_N*%
X170180000Y-145288000D03*
X132080000Y-120904000D03*
%TO.N,/U_REF*%
X138684000Y-149860000D03*
X109220000Y-149860000D03*
X111252000Y-139192000D03*
X108204000Y-165100000D03*
X148844000Y-150876000D03*
X153924000Y-136652000D03*
X164084000Y-143256000D03*
X153924000Y-149352000D03*
X162560000Y-135636000D03*
X127508000Y-150368000D03*
X139192000Y-136652000D03*
X127508000Y-143764000D03*
%TO.N,SW_POS*%
X146304000Y-144272000D03*
X148336000Y-130556000D03*
%TO.N,SW_NEG*%
X148336000Y-131572000D03*
X147828000Y-140208000D03*
%TO.N,Net-(U2D-+)*%
X167640000Y-135636000D03*
X167640000Y-140716000D03*
%TO.N,Net-(U4C--)*%
X143256000Y-152908000D03*
X135636000Y-144780000D03*
%TO.N,+3.3V*%
X107188000Y-144272000D03*
X142748000Y-128524000D03*
X115245079Y-117499187D03*
X108204000Y-159512000D03*
X146812000Y-124460000D03*
X109728000Y-128016000D03*
X156972000Y-122936000D03*
X115189000Y-128664000D03*
%TO.N,RESOLVER_TX*%
X113792000Y-121920000D03*
X116840000Y-152400000D03*
%TD*%
D19*
%TO.N,Net-(U2B--)*%
X159004000Y-144780000D02*
X159004000Y-151892000D01*
X159004000Y-151892000D02*
X157988000Y-152908000D01*
%TO.N,Net-(U2B-+)*%
X158354000Y-143906000D02*
X158354000Y-148986000D01*
X158496000Y-143764000D02*
X158354000Y-143906000D01*
X156464000Y-150876000D02*
X151384000Y-150876000D01*
X156464000Y-150876000D02*
X158354000Y-148986000D01*
%TO.N,/OUT_SIN_P*%
X170522314Y-118256000D02*
X172320000Y-120053686D01*
X172320000Y-133072314D02*
X169672000Y-135720314D01*
X142348000Y-118256000D02*
X170522314Y-118256000D01*
X172320000Y-120053686D02*
X172320000Y-133072314D01*
X139700000Y-120904000D02*
X142348000Y-118256000D01*
X169672000Y-135720314D02*
X169672000Y-138176000D01*
%TO.N,Net-(U4A-+)*%
X127508000Y-140716000D02*
X127508000Y-135128000D01*
%TO.N,/OUT_COS_P*%
X124460000Y-128016000D02*
X124460000Y-138684000D01*
X129540000Y-122936000D02*
X124460000Y-128016000D01*
%TO.N,Net-(U4C-+)*%
X136286000Y-150002000D02*
X137160000Y-150876000D01*
X137160000Y-150876000D02*
X138176000Y-150876000D01*
X136286000Y-144414000D02*
X136286000Y-150002000D01*
X135636000Y-143764000D02*
X136286000Y-144414000D01*
%TO.N,/OUT_COS_N*%
X130556000Y-122839239D02*
X130556000Y-121778500D01*
X125110000Y-128285239D02*
X130556000Y-122839239D01*
X125110000Y-139842000D02*
X125110000Y-128285239D01*
X130556000Y-146304000D02*
X130556000Y-145288000D01*
X130556000Y-145288000D02*
X125110000Y-139842000D01*
%TO.N,/OUT_SIN_N*%
X170322000Y-135636000D02*
X172720000Y-133238000D01*
X170180000Y-145288000D02*
X170322000Y-145146000D01*
X170688000Y-117856000D02*
X134716761Y-117856000D01*
X170322000Y-145146000D02*
X170322000Y-135636000D01*
X132080000Y-120492761D02*
X132080000Y-120904000D01*
X172720000Y-119888000D02*
X170688000Y-117856000D01*
X172720000Y-133238000D02*
X172720000Y-119888000D01*
X134716761Y-117856000D02*
X132080000Y-120492761D01*
%TO.N,/U_REF*%
X109220000Y-149860000D02*
X109362000Y-149718000D01*
X111252000Y-149860000D02*
X109220000Y-149860000D01*
X163068000Y-135636000D02*
X162560000Y-135636000D01*
X108204000Y-165100000D02*
X109220000Y-164084000D01*
X109362000Y-143114000D02*
X110744000Y-141732000D01*
X139192000Y-136652000D02*
X139192000Y-149352000D01*
X127508000Y-143764000D02*
X127508000Y-150368000D01*
X127508000Y-150368000D02*
X120396000Y-150368000D01*
X153924000Y-136652000D02*
X153924000Y-149352000D01*
X139700000Y-150876000D02*
X138684000Y-149860000D01*
X164084000Y-136652000D02*
X163068000Y-135636000D01*
X164084000Y-143256000D02*
X164084000Y-136652000D01*
X148844000Y-150876000D02*
X139700000Y-150876000D01*
X110744000Y-141732000D02*
X110744000Y-139700000D01*
X139192000Y-149352000D02*
X138684000Y-149860000D01*
X109220000Y-164084000D02*
X109220000Y-149860000D01*
X110744000Y-139700000D02*
X111252000Y-139192000D01*
X117348000Y-153416000D02*
X114808000Y-153416000D01*
X109362000Y-149718000D02*
X109362000Y-143114000D01*
X114808000Y-153416000D02*
X111252000Y-149860000D01*
X120396000Y-150368000D02*
X117348000Y-153416000D01*
%TO.N,SW_POS*%
X144780000Y-142748000D02*
X146304000Y-144272000D01*
X144780000Y-134112000D02*
X144780000Y-142748000D01*
X148336000Y-130556000D02*
X144780000Y-134112000D01*
%TO.N,SW_NEG*%
X147828000Y-134112000D02*
X148844000Y-135128000D01*
X148336000Y-131572000D02*
X147828000Y-132080000D01*
X148844000Y-135128000D02*
X148844000Y-139192000D01*
X148844000Y-139192000D02*
X147828000Y-140208000D01*
X147828000Y-132080000D02*
X147828000Y-134112000D01*
%TO.N,Net-(U2D-+)*%
X167640000Y-140716000D02*
X167640000Y-135636000D01*
%TO.N,Net-(U4C--)*%
X135636000Y-152908000D02*
X143256000Y-152908000D01*
X135636000Y-144780000D02*
X135636000Y-152908000D01*
%TO.N,RESOLVER_TX*%
X113792000Y-151384000D02*
X114808000Y-152400000D01*
X113792000Y-121920000D02*
X113792000Y-151384000D01*
X114808000Y-152400000D02*
X116840000Y-152400000D01*
%TD*%
M02*
